<?xml version="1.0" standalone="no"?>
<!DOCTYPE svg PUBLIC "-//W3C//DTD SVG 20010904//EN"
 "http://www.w3.org/TR/2001/REC-SVG-20010904/DTD/svg10.dtd">
<svg version="1.0" xmlns="http://www.w3.org/2000/svg"
 width="1920.000000pt" height="1080.000000pt" viewBox="0 0 1920.000000 1080.000000"
 preserveAspectRatio="xMidYMid meet">

<g transform="translate(0.000000,1080.000000) scale(0.100000,-0.100000)"
fill="#000000" stroke="none">
<path d="M0 5650 l0 -5150 9600 0 9600 0 0 5150 0 5150 -9600 0 -9600 0 0
-5150z m3421 5071 c40 -40 40 -91 0 -132 -27 -26 -34 -28 -93 -27 l-64 2 -2
56 c-3 93 23 128 96 129 24 1 42 -7 63 -28z m5231 19 c2 -5 2 -48 0 -95 l-3
-85 -84 0 c-46 0 -86 4 -89 9 -9 14 -15 122 -9 153 l6 28 87 0 c49 0 90 -4 92
-10z m2577 -16 c25 -21 31 -33 31 -67 0 -42 -29 -87 -57 -87 -20 0 -15 40 7
58 16 13 19 24 15 47 -6 29 -9 30 -53 30 -26 0 -50 -4 -54 -10 -16 -21 -8 -63
15 -78 16 -12 18 -16 7 -16 -9 -1 -22 5 -29 12 -10 10 -11 9 -6 -5 4 -10 13
-18 21 -18 8 0 14 -4 14 -10 0 -24 -38 -2 -56 32 -49 95 64 181 145 112z
m-5221 -20 c4 -28 -25 -53 -34 -30 -4 10 -18 16 -35 16 -18 0 -29 5 -29 14 0
19 17 25 60 23 27 -2 36 -7 38 -23z m1927 -7 c21 -30 19 -63 -5 -87 -24 -24
-77 -26 -102 -3 -35 31 -12 114 31 112 11 0 8 -3 -6 -9 -27 -11 -39 -53 -24
-86 21 -48 111 -22 111 32 0 23 -7 32 -45 59 -19 14 -19 14 3 8 12 -3 29 -15
37 -26z m5919 11 c7 -12 7 -23 -2 -40 -6 -13 -13 -36 -14 -53 l-3 -30 -82 -3
-83 -3 0 56 0 55 55 0 c45 0 56 4 65 21 13 24 48 22 64 -3z m2556 -13 c0 -21
5 -25 30 -25 38 0 40 -18 3 -22 -22 -2 -29 -9 -31 -30 -2 -16 -7 -28 -12 -28
-5 0 -10 12 -12 28 -2 21 -9 28 -31 30 -33 4 -26 22 9 22 19 0 24 5 24 25 0
14 5 25 10 25 6 0 10 -11 10 -25z m-15440 11 c0 -3 -4 -8 -10 -11 -5 -3 -10
-1 -10 4 0 6 5 11 10 11 6 0 10 -2 10 -4z m48 -48 c-1 -51 -2 -51 -5 -10 -2
23 -9 42 -16 42 -7 0 -6 4 3 10 8 5 16 10 18 10 1 0 1 -24 0 -52z m93 45 c0
-5 1 -26 2 -48 2 -35 -1 -40 -22 -43 -28 -4 -43 15 -31 39 5 9 7 19 3 22 -11
12 7 37 27 37 11 0 20 -3 21 -7z m43 -9 c14 -37 3 -104 -17 -104 -7 0 -7 4 1
12 15 15 16 63 2 89 -6 11 -7 19 -1 19 5 0 12 -7 15 -16z m81 -4 c3 -11 10
-20 15 -20 5 0 12 9 15 20 3 11 11 20 16 20 6 0 3 -10 -5 -22 -9 -12 -16 -35
-16 -50 0 -16 -4 -28 -10 -28 -5 0 -10 9 -10 20 0 12 -7 34 -15 50 -9 17 -11
30 -6 30 5 0 13 -9 16 -20z m263 13 c-14 -3 -18 -16 -20 -51 l-1 -47 -4 45
c-3 24 -10 48 -16 52 -7 4 4 7 23 7 19 -1 27 -3 18 -6z m126 -8 c-4 -8 -1 -15
5 -15 8 0 9 -6 3 -17 -5 -10 -7 -24 -5 -30 7 -18 33 -16 33 2 0 8 5 15 10 15
7 0 7 -6 0 -20 -6 -12 -21 -20 -35 -20 -23 0 -25 4 -25 50 0 28 4 50 10 50 5
0 7 -7 4 -15z m1943 -15 c-9 -23 -8 -38 1 -62 10 -30 10 -31 -3 -14 -17 23
-19 59 -5 87 16 29 20 23 7 -11z m80 14 c3 -9 -5 -27 -22 -44 l-27 -28 28 -5
c28 -4 28 -4 -3 -6 -40 -1 -41 8 -8 39 31 29 32 47 3 53 l-23 4 23 2 c12 0 25
-6 29 -15z m45 -66 c-4 -17 -14 -34 -22 -36 -13 -5 -13 -3 -1 11 9 12 12 32 8
64 -5 46 -5 47 9 20 10 -19 12 -37 6 -59z m106 52 c16 37 15 38 38 -25 6 -17
8 -14 16 18 6 20 14 37 19 37 4 0 2 -21 -6 -47 -8 -27 -15 -49 -15 -50 0 -2
-4 -3 -9 -3 -5 0 -11 14 -14 30 -7 32 -27 42 -27 13 0 -10 -4 -25 -10 -33 -7
-12 -11 -10 -18 10 -5 14 -12 39 -15 55 -6 29 -6 29 10 -5 l16 -35 15 35z
m125 -2 c18 -2 22 -10 23 -38 l2 -35 -5 33 c-6 42 -35 40 -44 -3 -5 -22 -7
-16 -7 25 0 30 2 47 5 38 2 -9 14 -18 26 -20z m291 -8 c18 -45 21 -75 5 -47
-5 9 -19 17 -29 17 -10 0 -24 -8 -29 -17 -15 -26 -13 -13 5 40 9 26 19 47 24
47 4 0 15 -18 24 -40z m1985 5 c7 -19 16 -35 20 -35 4 0 13 16 20 35 18 51 31
43 30 -17 -2 -51 -2 -52 -8 -14 l-6 39 -19 -39 -19 -39 -16 35 -15 35 -4 -32
c-5 -51 -17 -39 -17 17 0 58 15 65 34 15z m463 18 c5 -28 -3 -83 -13 -83 -5 0
-9 23 -9 50 0 48 15 70 22 33z m318 -33 c0 -46 -2 -50 -24 -50 -30 0 -50 23
-41 50 10 31 22 24 17 -11 -4 -26 -2 -30 14 -27 23 4 31 37 12 49 -10 6 -10 9
0 9 6 0 12 7 12 15 0 8 2 15 5 15 3 0 5 -22 5 -50z m40 24 c0 -21 3 -24 14
-15 10 9 10 3 -3 -23 -9 -20 -19 -35 -23 -36 -5 0 -8 23 -8 50 0 28 5 50 10
50 6 0 10 -12 10 -26z m392 -4 c6 0 6 -6 -2 -15 -15 -18 -6 -45 16 -45 12 0
15 7 12 30 -5 32 14 38 20 6 5 -24 -16 -46 -44 -46 -22 0 -24 4 -23 53 1 28 3
44 6 35 2 -10 9 -18 15 -18z m93 22 c-5 -4 -10 -13 -11 -19 -1 -7 -2 -28 -4
-45 l-2 -33 -8 40 c-9 47 -4 65 19 65 9 0 12 -3 6 -8z m1316 1 c0 -5 1 -26 2
-48 2 -37 0 -40 -25 -43 -27 -3 -28 -2 -28 47 0 48 2 51 25 51 14 0 25 -3 26
-7z m36 -70 c-2 -16 -4 -3 -4 27 0 30 2 43 4 28 2 -16 2 -40 0 -55z m193 50
c0 -21 3 -24 12 -15 18 18 33 15 17 -4 -10 -12 -10 -20 -1 -35 7 -10 8 -19 3
-19 -6 0 -15 8 -20 18 -10 16 -10 16 -11 0 0 -10 -4 -18 -10 -18 -5 0 -8 23
-7 50 1 51 17 72 17 23z m75 -13 c4 -17 10 -30 15 -30 5 0 11 13 15 30 4 16
11 33 17 36 6 4 8 1 5 -7 -3 -8 -11 -31 -18 -51 -7 -21 -16 -38 -20 -38 -4 0
-14 21 -23 47 -19 54 -19 56 -7 48 5 -3 12 -19 16 -35z m369 24 c7 -19 -10
-44 -30 -44 -8 0 -14 -9 -14 -20 0 -11 -4 -20 -10 -20 -5 0 -10 23 -10 50 0
48 1 50 29 50 17 0 31 -6 35 -16z m906 -24 c7 -21 17 -37 21 -34 11 6 12 -10
2 -20 -4 -4 -15 8 -25 26 l-17 33 -1 -32 c0 -18 -3 -33 -7 -33 -5 0 -8 23 -8
50 0 61 17 66 35 10z m51 13 c-12 -20 -14 -14 -5 12 4 9 9 14 11 11 3 -2 0
-13 -6 -23z m973 -13 c18 -45 21 -75 5 -47 -13 22 -45 22 -53 1 -4 -9 -9 -15
-11 -12 -7 6 27 98 36 98 4 0 14 -18 23 -40z m50 -7 c1 -28 6 -39 20 -41 16
-3 18 1 14 27 -5 32 6 42 16 15 9 -24 -12 -54 -39 -54 -23 0 -25 3 -25 52 0
58 12 59 14 1z m88 30 c5 -28 -3 -83 -13 -83 -5 0 -9 23 -9 50 0 48 15 70 22
33z m368 10 c-8 -2 -22 -7 -30 -9 -10 -4 -7 -11 15 -28 35 -28 29 -57 -12 -55
l-28 2 28 4 c31 5 36 29 8 38 -21 6 -34 31 -25 46 3 5 17 9 32 8 15 0 20 -3
12 -6z m52 -23 c7 0 7 -4 0 -12 -5 -7 -12 -24 -15 -38 -2 -14 -4 0 -4 30 -1
30 1 47 4 38 2 -10 9 -18 15 -18z m432 15 c3 -8 -6 -28 -20 -44 l-25 -30 28
-4 c26 -4 26 -4 -4 -6 -40 -1 -41 7 -8 43 31 33 31 34 3 46 -23 9 -23 9 -2 9
12 1 24 -6 28 -14z m78 -17 c2 -18 2 -41 0 -50 -4 -21 -22 -24 -22 -4 0 8 -9
16 -20 18 -19 3 -19 3 1 36 12 17 25 32 29 32 4 0 10 -15 12 -32z m46 -31
c-24 -66 -36 -72 -13 -6 24 70 25 72 30 67 2 -2 -5 -30 -17 -61z m90 40 c3
-12 -4 -20 -17 -24 -12 -3 -21 -13 -21 -24 0 -23 27 -26 33 -4 4 11 4 10 3 -2
-1 -12 -10 -18 -26 -18 -23 0 -25 4 -26 48 0 46 1 48 25 45 16 -2 27 -10 29
-21z m42 -27 c0 -27 -3 -50 -7 -50 -5 0 -6 22 -5 50 5 65 12 65 12 0z m189 0
c4 0 13 6 21 13 12 10 12 9 1 -6 -12 -15 -11 -20 4 -37 19 -22 7 -28 -13 -8
-10 10 -15 10 -22 -2 -7 -10 -9 2 -8 40 0 30 3 43 5 28 2 -16 8 -28 12 -28z
m75 4 l13 -39 13 43 c7 23 17 42 21 42 4 0 0 -22 -9 -50 -9 -27 -20 -50 -24
-50 -9 0 -24 33 -34 78 -9 38 3 23 20 -24z m1094 -6 c2 -47 2 -48 -28 -48 -29
0 -30 1 -30 51 0 49 1 50 28 47 25 -3 27 -7 30 -50z m39 2 c-2 -65 -21 -65
-25 0 -2 38 1 50 12 50 10 0 14 -13 13 -50z m183 30 c0 -23 10 -26 28 -8 7 7
12 8 12 2 0 -5 -5 -15 -12 -22 -9 -9 -7 -16 7 -32 14 -16 15 -20 4 -20 -8 0
-20 5 -27 12 -9 9 -12 9 -12 0 0 -7 -4 -12 -10 -12 -5 0 -10 23 -10 50 0 28 5
50 10 50 6 0 10 -9 10 -20z m70 11 c0 -5 5 -22 11 -38 l11 -28 12 34 c7 19 18
37 24 39 8 2 6 -13 -6 -44 -11 -27 -24 -50 -29 -51 -6 -2 -18 14 -27 37 -19
47 -20 60 -6 60 6 0 10 -4 10 -9z m-11408 -18 c17 -15 19 -15 38 2 11 10 20
13 20 8 0 -6 -7 -16 -15 -23 -14 -12 -14 -15 0 -30 22 -24 18 -36 -5 -15 -19
17 -21 17 -40 0 -11 -10 -22 -16 -25 -13 -3 3 1 11 10 18 19 16 19 29 -2 52
-20 23 -6 24 19 1z m1151 -24 c-4 -21 -1 -34 8 -40 11 -7 11 -9 -2 -9 -12 0
-18 11 -21 34 -4 40 0 58 13 51 4 -3 6 -20 2 -36z m1497 26 c11 10 22 16 25
13 3 -3 -1 -11 -10 -18 -8 -7 -15 -18 -15 -25 0 -7 7 -18 15 -25 9 -7 13 -15
10 -18 -3 -3 -14 3 -25 13 -19 17 -21 17 -40 0 -11 -10 -20 -13 -20 -8 0 6 7
16 15 23 14 12 14 15 0 30 -22 24 -18 36 5 15 19 -17 21 -17 40 0z m903 -26
c-4 -21 -1 -34 8 -40 11 -7 11 -9 -3 -9 -15 0 -18 9 -18 46 0 26 4 43 10 39 5
-3 7 -20 3 -36z m1452 21 c17 -18 17 -21 1 -45 -9 -14 -25 -25 -36 -25 -22 0
-50 25 -50 45 0 19 28 45 49 45 10 0 26 -9 36 -20z m245 5 c7 8 17 15 23 15 5
0 3 -8 -6 -18 -21 -23 -21 -29 -2 -49 23 -22 9 -30 -15 -8 -19 17 -21 17 -40
0 -11 -10 -20 -13 -20 -8 0 6 7 16 15 23 14 12 14 15 0 30 -23 25 -18 34 9 17
21 -14 26 -14 36 -2z m1132 -30 c2 -26 -1 -44 -6 -42 -13 4 -18 87 -7 87 5 0
11 -20 13 -45z m589 17 c-15 -5 -14 -49 2 -55 7 -4 6 -6 -4 -6 -12 -1 -18 9
-21 33 -5 47 0 60 19 44 10 -8 11 -14 4 -16z m121 -17 c2 -27 -1 -44 -7 -42
-13 5 -19 87 -7 87 6 0 12 -20 14 -45z m728 30 c12 -14 15 -14 31 1 11 10 21
15 24 12 3 -3 -1 -11 -10 -18 -20 -16 -19 -30 2 -46 10 -7 15 -16 11 -20 -5
-4 -17 1 -28 11 -19 17 -21 17 -40 0 -11 -10 -20 -13 -20 -8 0 6 7 16 15 23
14 12 14 15 0 30 -8 9 -15 20 -15 23 0 12 17 7 30 -8z m2600 0 c12 -14 15 -14
31 1 11 10 22 14 26 11 4 -4 -2 -14 -13 -21 -18 -14 -18 -15 0 -35 11 -12 16
-24 13 -28 -4 -3 -16 2 -28 13 -20 18 -21 18 -35 0 -7 -11 -17 -17 -21 -13 -3
4 1 15 11 26 15 16 15 19 1 31 -8 7 -15 16 -15 21 0 14 16 11 30 -6z m1162
-25 c-2 -19 2 -37 10 -42 9 -7 8 -8 -7 -6 -20 3 -36 49 -27 76 9 26 27 4 24
-28z m1438 25 c12 -14 15 -14 31 1 24 22 37 10 16 -14 -15 -17 -15 -19 0 -35
9 -9 14 -20 10 -24 -4 -4 -15 1 -24 10 -16 15 -18 15 -35 0 -24 -21 -36 -8
-14 16 15 16 15 19 1 31 -8 7 -15 16 -15 21 0 14 16 11 30 -6z m1560 5 c0 -5
-25 -10 -56 -10 -34 0 -53 4 -49 10 3 6 28 10 56 10 27 0 49 -4 49 -10z
m-3352 -9 c8 -5 12 -21 10 -37 -3 -25 -7 -29 -33 -29 -24 0 -31 5 -33 23 -6
39 25 63 56 43z m82 0 c0 -5 -9 -11 -21 -14 -25 -7 -22 -43 4 -41 9 1 17 -2
17 -7 0 -15 -37 -10 -50 6 -18 21 2 65 30 65 11 0 20 -4 20 -9z m224 -7 c20
-19 20 -38 2 -54 -23 -19 -61 -8 -64 18 -7 44 32 67 62 36z m131 -9 c0 -13 -7
-20 -20 -20 -11 0 -18 -5 -15 -10 3 -6 13 -10 23 -9 9 0 17 -3 17 -8 0 -15
-58 -8 -64 8 -9 24 -8 31 10 49 21 21 49 15 49 -10z m-13826 1 c10 -12 8 -17
-8 -26 -19 -9 -21 -8 -21 15 0 28 12 32 29 11z m198 -33 c-3 -10 -5 -2 -5 17
0 19 2 27 5 18 2 -10 2 -26 0 -35z m355 17 c-4 -25 -1 -30 17 -30 16 0 21 6
21 24 0 13 -5 27 -10 29 -6 3 -5 4 2 3 7 -2 13 -16 13 -32 0 -24 -4 -29 -24
-29 -32 0 -49 28 -32 49 18 21 18 21 13 -14z m98 -25 c8 0 18 13 21 30 6 29 7
28 8 -8 1 -36 -1 -38 -26 -35 -24 3 -28 8 -30 38 -1 34 -1 34 5 5 4 -17 14
-30 22 -30z m158 -3 c9 2 20 17 23 33 6 29 7 28 8 -8 1 -36 -1 -38 -26 -35
-24 2 -28 8 -30 36 l-3 32 6 -31 c4 -21 10 -29 22 -27z m112 48 c0 -5 -2 -10
-4 -10 -3 0 -8 5 -11 10 -3 6 -1 10 4 10 6 0 11 -4 11 -10z m45 0 c-3 -5 1
-10 10 -10 10 0 13 5 9 12 -4 7 -3 8 4 4 18 -11 14 -26 -7 -26 -30 0 -35 -19
-9 -29 l23 -10 -22 0 c-16 -1 -24 6 -29 23 -6 27 1 46 17 46 6 0 7 -4 4 -10z
m2305 -25 c0 -31 -3 -35 -25 -35 -30 0 -33 23 -5 43 11 8 17 17 13 20 -3 4 -1
7 5 7 7 0 12 -15 12 -35z m88 26 c-2 -5 6 -16 16 -24 23 -17 13 -37 -17 -36
-17 1 -18 2 -4 6 21 5 22 22 2 29 -17 7 -21 34 -5 34 6 0 9 -4 8 -9z m157 -18
c0 -19 6 -29 19 -31 16 -3 18 1 14 27 -3 19 -1 28 5 22 16 -16 3 -56 -20 -59
-12 -2 -24 -11 -26 -20 -3 -9 -5 7 -6 36 0 28 3 52 7 52 4 0 8 -12 7 -27z m84
6 c-13 -25 1 -45 26 -35 13 5 15 13 10 34 -5 21 -4 24 6 15 18 -18 3 -61 -24
-65 -12 -2 -21 -9 -19 -16 1 -6 -2 -12 -8 -12 -5 0 -10 23 -10 50 0 38 4 50
15 50 13 0 14 -4 4 -21z m1552 -21 c-11 -11 -13 -10 -8 5 4 9 2 17 -3 17 -6 0
-10 5 -10 12 0 8 6 6 17 -5 14 -14 15 -19 4 -29z m409 32 c-12 -8 -10 -10 8
-10 13 0 20 4 17 10 -3 6 -1 10 4 10 6 0 11 -7 11 -15 0 -8 -9 -15 -19 -15
-30 0 -35 -19 -9 -30 l23 -10 -25 3 c-35 3 -43 67 -8 67 9 0 8 -3 -2 -10z m75
0 c-3 -5 1 -10 10 -10 9 0 13 5 10 10 -3 6 -2 10 3 10 6 0 12 -7 16 -15 4 -11
-1 -15 -19 -15 -32 0 -33 -27 -2 -33 19 -5 19 -5 -3 -4 -15 1 -26 9 -28 20 -4
20 4 47 13 47 4 0 3 -4 0 -10z m319 -6 c9 -23 7 -54 -3 -54 -5 0 -11 16 -13
35 -4 36 5 47 16 19z m36 -10 c0 -21 18 -17 25 7 4 11 9 18 12 16 9 -9 -36
-97 -49 -97 -10 0 -10 2 1 9 14 9 12 36 -4 75 -6 14 -5 17 3 12 7 -4 12 -14
12 -22z m73 14 c4 -10 8 -9 17 2 9 12 10 11 5 -8 -4 -13 -1 -29 5 -37 8 -9 8
-15 2 -15 -6 0 -12 6 -15 13 -3 9 -8 8 -23 -3 -18 -14 -18 -14 -5 3 12 15 12
23 3 38 -7 10 -8 19 -3 19 5 0 12 -6 14 -12z m301 -12 c15 26 16 27 10 4 -11
-41 -34 -80 -47 -80 -8 0 -8 3 2 9 13 8 13 19 -4 78 -3 10 1 5 9 -11 l13 -30
17 30z m47 -9 c0 -19 2 -19 11 6 12 33 23 35 33 5 l8 -23 4 23 c2 12 8 22 13
22 5 0 4 -15 -1 -32 -5 -18 -9 -34 -9 -35 0 -2 -4 -3 -9 -3 -5 0 -12 10 -15
23 l-7 22 -10 -24 c-11 -28 -24 -20 -35 23 -5 21 -4 27 5 22 6 -4 11 -17 12
-29z m161 2 c-4 -26 -2 -30 14 -27 13 2 19 12 19 31 -1 15 3 23 8 18 17 -17 3
-56 -20 -59 -13 -2 -23 -10 -23 -18 0 -8 -3 -14 -7 -14 -5 0 -8 23 -9 50 0 31
4 50 11 50 7 0 10 -12 7 -31z m1578 16 c-15 -18 -6 -45 15 -45 22 0 30 27 14
47 -12 14 -12 16 1 11 20 -6 19 -48 -1 -61 -24 -15 -49 -1 -49 26 0 25 7 37
23 37 5 0 4 -7 -3 -15z m81 -3 c-12 -22 -3 -38 24 -45 16 -5 15 -5 -4 -4 -32
3 -49 30 -32 51 18 21 24 20 12 -2z m217 -2 c-15 -24 2 -46 27 -36 12 4 16 14
12 32 -3 16 -1 22 5 16 5 -5 8 -20 6 -33 -2 -19 -9 -24 -33 -24 -21 0 -31 5
-33 18 -5 23 4 47 18 47 6 0 6 -7 -2 -20z m137 10 c-3 -5 1 -10 10 -10 9 0 13
5 10 10 -3 6 -2 10 3 10 6 0 12 -7 16 -15 4 -11 -1 -15 -19 -15 -32 0 -34 -30
-2 -31 19 -1 20 -2 3 -6 -27 -7 -49 23 -35 48 5 11 12 19 15 19 3 0 2 -4 -1
-10z m197 -25 c-2 -19 -8 -35 -13 -35 -5 0 -9 16 -9 35 0 22 5 35 13 35 9 0
12 -11 9 -35z m48 10 c-8 -22 -7 -27 13 -35 l22 -9 -22 0 c-24 -1 -42 37 -28
58 13 22 24 11 15 -14z m40 4 c0 -5 -8 -9 -17 -8 -11 0 -13 3 -5 6 6 2 9 10 6
15 -4 7 -2 8 4 4 7 -4 12 -11 12 -17z m37 14 c-4 -3 1 -15 10 -25 20 -22 6
-43 -23 -35 -16 4 -15 5 4 6 27 1 28 12 2 29 -21 13 -19 32 2 32 6 0 8 -3 5
-7z m58 -3 c-3 -6 4 -10 17 -10 19 0 20 2 8 11 -12 9 -12 10 -1 7 26 -7 24
-28 -3 -28 -32 0 -35 -27 -3 -33 19 -5 19 -5 -3 -4 -15 1 -26 9 -28 20 -4 20
4 47 13 47 4 0 3 -4 0 -10z m117 -25 c2 -19 0 -35 -4 -35 -4 0 -8 14 -8 30 0
20 -5 30 -15 30 -10 0 -15 -10 -15 -30 0 -16 -3 -30 -7 -30 -5 0 -8 16 -8 35
-1 31 2 35 26 35 23 0 27 -5 31 -35z m126 -4 c2 -27 -1 -31 -22 -31 -36 0 -42
19 -15 45 29 27 34 25 37 -14z m79 -13 c-2 -13 -4 -5 -4 17 -1 22 1 32 4 23 2
-10 2 -28 0 -40z m45 43 c-18 -11 -11 -45 9 -49 21 -4 33 26 18 44 -8 9 -8 14
-1 14 17 0 25 -40 11 -56 -16 -20 -53 -14 -57 9 -5 25 5 47 20 47 10 0 10 -2
0 -9z m126 -28 c2 -19 -1 -33 -7 -33 -6 0 -11 14 -11 30 0 42 -27 40 -33 -2
-4 -32 -4 -32 -5 5 -2 36 0 38 26 35 22 -2 28 -8 30 -35z m1396 21 c9 -23 7
-54 -3 -54 -5 0 -11 16 -13 35 -4 36 5 47 16 19z m36 -19 c0 -19 -2 -35 -4
-35 -2 0 -6 16 -8 35 -2 19 0 35 4 35 4 0 8 -16 8 -35z m33 3 c-8 -46 -13 -48
-13 -5 0 21 4 37 10 37 5 0 7 -14 3 -32z m44 -9 c1 -24 0 -26 -4 -9 -3 14 -10
31 -16 39 -10 11 -9 13 3 9 9 -3 16 -18 17 -39z m73 6 c0 -31 -3 -35 -25 -35
-31 0 -35 35 -5 45 11 4 18 11 15 16 -4 5 -1 9 4 9 6 0 11 -16 11 -35z m40 4
c0 -10 5 -19 10 -19 6 0 10 -4 10 -10 0 -22 -19 -8 -29 21 -13 39 -14 42 -1
34 6 -3 10 -15 10 -26z m31 4 c-8 -15 -10 -15 -11 -2 0 17 10 32 18 25 2 -3
-1 -13 -7 -23z m157 -19 c-3 -27 -4 -26 -9 8 -3 22 -1 34 4 29 5 -5 7 -21 5
-37z m75 19 c7 -35 2 -43 -29 -43 -29 0 -32 23 -4 43 11 8 17 17 13 20 -3 4
-2 7 4 7 6 0 13 -12 16 -27z m39 -8 c-2 -19 -8 -35 -13 -35 -5 0 -9 16 -9 35
0 22 5 35 13 35 9 0 12 -11 9 -35z m50 0 c-2 -19 -6 -35 -8 -35 -2 0 -4 16 -4
35 0 19 4 35 8 35 4 0 6 -16 4 -35z m40 0 c-2 -19 -5 -35 -7 -35 -2 0 -5 16
-7 35 -2 21 0 35 7 35 7 0 9 -14 7 -35z m46 -3 c2 -20 -1 -32 -9 -32 -6 0 -9
8 -6 19 2 10 0 26 -5 36 -8 13 -7 16 3 13 8 -3 15 -19 17 -36z m72 3 c0 -31
-3 -35 -25 -35 -31 0 -35 35 -5 45 11 4 18 11 15 16 -4 5 -1 9 4 9 6 0 11 -16
11 -35z m362 5 c-4 -26 -1 -30 18 -30 19 0 22 4 18 30 -4 28 -3 30 11 15 20
-20 3 -50 -29 -50 -31 0 -48 28 -31 49 18 21 18 21 13 -14z m90 18 c-19 -19
-14 -38 11 -48 l22 -9 -22 0 c-12 -1 -25 4 -28 10 -10 15 3 59 17 59 9 0 9 -3
0 -12z m210 -13 c-3 -19 1 -27 19 -35 l24 -10 -25 3 c-25 2 -37 25 -26 53 9
22 14 16 8 -11z m-12702 8 c0 -4 -10 -17 -22 -30 l-21 -23 62 0 c39 0 60 -4
56 -10 -3 -5 -29 -10 -57 -10 -49 0 -50 -1 -35 -18 35 -39 15 -44 -23 -7 l-40
39 32 33 c30 31 48 41 48 26z m6278 -10 c-10 -2 -28 -2 -40 0 -13 2 -5 4 17 4
22 1 32 -1 23 -4z m699 1 c-3 -3 -12 -4 -19 -1 -8 3 -5 6 6 6 11 1 17 -2 13
-5z m3020 0 c-3 -3 -12 -4 -19 -1 -8 3 -5 6 6 6 11 1 17 -2 13 -5z m8103 -40
c0 -26 -6 -51 -14 -60 -8 -8 -34 -14 -60 -14 l-46 0 0 45 c0 60 14 74 73 75
l47 0 0 -46z m543 22 l32 29 -29 -32 -30 -33 30 -32 29 -33 -32 29 -33 30 -32
-30 -33 -29 29 33 30 32 -30 33 -29 32 33 -29 32 -30 33 30z m-12908 -6 c3 -5
1 -10 -4 -10 -6 0 -11 5 -11 10 0 6 2 10 4 10 3 0 8 -4 11 -10z m1021 -17 c-7
-7 -26 7 -26 19 0 6 6 6 15 -2 9 -7 13 -15 11 -17z m-6091 -13 c3 -5 1 -10 -4
-10 -6 0 -11 5 -11 10 0 6 2 10 4 10 3 0 8 -4 11 -10z m16838 3 c-18 -2 -48
-2 -65 0 -18 2 -4 4 32 4 36 0 50 -2 33 -4z m-11815 -10 c-10 -2 -28 -2 -40 0
-13 2 -5 4 17 4 22 1 32 -1 23 -4z m12249 -248 c32 -21 63 -74 63 -107 0 -23
-4 -28 -25 -28 -20 0 -25 -5 -24 -22 1 -17 2 -19 6 -5 5 18 18 23 27 8 10 -16
-34 -61 -61 -61 -25 0 -25 1 -9 24 10 15 12 27 6 31 -6 3 -10 14 -9 23 0 14 2
13 9 -3 10 -22 13 -13 10 25 -3 38 -15 47 -65 48 -42 0 -45 -2 -53 -31 -7 -28
-12 -32 -43 -32 -27 0 -35 4 -37 22 -2 14 4 26 17 33 13 6 21 21 21 35 0 18
10 30 38 45 42 23 89 21 129 -5z m-15873 -77 c14 -41 0 -77 -40 -95 -32 -16
-38 -16 -62 -2 -55 31 -55 110 1 134 41 17 88 0 101 -37z m14589 -8 c4 0 17 0
29 0 l22 0 -23 -16 c-19 -14 -22 -23 -18 -51 l6 -35 -25 16 c-21 15 -27 15
-52 2 l-28 -14 4 33 c3 25 -1 36 -17 47 -21 15 -21 15 9 21 19 4 34 16 42 32
l12 26 15 -30 c9 -16 19 -30 24 -31z m833 45 c4 -8 15 -15 25 -15 12 0 19 -7
19 -20 0 -10 10 -25 22 -31 l22 -12 -22 -17 c-12 -10 -22 -25 -22 -34 0 -22
-36 -20 -49 2 -10 16 -12 16 -25 0 -19 -25 -56 -24 -56 2 0 11 7 23 15 26 8 4
15 12 15 19 0 7 -7 15 -15 19 -23 9 -19 46 5 46 11 0 23 7 26 15 4 8 13 15 20
15 8 0 17 -7 20 -15z m-17116 -2 c0 -4 -10 -17 -22 -30 l-21 -23 56 0 c31 0
57 -4 57 -10 0 -5 -25 -10 -55 -10 -30 0 -55 -2 -55 -5 0 -3 9 -15 20 -27 11
-12 20 -26 20 -30 0 -12 -80 55 -80 67 0 5 14 24 32 42 30 31 48 41 48 26z
m413 -23 c15 -16 23 -30 19 -30 -5 0 -18 14 -30 30 -13 17 -21 30 -19 30 2 0
16 -13 30 -30z m392 20 c5 -8 11 -7 21 1 12 9 14 6 14 -20 0 -27 -4 -31 -25
-31 -19 0 -25 5 -23 18 2 13 -4 17 -32 17 -27 0 -37 -6 -49 -26 -13 -24 -13
-29 2 -53 22 -33 62 -34 94 -4 19 18 23 19 23 5 0 -41 -81 -61 -119 -29 -56
46 -24 132 49 132 21 0 42 -5 45 -10z m378 -22 c33 -31 35 -36 29 -73 l-7 -40
-60 0 -59 0 -8 39 c-8 36 -6 42 24 73 17 18 35 33 38 33 4 0 23 -15 43 -32z
m667 -33 c0 -37 -4 -65 -10 -65 -6 0 -10 28 -10 65 0 37 4 65 10 65 6 0 10
-28 10 -65z m300 0 c0 -37 -4 -65 -10 -65 -6 0 -10 28 -10 65 0 37 4 65 10 65
6 0 10 -28 10 -65z m40 40 c0 -20 5 -25 24 -25 25 0 36 -16 36 -56 0 -36 -18
-29 -22 9 -2 20 -8 32 -18 32 -10 0 -16 -12 -18 -32 -6 -59 -22 -35 -22 32 0
37 4 65 10 65 6 0 10 -11 10 -25z m14566 2 c-12 -10 -16 -20 -11 -23 52 -23
60 -31 63 -62 3 -27 0 -32 -18 -32 -11 0 -29 -5 -39 -12 -15 -9 -25 -9 -46 0
-14 7 -35 12 -45 12 -16 0 -20 7 -20 31 0 25 6 32 35 45 40 16 43 27 16 46
-16 11 -12 13 33 13 51 0 52 0 32 -18z m1134 8 c0 -8 -7 -15 -15 -15 -8 0 -15
7 -15 15 0 8 7 15 15 15 8 0 15 -7 15 -15z m-15317 -2 c-7 -2 -19 -2 -25 0 -7
3 -2 5 12 5 14 0 19 -2 13 -5z m101 -2 c4 -5 -3 -7 -14 -4 -23 6 -26 13 -6 13
8 0 17 -4 20 -9z m95 -5 c7 -8 11 -30 8 -48 l-4 -33 -1 37 c-1 23 -8 41 -19
47 -10 6 -13 11 -7 11 6 0 17 -6 23 -14z m-309 -11 c0 -8 6 -15 13 -16 10 0
10 -2 0 -6 -7 -2 -13 -17 -13 -33 0 -16 6 -31 13 -33 6 -3 2 -6 -9 -6 -18 -1
-23 6 -26 37 -1 21 -2 45 0 55 4 21 22 23 22 2z m227 -27 c-3 -8 -6 -5 -6 6
-1 11 2 17 5 13 3 -3 4 -12 1 -19z m743 0 c0 -18 -2 -20 -9 -8 -6 8 -7 18 -5
22 9 14 14 9 14 -14z m-1485 -28 c0 -32 -3 -35 -32 -38 -38 -4 -56 20 -42 56
7 19 15 23 41 20 30 -3 33 -6 33 -38z m65 31 c-18 -5 -25 -14 -25 -31 0 -17 7
-26 25 -31 l25 -7 -25 -1 c-29 -1 -50 15 -50 39 0 24 21 40 50 39 l25 -1 -25
-7z m98 -33 c3 -37 3 -38 -32 -38 -29 0 -36 4 -36 20 0 11 4 20 8 20 5 0 17 7
28 16 19 15 18 15 -3 11 -13 -3 -23 -1 -23 5 0 5 12 8 28 6 23 -3 27 -8 30
-40z m232 27 c27 -33 -8 -73 -53 -61 -47 11 -31 76 19 76 12 0 27 -7 34 -15z
m63 8 c-28 -5 -29 -19 -3 -33 32 -17 25 -40 -12 -39 -24 1 -27 3 -10 6 27 5
28 10 0 32 -26 22 -16 41 20 40 24 -2 24 -2 5 -6z m855 -24 c-3 -8 -7 -3 -11
10 -4 17 -3 21 5 13 5 -5 8 -16 6 -23z m227 21 c3 -5 1 -10 -4 -10 -6 0 -11 5
-11 10 0 6 2 10 4 10 3 0 8 -4 11 -10z m50 -8 c-3 -3 -11 0 -18 7 -9 10 -8 11
6 5 10 -3 15 -9 12 -12z m13970 -12 c0 -7 -6 -15 -12 -17 -8 -3 -13 4 -13 17
0 13 5 20 13 18 6 -3 12 -11 12 -18z m385 5 c0 -8 -7 -15 -15 -15 -8 0 -15 7
-15 15 0 8 7 15 15 15 8 0 15 -7 15 -15z m-17450 1 c0 -3 -4 -8 -10 -11 -5 -3
-10 -1 -10 4 0 6 5 11 10 11 6 0 10 -2 10 -4z m2553 -43 c-3 -7 -9 -10 -14 -7
-14 8 -11 21 5 21 8 0 12 -6 9 -14z m-2602 -16 c-10 -9 -11 -8 -5 6 3 10 9 15
12 12 3 -3 0 -11 -7 -18z m17044 -8 c7 -22 -2 -39 -13 -24 -4 6 -13 10 -21 10
-8 0 -16 6 -19 14 -3 8 0 11 7 7 6 -4 11 -2 11 3 0 20 29 11 35 -10z m455 6
c0 -8 -7 -15 -15 -15 -8 0 -15 7 -15 15 0 8 7 15 15 15 8 0 15 -7 15 -15z
m-1008 -1297 c2 -763 5 -1031 8 -743 l5 450 613 3 612 2 0 -3595 c0 -2869 3
-3595 13 -3595 8 0 9 -3 1 -8 -6 -4 -14 -14 -17 -22 -4 -12 -6 -11 -6 3 -1 11
-9 17 -26 17 -30 0 -31 7 -5 40 28 36 25 40 -24 40 -40 0 -43 -2 -39 -24 3
-16 -3 -29 -21 -44 -33 -25 -33 -30 2 -35 22 -3 20 -4 -10 -6 -45 -1 -50 15
-12 48 29 25 27 47 -5 44 -13 -2 -20 1 -16 7 3 6 0 10 -7 10 -9 0 -13 -15 -13
-46 0 -50 -18 -73 -50 -61 -14 6 -16 17 -13 57 l3 50 -35 0 c-26 0 -31 -3 -22
-12 7 -7 12 -26 12 -43 0 -51 -46 -76 -70 -37 -10 16 -10 16 -20 0 -30 -49
-84 6 -63 63 l11 29 -8760 0 -8760 0 2 -37 c1 -21 2 -46 1 -55 -1 -22 -21 -24
-21 -3 0 9 -9 15 -25 15 -30 0 -31 7 -5 40 26 34 25 40 -10 40 -22 0 -28 -4
-24 -15 4 -8 1 -22 -6 -30 -9 -11 -10 -15 -1 -15 7 0 11 -10 9 -22 -3 -26 -43
-37 -62 -18 -8 9 -4 10 17 5 21 -6 27 -4 27 10 0 9 -10 19 -22 23 l-22 5 23 9
c25 9 23 34 -3 32 -9 -1 -16 2 -16 7 0 5 -13 9 -28 9 -26 0 -28 -3 -24 -30 2
-16 1 -41 -2 -56 -5 -20 -12 -25 -34 -22 -26 3 -27 6 -27 56 1 30 -4 52 -10
52 -5 0 -10 -21 -10 -46 0 -50 -18 -73 -50 -61 -14 6 -16 17 -13 57 l3 50 -34
0 c-28 0 -31 -2 -22 -14 17 -20 10 -77 -10 -89 -9 -6 -23 -7 -32 -4 -14 5 -15
24 -10 157 l6 150 -51 0 c-40 0 -52 4 -52 15 0 11 12 15 50 15 l50 0 0 3445 0
3445 4538 0 c2497 0 4573 -3 4615 -6 69 -6 74 -8 60 -23 -12 -12 -17 -13 -21
-3 -5 15 -52 16 -52 1 0 -5 -4 -7 -10 -4 -5 3 -10 1 -10 -5 0 -6 -8 -14 -17
-17 -26 -10 -43 -29 -43 -48 0 -9 -9 -34 -19 -56 -22 -44 -19 -78 5 -58 8 7
11 21 8 34 -3 13 3 38 16 61 31 55 40 64 61 64 11 0 19 4 19 9 0 5 19 6 43 4
31 -4 46 -1 56 11 9 11 10 16 2 16 -6 0 -11 5 -11 10 0 7 608 10 1823 10
l1822 0 3 740 2 740 2130 0 2130 0 2 -1192z m-15593 861 c83 -19 153 -60 226
-133 57 -58 75 -85 100 -146 25 -65 29 -88 30 -175 0 -87 -4 -109 -28 -170
-49 -119 -122 -200 -231 -251 -190 -90 -407 -50 -546 103 -65 71 -94 129 -115
229 -49 237 99 474 336 538 64 17 166 20 228 5z m15925 -181 c24 -34 24 -503
-1 -530 -14 -16 -33 -18 -165 -18 l-148 0 1 128 c0 70 3 120 6 112 3 -8 11
-18 17 -22 17 -12 74 -9 81 3 11 16 -3 23 -19 10 -20 -17 -56 -4 -56 20 0 16
7 19 46 19 42 0 45 1 38 23 -9 29 -22 37 -61 37 -20 0 -36 -7 -42 -17 -7 -13
-10 21 -11 120 l0 137 149 0 c144 0 151 -1 165 -22z m-14861 -20 c15 -11 18
-39 24 -183 7 -200 3 -215 -57 -215 -67 0 -69 7 -67 207 l2 177 25 13 c32 16
52 16 73 1z m1731 6 c9 -4 19 -23 22 -45 5 -31 11 -39 28 -39 56 -1 62 -49 8
-65 l-32 -9 0 -111 c0 -73 -4 -115 -12 -123 -16 -16 -83 -15 -96 1 -7 7 -12
85 -13 196 -2 198 -2 201 53 201 14 0 34 -3 42 -6z m-1945 -33 c11 -7 28 -22
37 -35 14 -22 13 -28 -2 -63 -10 -21 -19 -41 -21 -44 -2 -3 8 -11 21 -17 35
-16 58 -55 58 -99 0 -71 -76 -113 -203 -113 -98 0 -98 1 -106 166 -3 77 -3
153 1 167 14 58 136 80 215 38z m1351 4 c6 -7 16 -52 22 -101 13 -96 12 -97
33 28 7 45 32 62 70 48 14 -5 28 -16 31 -24 7 -18 -40 -242 -61 -292 -12 -30
-18 -34 -53 -34 -21 0 -45 6 -54 13 -24 18 -105 334 -91 355 19 30 80 34 103
7z m-887 -111 c54 -27 76 -54 88 -109 21 -95 -27 -147 -139 -153 -81 -3 -110
10 -136 61 -58 118 73 259 187 201z m334 -4 c38 -23 67 -64 60 -85 -14 -34
-101 -31 -112 5 -10 31 -32 24 -45 -15 -23 -69 12 -128 52 -85 12 12 32 20 53
20 74 0 85 -24 29 -67 -29 -21 -50 -28 -100 -31 -56 -4 -69 -1 -103 21 -29 19
-41 36 -51 71 -21 75 4 131 73 165 53 26 103 27 144 1z m377 14 c28 -11 18
-35 -35 -83 l-52 -48 61 -42 c64 -46 75 -60 62 -81 -15 -25 -73 -16 -123 18
-47 33 -47 33 -47 9 0 -32 -18 -47 -55 -47 -45 0 -60 23 -75 115 -7 44 -15 92
-17 107 -4 22 0 30 21 40 33 14 74 2 90 -27 6 -11 12 -22 13 -24 1 -2 21 13
43 33 39 35 75 45 114 30z m570 -17 c53 -30 78 -67 83 -124 6 -57 -19 -96 -73
-119 -49 -21 -133 -18 -171 6 -61 37 -67 142 -12 205 48 55 113 67 173 32z
m556 4 c29 -15 36 -25 38 -56 5 -56 -52 -105 -123 -105 -16 0 -25 -6 -25 -15
0 -25 22 -27 65 -5 46 23 65 25 89 7 53 -39 -39 -93 -144 -85 -54 4 -65 9 -97
40 -31 31 -37 45 -41 91 -5 66 16 113 61 132 47 21 135 19 177 -4z m12548 -93
c3 -14 -3 -18 -27 -18 -29 0 -41 17 -24 34 13 13 48 1 51 -16z m-17287 -7865
c14 -38 -2 -78 -31 -78 -16 0 -26 8 -32 26 -12 36 6 79 32 79 13 0 24 -10 31
-27z m18507 4 c2 -11 -8 -32 -23 -47 l-27 -28 28 -5 c25 -3 23 -4 -9 -6 -34
-1 -37 1 -28 17 5 10 17 24 25 32 9 7 16 21 16 32 0 15 -5 19 -20 15 -11 -3
-20 -1 -20 5 0 18 55 4 58 -15z m-18388 -17 c0 -5 -4 -10 -10 -10 -5 0 -10 5
-10 10 0 6 5 10 10 10 6 0 10 -4 10 -10z m190 0 c0 -5 -4 -10 -10 -10 -5 0
-10 5 -10 10 0 6 5 10 10 10 6 0 10 -4 10 -10z m17850 0 c0 -5 -4 -10 -10 -10
-5 0 -10 5 -10 10 0 6 5 10 10 10 6 0 10 -4 10 -10z m190 0 c0 -5 -4 -10 -10
-10 -5 0 -10 5 -10 10 0 6 5 10 10 10 6 0 10 -4 10 -10z m-18230 -60 c0 -5 -4
-10 -10 -10 -5 0 -10 5 -10 10 0 6 5 10 10 10 6 0 10 -4 10 -10z m190 0 c0 -5
-4 -10 -10 -10 -5 0 -10 5 -10 10 0 6 5 10 10 10 6 0 10 -4 10 -10z m17850 0
c0 -5 -4 -10 -10 -10 -5 0 -10 5 -10 10 0 6 5 10 10 10 6 0 10 -4 10 -10z
m190 0 c0 -5 -4 -10 -10 -10 -5 0 -10 5 -10 10 0 6 5 10 10 10 6 0 10 -4 10
-10z m-1908 -285 c11 -25 7 -31 -78 -116 -60 -60 -100 -93 -124 -99 -50 -14
-49 -14 -38 28 7 26 35 62 96 125 94 95 123 107 144 62z m-16082 -51 c14 -42
5 -101 -20 -134 -27 -36 -33 -20 -9 26 22 42 19 91 -7 131 -21 33 -18 49 6 28
10 -9 24 -33 30 -51z m640 -24 l0 -90 -83 0 c-76 0 -86 -2 -107 -25 -13 -14
-27 -25 -32 -25 -4 0 -8 11 -8 25 0 16 -6 25 -15 25 -12 0 -15 17 -15 90 l0
90 130 0 130 0 0 -90z m7675 66 c14 -9 32 -30 40 -46 14 -27 14 -30 0 -30 -8
0 -15 5 -15 10 0 6 -11 22 -25 35 -35 36 -112 35 -145 0 -19 -21 -21 -25 -7
-25 9 0 17 -4 17 -10 0 -5 -16 -10 -36 -10 -34 0 -35 1 -32 32 2 23 8 32 23
33 11 1 34 9 50 18 35 20 94 17 130 -7z m1265 -6 c16 -12 30 -16 30 -10 0 6 5
8 10 5 6 -3 10 -19 10 -36 0 -27 -3 -29 -35 -29 -36 0 -49 16 -18 22 15 3 14
6 -7 26 -34 32 -107 31 -144 -3 -14 -13 -26 -29 -26 -35 0 -5 -7 -10 -16 -10
-14 0 -14 4 3 31 39 68 127 86 193 39z m7750 -15 c0 -45 -16 -63 -22 -26 -2
16 -18 6 -83 -54 -73 -68 -78 -75 -57 -81 36 -10 25 -24 -18 -24 l-40 0 0 45
c0 48 17 62 22 19 3 -25 8 -21 76 55 45 50 68 81 58 81 -9 0 -16 7 -16 15 0
11 11 15 40 15 l40 0 0 -45z m-17480 -70 c0 -52 -4 -95 -8 -95 -5 0 -19 11
-32 25 -13 14 -32 25 -42 25 -15 0 -18 8 -18 50 0 46 2 50 23 50 13 0 32 9 42
20 10 11 22 20 27 20 4 0 8 -43 8 -95z m8990 0 c0 -57 -4 -95 -10 -95 -6 0
-10 38 -10 95 0 57 4 95 10 95 6 0 10 -38 10 -95z m80 0 c0 -57 -4 -95 -10
-95 -6 0 -10 38 -10 95 0 57 4 95 10 95 6 0 10 -38 10 -95z m7798 3 l3 -78
-131 0 -130 0 0 73 c0 41 3 77 7 81 4 3 61 5 127 4 l121 -3 3 -77z m-16770 47
c7 -14 12 -37 12 -50 0 -30 -20 -75 -33 -75 -5 0 -6 8 -2 18 16 36 16 71 1
101 -13 25 -14 31 -3 31 8 0 19 -11 25 -25z m-43 -48 c0 -52 -17 -51 -19 1 -2
26 2 41 8 39 6 -2 11 -20 11 -40z m17868 -2 c1 -5 -6 -11 -15 -13 -11 -2 -18
3 -18 13 0 17 30 18 33 0z m95 3 c-3 -7 -11 -13 -18 -13 -7 0 -15 6 -17 13 -3
7 4 12 17 12 13 0 20 -5 18 -12z m92 -3 c0 -8 -6 -15 -14 -15 -17 0 -28 14
-19 24 12 12 33 6 33 -9z m-9752 -57 c-1 -57 -2 -58 -5 -15 -3 36 -8 47 -21
47 -15 1 -15 2 2 15 11 8 21 15 23 15 2 0 2 -28 1 -62z m106 31 c17 -50 -10
-97 -48 -83 -20 8 -29 55 -16 88 13 36 51 33 64 -5z m1152 23 c16 -11 25 -83
12 -99 -12 -15 -58 -18 -58 -3 0 5 10 9 22 7 31 -3 37 30 6 36 l-23 4 23 8
c28 9 29 35 1 35 -11 0 -17 5 -14 10 7 12 16 12 31 2z m98 -8 c30 -30 13 -104
-24 -104 -37 0 -52 59 -24 98 18 26 27 27 48 6z"/>
<path d="M3305 10704 c-11 -11 -15 -30 -13 -63 l3 -46 47 -3 c39 -2 49 1 62
20 21 30 20 71 -2 91 -24 22 -76 22 -97 1z m85 -15 c0 -11 -5 -30 -11 -41 -10
-18 -9 -20 5 -15 18 7 19 6 10 -17 -9 -24 -71 -21 -84 3 -12 23 -13 42 -2 23
7 -9 13 -8 27 8 15 16 15 19 3 15 -10 -4 -17 1 -21 14 -6 26 0 31 40 31 27 0
33 -4 33 -21z"/>
<path d="M1070 10685 c0 -8 7 -15 15 -15 8 0 15 7 15 15 0 8 -7 15 -15 15 -8
0 -15 -7 -15 -15z"/>
<path d="M1070 10640 c0 -15 5 -20 18 -18 9 2 17 10 17 18 0 8 -8 16 -17 18
-13 2 -18 -3 -18 -18z"/>
<path d="M4180 10670 c-9 -16 -8 -20 5 -20 8 0 15 9 15 20 0 11 -2 20 -5 20
-2 0 -9 -9 -15 -20z"/>
<path d="M8782 10660 c-1 -28 4 -40 13 -40 18 0 28 17 18 33 -4 6 -6 20 -5 30
2 9 -3 17 -11 17 -10 0 -15 -12 -15 -40z"/>
<path d="M9447 10693 c-14 -13 -6 -33 13 -33 13 0 20 7 20 20 0 19 -20 27 -33
13z"/>
<path d="M11395 10677 c-8 -19 -2 -31 13 -26 5 2 6 13 2 24 -7 19 -8 19 -15 2z"/>
<path d="M12456 10673 c-11 -11 -6 -23 9 -23 8 0 15 4 15 9 0 13 -16 22 -24
14z"/>
<path d="M12590 10685 c0 -8 7 -15 15 -15 8 0 15 7 15 15 0 8 -7 15 -15 15 -8
0 -15 -7 -15 -15z"/>
<path d="M13986 10685 c4 -8 10 -15 15 -15 5 0 9 7 9 15 0 8 -7 15 -15 15 -9
0 -12 -6 -9 -15z"/>
<path d="M13982 10638 c6 -18 28 -21 28 -4 0 9 -7 16 -16 16 -9 0 -14 -5 -12
-12z"/>
<path d="M14098 10658 c-7 -19 2 -38 17 -38 15 0 28 27 19 41 -8 13 -31 11
-36 -3z"/>
<path d="M14400 10645 c0 -20 4 -26 18 -23 9 2 17 12 17 23 0 11 -8 21 -17 23
-14 3 -18 -3 -18 -23z"/>
<path d="M3987 10643 c-12 -11 -8 -23 8 -23 8 0 15 7 15 15 0 16 -12 20 -23 8z"/>
<path d="M9917 10643 c-12 -11 -8 -23 8 -23 8 0 15 7 15 15 0 16 -12 20 -23 8z"/>
<path d="M11757 10643 c-12 -11 -8 -23 8 -23 8 0 15 7 15 15 0 16 -12 20 -23
8z"/>
<path d="M12057 10643 c-12 -11 -8 -23 8 -23 8 0 15 7 15 15 0 16 -12 20 -23
8z"/>
<path d="M12307 10643 c-12 -11 -8 -23 8 -23 8 0 15 7 15 15 0 16 -12 20 -23
8z"/>
<path d="M18342 10643 c34 -4 37 -7 41 -41 l4 -37 1 43 2 42 -42 -2 -43 -1 37
-4z"/>
<path d="M18290 10590 l0 -40 40 0 40 0 0 40 0 40 -40 0 -40 0 0 -40z"/>
<path d="M18158 10345 c-8 -8 3 -54 15 -62 6 -4 8 4 5 20 -3 14 -2 25 1 24 3
-1 7 3 9 8 3 11 -21 19 -30 10z"/>
<path d="M18240 10290 c0 -5 5 -10 10 -10 6 0 10 5 10 10 0 6 -4 10 -10 10 -5
0 -10 -4 -10 -10z"/>
<path d="M2262 10284 c-40 -27 -18 -104 29 -104 29 0 59 31 59 59 0 46 -50 72
-88 45z m38 -14 c0 -5 -5 -10 -11 -10 -5 0 -7 5 -4 10 3 6 8 10 11 10 2 0 4
-4 4 -10z m3 -51 c-4 -13 -9 -17 -16 -10 -12 12 -1 45 12 37 5 -3 7 -15 4 -27z"/>
<path d="M16907 10266 c-4 -9 -13 -16 -21 -16 -11 0 -12 -5 -3 -24 7 -13 20
-23 32 -23 12 0 25 10 32 23 7 16 8 24 1 24 -6 0 -16 7 -23 16 -11 16 -12 16
-18 0z"/>
<path d="M1786 10258 c-9 -12 -16 -35 -16 -50 0 -26 2 -28 45 -28 45 0 45 0
45 34 0 25 -7 39 -22 50 -29 21 -34 20 -52 -6z"/>
<path d="M17355 10220 c-3 -5 1 -10 9 -10 9 0 16 5 16 10 0 6 -4 10 -9 10 -6
0 -13 -4 -16 -10z"/>
<path d="M17410 10220 c0 -5 5 -10 10 -10 6 0 10 5 10 10 0 6 -4 10 -10 10 -5
0 -10 -4 -10 -10z"/>
<path d="M17380 10180 c0 -5 7 -10 15 -10 8 0 15 5 15 10 0 6 -7 10 -15 10 -8
0 -15 -4 -15 -10z"/>
<path d="M2556 10235 c-8 -22 4 -45 24 -45 10 0 20 9 23 19 8 34 -34 58 -47
26z"/>
<path d="M2737 10213 c-12 -11 -8 -23 8 -23 8 0 15 7 15 15 0 16 -12 20 -23 8z"/>
<path d="M2954 10236 c-9 -24 4 -48 23 -44 12 2 18 12 18 28 0 29 -32 41 -41
16z"/>
<path d="M13841 9856 c-7 -9 -19 -16 -25 -16 -6 0 -33 -19 -60 -42 l-48 -43
22 -20 c12 -11 44 -25 71 -31 43 -10 51 -9 58 5 15 28 19 107 7 136 -10 25
-13 26 -25 11z"/>
<path d="M13498 9838 c-3 -48 3 -114 14 -135 10 -20 13 -20 42 -8 17 7 44 18
59 24 57 23 39 61 -58 122 -39 25 -55 24 -57 -3z"/>
<path d="M15994 9759 c-17 -9 -20 -19 -20 -68 1 -63 16 -91 50 -91 17 0 18 2
6 9 -8 6 -18 7 -22 5 -4 -3 -8 -1 -8 5 0 5 -3 17 -7 27 -4 12 -3 15 5 10 7 -4
12 -2 12 5 0 7 7 21 17 31 9 10 11 18 5 18 -6 0 -14 -5 -17 -10 -11 -18 -34 8
-28 30 6 22 51 27 84 10 22 -12 26 -57 5 -74 -7 -6 -16 -24 -20 -41 l-6 -30
19 23 c11 12 24 22 30 22 19 0 13 79 -7 100 -22 24 -70 33 -98 19z"/>
<path d="M17127 9690 l32 -34 26 24 c14 13 23 25 21 28 -2 2 -14 -6 -26 -18
l-22 -22 -31 28 -32 29 32 -35z"/>
<path d="M16708 9703 c7 -3 16 -2 19 1 4 3 -2 6 -13 5 -11 0 -14 -3 -6 -6z"/>
<path d="M16775 9700 c4 -6 11 -8 16 -5 14 9 11 15 -7 15 -8 0 -12 -5 -9 -10z"/>
<path d="M16850 9706 c0 -2 7 -7 16 -10 8 -3 12 -2 9 4 -6 10 -25 14 -25 6z"/>
<path d="M16241 9684 c0 -11 3 -14 6 -6 3 7 2 16 -1 19 -3 4 -6 -2 -5 -13z"/>
<path d="M16530 9682 c0 -12 5 -22 12 -22 6 0 21 -8 32 -17 12 -10 8 -2 -9 17
-16 19 -31 37 -32 39 -2 2 -3 -5 -3 -17z"/>
<path d="M16684 9666 c1 -10 9 -24 18 -30 14 -8 21 -6 35 9 16 17 17 18 1 6
-22 -16 -45 -9 -51 16 -4 16 -4 16 -3 -1z"/>
<path d="M16838 9673 c12 -2 30 -2 40 0 9 3 -1 5 -23 4 -22 0 -30 -2 -17 -4z"/>
<path d="M13618 9663 c6 -2 18 -2 25 0 6 3 1 5 -13 5 -14 0 -19 -2 -12 -5z"/>
<path d="M13725 9649 c-4 -6 -5 -13 -2 -16 7 -7 27 6 27 18 0 12 -17 12 -25
-2z"/>
<path d="M13620 9640 c19 -13 30 -13 30 0 0 6 -10 10 -22 10 -19 0 -20 -2 -8
-10z"/>
<path d="M16395 9640 c-16 -7 -17 -9 -3 -9 9 -1 20 4 23 9 7 11 7 11 -20 0z"/>
<path d="M16485 9640 c-16 -7 -17 -9 -3 -9 9 -1 20 4 23 9 7 11 7 11 -20 0z"/>
<path d="M16837 9638 c2 -5 10 -8 18 -8 8 0 16 3 18 8 3 4 -5 7 -18 7 -13 0
-21 -3 -18 -7z"/>
<path d="M13673 9572 c-15 -2 -23 -10 -23 -23 0 -15 7 -19 35 -19 28 0 35 4
35 19 0 21 -15 29 -47 23z"/>
<path d="M9667 8553 c-12 -12 -7 -20 19 -32 35 -16 50 -3 23 20 -24 20 -32 23
-42 12z"/>
<path d="M9744 8458 c16 -37 36 -49 36 -21 -1 22 -23 53 -38 53 -7 0 -7 -11 2
-32z"/>
<path d="M9447 8344 c-4 -12 -5 -29 -1 -38 7 -17 34 -22 34 -6 0 6 -4 10 -9
10 -5 0 -11 12 -13 28 -3 25 -4 25 -11 6z"/>
<path d="M9503 8263 c1 -13 7 -23 15 -23 7 0 20 -7 28 -15 18 -17 54 -20 54
-4 0 6 -8 8 -19 4 -14 -4 -23 0 -31 15 -6 11 -17 20 -25 20 -7 0 -15 6 -18 13
-3 6 -4 2 -4 -10z"/>
<path d="M9560 8240 c0 -5 5 -10 10 -10 6 0 10 5 10 10 0 6 -4 10 -10 10 -5 0
-10 -4 -10 -10z"/>
<path d="M14735 8210 c16 -16 46 -42 67 -56 21 -15 37 -33 34 -40 -3 -7 2 -15
9 -18 8 -3 12 -12 9 -21 -3 -8 -1 -15 4 -15 6 0 13 -9 17 -20 10 -31 67 -59
142 -70 39 -5 92 -19 118 -30 60 -26 46 -5 -28 42 -29 18 -54 35 -57 39 -3 3
-21 14 -40 24 -41 21 -82 52 -78 59 2 2 -1 8 -6 13 -5 5 -6 3 -2 -4 11 -20 -1
-16 -65 25 -33 21 -56 41 -52 46 4 4 1 4 -8 1 -9 -3 -29 7 -49 25 -43 39 -52
39 -15 0z"/>
<path d="M15370 7843 c0 -4 46 -28 102 -52 90 -39 222 -121 270 -167 19 -18
88 -28 88 -13 0 5 7 9 15 9 8 0 15 7 15 15 0 8 5 15 10 15 6 0 10 9 10 20 0
10 7 23 16 28 10 5 14 15 10 21 -12 18 -81 59 -113 67 -15 4 -39 12 -53 19
-35 18 -130 30 -130 17 0 -6 6 -12 13 -15 6 -2 1 -2 -13 0 -14 3 -61 11 -105
18 -44 7 -92 16 -107 20 -16 4 -28 3 -28 -2z"/>
<path d="M15049 7736 c19 -50 39 -81 70 -110 30 -29 31 -29 33 -8 0 12 1 28 2
35 1 6 -5 11 -11 10 -7 -2 -13 1 -13 6 0 10 -43 58 -73 80 -16 13 -17 12 -8
-13z"/>
<path d="M15284 7558 c3 -17 7 -33 9 -34 1 -1 36 -4 77 -5 62 -2 76 0 78 14 2
9 11 18 20 20 9 2 -5 7 -33 11 -27 4 -63 12 -79 17 -16 5 -40 9 -54 9 -22 0
-24 -3 -18 -32z"/>
<path d="M15040 7344 c-6 -14 -10 -27 -10 -28 0 -2 23 -17 51 -34 48 -30 52
-31 80 -17 25 13 27 18 17 34 -9 15 -106 71 -123 71 -3 0 -10 -12 -15 -26z"/>
<path d="M14640 6850 l0 -140 25 0 25 0 0 140 0 140 -25 0 -25 0 0 -140z"/>
<path d="M16520 6850 l0 -140 25 0 c23 0 25 4 25 40 0 22 2 40 5 40 3 0 21
-18 41 -40 27 -30 44 -40 67 -40 l31 0 -30 33 c-61 65 -60 63 -26 106 l31 39
-25 5 c-18 3 -31 -4 -54 -29 -16 -19 -32 -34 -35 -34 -3 0 -5 36 -5 80 0 79 0
80 -25 80 l-25 0 0 -140z"/>
<path d="M14050 6963 c0 -4 12 -63 26 -130 27 -122 27 -123 55 -123 24 0 31 7
55 60 15 33 30 60 34 60 4 0 19 -27 33 -61 24 -55 29 -60 54 -57 27 3 29 7 55
118 15 63 28 121 28 128 0 7 -12 12 -28 12 -27 0 -29 -3 -42 -67 -7 -38 -15
-74 -18 -80 -5 -15 -22 -18 -22 -4 0 4 -14 39 -31 76 l-31 69 -33 -75 c-18
-41 -36 -73 -41 -71 -5 1 -16 35 -24 75 -14 67 -17 72 -42 75 -16 2 -28 0 -28
-5z"/>
<path d="M15835 6840 l0 -130 73 0 c64 0 76 3 97 25 28 27 32 62 11 91 -10 13
-13 33 -9 60 5 36 2 43 -22 62 -22 17 -41 22 -89 22 l-61 0 0 -130z m115 65
c18 -21 -3 -44 -35 -37 -35 6 -36 52 -1 52 13 0 29 -7 36 -15z m23 -107 c9
-26 -6 -38 -44 -38 -35 0 -39 3 -39 25 0 22 4 25 39 25 23 0 41 -5 44 -12z"/>
<path d="M16740 6913 c0 -70 8 -103 25 -103 15 0 25 44 25 111 0 46 -2 49 -25
49 -24 0 -25 -3 -25 -57z"/>
<path d="M15198 6893 c-16 -4 -18 -17 -18 -94 0 -88 0 -89 25 -89 24 0 25 3
25 53 0 55 12 77 41 77 22 0 29 -20 29 -81 0 -46 2 -49 25 -49 23 0 25 3 25
48 0 55 18 86 46 80 16 -3 19 -13 22 -66 3 -58 4 -62 27 -62 24 0 25 3 25 68
0 83 -16 112 -64 112 -17 0 -37 -5 -44 -12 -9 -9 -17 -9 -36 2 -15 7 -39 10
-59 7 -19 -3 -39 -2 -43 2 -5 4 -17 6 -26 4z"/>
<path d="M16375 6891 c-74 -21 -97 -93 -49 -150 20 -25 34 -31 64 -31 36 0 90
30 90 50 0 15 -40 22 -55 10 -19 -16 -55 -9 -69 13 -22 35 35 75 69 47 15 -12
55 -5 55 10 0 15 -40 48 -63 52 -12 2 -31 2 -42 -1z"/>
<path d="M14429 6861 c-38 -39 -38 -79 0 -120 32 -34 78 -41 126 -19 40 18 24
33 -32 30 -36 -2 -53 1 -63 12 -11 14 -6 16 41 18 30 1 62 2 72 1 24 0 22 47
-4 81 -17 21 -29 26 -65 26 -37 0 -51 -6 -75 -29z m101 -26 c11 -13 6 -15 -35
-15 -41 0 -46 2 -35 15 7 8 23 15 35 15 12 0 28 -7 35 -15z"/>
<path d="M14759 6861 c-20 -20 -29 -39 -29 -61 0 -73 105 -119 158 -70 12 12
22 25 22 30 0 15 -40 22 -55 10 -35 -29 -93 21 -65 55 15 18 51 20 67 4 14
-14 53 -2 53 16 0 19 -52 45 -90 45 -21 0 -41 -9 -61 -29z"/>
<path d="M14974 6867 c-48 -42 -28 -138 31 -153 62 -15 135 28 135 81 0 78
-105 124 -166 72z m90 -33 c9 -4 16 -18 16 -34 0 -42 -60 -57 -80 -20 -21 40
17 72 64 54z"/>
<path d="M15539 6861 c-20 -20 -29 -39 -29 -61 0 -49 47 -90 102 -90 46 1 84
21 73 40 -4 6 -24 8 -54 4 -36 -5 -50 -2 -60 10 -12 14 -6 16 59 16 l73 0 -6
38 c-8 47 -38 72 -89 72 -30 0 -46 -7 -69 -29z m101 -26 c11 -13 6 -15 -35
-15 -41 0 -46 2 -35 15 7 8 23 15 35 15 12 0 28 -7 35 -15z"/>
<path d="M16097 6870 c-34 -27 -43 -70 -23 -109 22 -41 40 -49 119 -49 57 0
68 2 63 15 -3 8 -6 48 -6 88 l0 73 -64 1 c-49 0 -70 -4 -89 -19z m103 -50 c24
-45 -37 -82 -74 -44 -19 18 -19 20 -6 45 15 26 66 26 80 -1z"/>
<path d="M16740 6776 c-20 -26 -8 -61 22 -64 22 -3 29 2 34 22 11 44 -29 74
-56 42z"/>
<path d="M13984 5285 c0 -71 1 -99 3 -62 2 37 2 96 0 130 -2 34 -3 4 -3 -68z"/>
<path d="M13665 5289 c-10 -15 1 -23 20 -15 9 3 13 10 10 16 -8 13 -22 13 -30
-1z"/>
<path d="M13732 5284 c4 -21 22 -23 26 -1 2 10 -3 17 -13 17 -10 0 -15 -6 -13
-16z"/>
<path d="M13802 5284 c4 -21 22 -23 26 -1 2 10 -3 17 -13 17 -10 0 -15 -6 -13
-16z"/>
<path d="M13867 5294 c-13 -13 -7 -24 14 -24 11 0 19 5 17 12 -5 14 -22 21
-31 12z"/>
<path d="M13935 5290 c-8 -13 4 -32 16 -25 12 8 12 35 0 35 -6 0 -13 -4 -16
-10z"/>
<path d="M17550 4060 l0 -1180 -2130 0 c-1413 0 -2130 -3 -2130 -10 0 -7 718
-10 2135 -10 l2135 0 0 1190 c0 655 -2 1190 -5 1190 -3 0 -5 -531 -5 -1180z"/>
<path d="M14492 4975 c0 -16 2 -22 5 -12 2 9 2 23 0 30 -3 6 -5 -1 -5 -18z"/>
<path d="M14549 4926 c38 -38 41 -45 24 -48 -18 -3 -19 -5 -6 -33 11 -24 13
-25 9 -6 -3 15 1 29 10 36 14 10 11 17 -23 53 -22 23 -43 42 -48 42 -5 0 10
-20 34 -44z"/>
<path d="M14515 4859 c-4 -6 -13 -8 -21 -5 -8 3 -14 1 -14 -4 0 -17 18 -20 31
-4 11 14 15 13 31 -8 l19 -23 -12 28 c-13 29 -24 34 -34 16z"/>
<path d="M18400 1466 c0 -2 6 -9 14 -15 10 -9 15 -8 20 4 4 10 -1 15 -14 15
-11 0 -20 -2 -20 -4z"/>
<path d="M407 1438 c-8 -30 2 -70 17 -65 14 5 14 79 0 84 -6 2 -14 -6 -17 -19z"/>
<path d="M525 1448 c-9 -22 -2 -68 10 -71 14 -3 19 63 6 76 -7 7 -12 5 -16 -5z"/>
<path d="M605 1448 c-9 -22 -2 -68 10 -71 14 -3 19 63 6 76 -7 7 -12 5 -16 -5z"/>
<path d="M18364 1436 c-7 -28 3 -66 16 -66 13 0 23 45 15 69 -9 28 -23 26 -31
-3z"/>
<path d="M18447 1438 c-8 -30 2 -70 17 -65 14 5 14 79 0 84 -6 2 -14 -6 -17
-19z"/>
<path d="M18565 1448 c-9 -22 -2 -68 10 -71 14 -3 19 63 6 76 -7 7 -12 5 -16
-5z"/>
<path d="M802 1420 c-10 -17 -10 -20 3 -20 8 0 15 9 15 20 0 11 -1 20 -3 20
-1 0 -8 -9 -15 -20z"/>
<path d="M18762 1420 c-10 -17 -10 -20 3 -20 8 0 15 9 15 20 0 11 -1 20 -3 20
-1 0 -8 -9 -15 -20z"/>
<path d="M1720 9608 c-83 -32 -169 -123 -198 -211 -44 -135 -15 -265 82 -362
80 -79 131 -99 251 -99 88 0 106 3 150 26 73 38 133 100 166 174 25 54 29 76
29 147 0 77 -3 91 -36 155 -39 80 -88 126 -174 166 -72 34 -188 35 -270 4z
m256 -19 c74 -28 136 -85 174 -162 26 -53 30 -71 30 -145 0 -72 -4 -93 -27
-141 -82 -168 -270 -238 -436 -163 -195 89 -259 341 -128 508 87 112 249 154
387 103z"/>
<path d="M1850 9375 l-5 -130 -100 -6 c-65 -3 -19 -5 130 -6 228 0 268 4 85 9
l-95 3 -5 130 -6 130 -4 -130z"/>
<path d="M1690 9403 c0 -10 -7 -26 -14 -35 -11 -15 -10 -25 8 -63 24 -51 33
-55 46 -21 5 13 19 31 31 39 20 15 22 49 2 46 -21 -3 -31 3 -41 26 -13 29 -32
33 -32 8z"/>
<path d="M1795 9369 c-4 -6 -5 -13 -2 -16 7 -7 27 6 27 18 0 12 -17 12 -25 -2z"/>
<path d="M1825 9159 c-19 -35 -12 -52 9 -23 12 15 17 17 27 7 22 -22 28 -15
18 17 -14 39 -34 38 -54 -1z"/>
<path d="M1873 9091 l-23 -26 -20 23 c-11 13 -24 22 -30 20 -11 -4 -4 -15 31
-45 l25 -23 33 34 c22 23 28 35 19 38 -7 3 -23 -7 -35 -21z"/>
<path d="M1577 8984 c-8 -8 1 -24 14 -24 5 0 9 7 9 15 0 15 -12 20 -23 9z"/>
<path d="M2105 8981 c-6 -11 9 -23 19 -14 9 9 7 23 -3 23 -6 0 -12 -4 -16 -9z"/>
<path d="M2700 9435 c0 -37 10 -44 30 -20 14 17 4 55 -16 55 -9 0 -14 -11 -14
-35z"/>
<path d="M2712 9260 c3 -28 8 -53 11 -56 3 -3 18 0 34 8 19 9 29 22 31 41 4
37 -13 57 -50 57 l-31 0 5 -50z"/>
<path d="M3200 9305 c-13 -34 -13 -61 0 -86 27 -50 61 3 44 69 -11 44 -31 52
-44 17z"/>
<path d="M4477 9323 c-13 -21 -18 -83 -8 -102 28 -52 62 0 45 67 -9 34 -27 52
-37 35z"/>
<path d="M4991 9339 c-14 -41 -7 -50 29 -38 48 17 53 69 5 69 -17 0 -26 -8
-34 -31z"/>
<path d="M324 1447 c-10 -27 0 -72 16 -72 11 0 15 11 15 39 0 40 -20 61 -31
33z"/>
<path d="M16760 1081 c0 -5 6 -14 14 -20 16 -13 32 2 21 19 -8 12 -35 13 -35
1z"/>
<path d="M16672 997 c-56 -57 -60 -63 -43 -74 16 -10 26 -3 77 48 52 52 57 61
43 74 -13 13 -22 8 -77 -48z"/>
<path d="M16596 913 c-11 -11 -6 -23 9 -23 8 0 15 4 15 9 0 13 -16 22 -24 14z"/>
<path d="M1130 1005 c0 -51 3 -65 15 -65 8 0 15 -7 15 -17 0 -15 1 -15 18 0
14 13 38 17 95 17 l77 0 0 65 0 65 -110 0 -110 0 0 -65z m210 -15 c0 -6 -40
-10 -100 -10 -60 0 -100 4 -100 10 0 6 40 10 100 10 60 0 100 -4 100 -10z m0
-30 c0 -6 -40 -10 -100 -10 -60 0 -100 4 -100 10 0 6 40 10 100 10 60 0 100
-4 100 -10z"/>
<path d="M540 1025 c-7 -8 -19 -15 -26 -15 -8 0 -14 -10 -14 -25 0 -14 5 -25
12 -25 6 0 20 -7 30 -17 17 -15 18 -14 18 40 0 32 -2 57 -4 57 -2 0 -9 -7 -16
-15z"/>
<path d="M17210 980 l0 -60 110 0 110 0 0 60 0 60 -110 0 -110 0 0 -60z m210
0 l0 -40 -65 0 c-36 0 -65 4 -65 9 0 5 -3 23 -6 40 l-6 31 71 0 71 0 0 -40z"/>
<path d="M17310 989 c0 -5 4 -8 9 -5 5 3 14 -1 21 -9 17 -21 64 -20 56 1 -3 9
-6 18 -6 20 0 2 -18 4 -40 4 -22 0 -40 -5 -40 -11z"/>
<path d="M8994 956 c-10 -25 0 -61 19 -64 14 -3 17 4 17 37 0 30 -4 41 -15 41
-9 0 -18 -6 -21 -14z"/>
<path d="M10254 957 c-10 -27 0 -72 16 -72 11 0 15 11 15 39 0 40 -20 61 -31
33z"/>
<path d="M17933 413 c-7 -2 -13 -9 -13 -14 0 -6 4 -8 9 -4 6 3 12 -16 14 -42
3 -48 3 -48 5 10 1 31 1 57 0 56 -2 0 -9 -3 -15 -6z"/>
<path d="M17996 411 c-4 -5 3 -7 14 -4 15 4 20 0 20 -16 0 -13 -7 -21 -17 -22
-13 0 -12 -3 5 -10 29 -11 24 -31 -9 -41 -22 -6 -21 -7 6 -5 23 2 31 7 33 25
2 12 -2 22 -9 22 -9 0 -9 3 0 14 6 7 9 21 5 30 -7 17 -39 22 -48 7z"/>
<path d="M18117 385 l-27 -40 24 -3 c14 -2 27 -11 29 -20 4 -15 5 -15 6 1 0 9
7 17 14 17 9 0 9 2 0 8 -6 4 -13 23 -15 42 l-3 35 -28 -40z m23 -15 c0 -11 -7
-20 -15 -20 -13 0 -14 4 -5 20 6 11 13 20 15 20 3 0 5 -9 5 -20z"/>
<path d="M18203 413 c-7 -2 -13 -9 -13 -14 0 -6 4 -8 9 -4 6 3 12 -16 14 -42
3 -48 3 -48 5 10 1 31 1 57 0 56 -2 0 -9 -3 -15 -6z"/>
<path d="M7600 345 c-41 -25 -72 -45 -67 -45 9 -1 285 -1 295 0 7 0 -124 79
-143 86 -5 2 -44 -17 -85 -41z"/>
<path d="M8192 358 c-40 -25 -40 -33 -2 -53 17 -9 30 -17 30 -19 0 -3 -16 -14
-36 -26 l-35 -22 37 -26 c30 -20 41 -23 56 -13 10 6 27 17 38 23 16 10 24 10
40 0 11 -6 28 -17 38 -23 15 -10 26 -7 56 13 l37 26 -35 22 c-20 12 -36 23
-36 26 0 2 14 11 31 19 36 19 34 29 -6 55 -30 19 -31 19 -63 -1 -40 -26 -40
-34 -2 -54 17 -9 30 -17 30 -19 0 -3 -16 -14 -35 -26 l-35 -22 -36 23 c-39 24
-39 26 16 60 13 8 12 11 -5 25 -41 32 -50 33 -83 12z"/>
<path d="M9466 361 c-44 -29 -47 -42 -20 -86 15 -25 24 -33 24 -22 0 29 47 69
78 67 15 -1 45 -2 67 -1 l40 2 -33 29 c-26 24 -41 30 -80 30 -30 0 -58 -7 -76
-19z"/>
<path d="M10690 361 l-55 -6 -3 -52 c-2 -43 0 -53 13 -53 8 0 21 11 27 25 7
15 20 25 32 25 16 0 18 2 7 9 -11 7 -9 10 9 13 13 1 27 13 31 26 5 12 5 21 1
20 -4 -1 -32 -4 -62 -7z"/>
<path d="M323 343 c-31 -4 -33 -7 -33 -44 l0 -39 55 0 55 0 0 45 c0 49 3 48
-77 38z"/>
<path d="M835 325 c-26 -25 -29 -37 -15 -70 6 -16 -1 -30 -34 -65 l-41 -45 45
41 c35 33 49 40 65 34 33 -14 45 -11 70 15 31 30 32 65 2 93 -30 29 -62 28
-92 -3z m76 5 c5 0 14 -12 20 -26 13 -37 -11 -74 -49 -74 -35 0 -52 17 -52 51
0 30 35 63 58 54 8 -3 18 -5 23 -5z"/>
<path d="M5162 335 c-21 -9 -38 -27 -48 -50 -20 -49 1 -100 51 -120 31 -14 39
-14 70 0 78 32 78 138 1 170 -41 18 -33 18 -74 0z m83 -40 c14 -13 25 -33 25
-45 0 -27 -43 -70 -70 -70 -27 0 -70 43 -70 70 0 27 43 70 70 70 12 0 32 -11
45 -25z"/>
<path d="M5701 333 c-1 -22 3 -23 64 -23 61 0 65 1 64 23 -1 16 -2 18 -6 5 -4
-14 -15 -18 -58 -18 -43 0 -54 4 -58 18 -4 13 -5 11 -6 -5z"/>
<path d="M5882 325 c0 -16 2 -22 5 -12 2 9 2 23 0 30 -3 6 -5 -1 -5 -18z"/>
<path d="M18690 266 l0 -85 37 -3 c27 -2 41 -9 49 -26 l12 -23 4 28 c3 15 8
36 12 45 6 14 0 17 -36 21 -42 4 -42 4 7 4 28 0 60 5 72 11 12 7 32 12 45 13
13 0 17 3 11 6 -8 3 -13 23 -13 49 l0 44 -100 0 -100 0 0 -84z m133 37 c-18
-2 -48 -2 -65 0 -18 2 -4 4 32 4 36 0 50 -2 33 -4z m0 -40 c-18 -2 -48 -2 -65
0 -18 2 -4 4 32 4 36 0 50 -2 33 -4z"/>
<path d="M240 331 c-31 -5 -35 -10 -38 -38 -3 -32 -2 -33 37 -33 l41 0 0 40
c0 22 -1 39 -2 39 -2 -1 -19 -4 -38 -8z"/>
<path d="M15777 333 c-3 -5 17 -8 43 -8 26 0 46 3 43 8 -2 4 -22 7 -43 7 -21
0 -41 -3 -43 -7z"/>
<path d="M16780 338 c0 -3 7 -19 15 -34 19 -37 19 -71 0 -108 -18 -33 -14 -44
6 -20 21 26 19 129 -3 151 -10 9 -18 15 -18 11z"/>
<path d="M6964 320 c-28 -11 -54 -48 -54 -78 0 -68 77 -142 148 -142 38 0 93
23 116 49 21 23 20 24 -42 21 -50 -2 -88 19 -102 56 -13 32 2 61 32 66 21 3
21 5 -9 21 -35 19 -57 20 -89 7z"/>
<path d="M8800 320 c10 -6 11 -10 3 -10 -7 0 -13 -4 -13 -10 0 -5 7 -10 15
-10 8 0 15 9 15 20 0 12 -7 20 -17 20 -15 0 -16 -2 -3 -10z"/>
<path d="M8834 315 c-4 -9 -4 -19 0 -22 3 -4 6 0 6 8 0 12 2 11 10 -1 8 -12
11 -13 19 -1 7 11 10 11 15 0 3 -8 5 -5 3 6 -3 25 -44 33 -53 10z"/>
<path d="M8910 320 c10 -6 11 -10 3 -10 -7 0 -13 -7 -13 -15 0 -9 6 -12 15 -9
21 9 19 44 -2 44 -15 0 -16 -2 -3 -10z"/>
<path d="M8943 310 c-1 -11 4 -20 10 -20 7 0 13 9 13 20 0 11 -5 20 -11 20 -6
0 -11 -9 -12 -20z"/>
<path d="M8975 320 c-10 -16 16 -43 28 -31 11 11 2 41 -12 41 -5 0 -13 -5 -16
-10z"/>
<path d="M9021 308 c0 -22 1 -22 8 -3 l8 20 5 -20 c5 -18 6 -18 7 3 1 13 -5
22 -14 22 -9 0 -15 -9 -14 -22z"/>
<path d="M10043 323 l-33 -4 0 -70 0 -69 35 0 c32 0 35 -2 35 -30 l0 -30 110
0 110 0 0 100 0 100 -47 0 c-27 0 -77 2 -113 4 -36 2 -80 2 -97 -1z m13 -45
l7 -23 8 23 c10 25 29 21 30 -6 0 -12 3 -11 9 6 5 12 14 22 20 22 13 0 12 -6
-1 -52 -10 -38 -39 -53 -39 -21 0 15 -2 14 -14 -3 -19 -24 -32 -12 -41 39 -8
41 9 53 21 15z"/>
<path d="M16092 322 c-20 -13 31 -56 57 -47 13 4 27 -1 41 -15 17 -17 18 -24
9 -41 -9 -17 -8 -20 3 -17 7 3 14 16 16 30 2 18 -7 34 -38 61 -40 37 -63 44
-88 29z"/>
<path d="M1560 250 c0 -40 2 -71 5 -68 8 7 8 128 1 135 -3 4 -6 -27 -6 -67z"/>
<path d="M2650 250 c0 -40 2 -71 5 -68 8 7 8 128 1 135 -3 4 -6 -27 -6 -67z"/>
<path d="M16054 312 c3 -5 -4 -16 -15 -25 -10 -9 -19 -28 -19 -41 0 -41 25
-56 94 -56 35 0 68 -5 77 -12 7 -7 -20 22 -61 65 -69 72 -89 89 -76 69z m66
-72 l45 -39 -50 -1 c-55 0 -75 12 -75 45 0 47 22 46 80 -5z"/>
<path d="M16670 305 c-7 -8 -21 -15 -31 -15 -15 0 -19 -8 -19 -40 0 -31 4 -40
17 -40 9 0 25 -7 35 -17 17 -15 18 -13 18 55 0 40 -2 72 -4 72 -2 0 -9 -7 -16
-15z m10 -54 c0 -49 0 -49 -25 -38 -17 8 -25 20 -25 37 0 23 5 28 48 49 1 0 2
-21 2 -48z"/>
<path d="M17032 303 c-40 -20 -71 -61 -77 -105 -5 -32 -5 -32 10 7 21 52 49
81 99 99 23 8 32 15 21 15 -11 0 -35 -7 -53 -16z"/>
<path d="M1123 303 c14 -4 17 -16 17 -64 0 -33 4 -59 10 -59 6 0 10 26 10 59
0 48 3 60 18 64 9 3 -3 5 -28 5 -25 0 -37 -2 -27 -5z"/>
<path d="M1991 298 c0 -10 -7 -18 -13 -18 -10 0 -10 -2 -1 -8 6 -4 13 -25 15
-47 2 -31 8 -41 23 -43 18 -2 18 -2 3 8 -12 7 -18 23 -18 45 0 24 5 35 18 38
15 4 15 5 0 6 -9 0 -19 9 -21 19 -4 16 -5 16 -6 0z"/>
<path d="M10815 301 c32 -7 25 -17 -22 -30 l-25 -7 36 -24 c20 -14 36 -29 36
-35 -1 -12 -75 -65 -91 -65 -7 0 -9 25 -7 69 3 72 -2 80 -21 34 -6 -16 -30
-38 -52 -51 -35 -20 -40 -27 -37 -55 l3 -32 145 0 145 0 0 100 0 100 -70 2
c-44 1 -59 -1 -40 -6z"/>
<path d="M16756 295 c4 -11 8 -31 8 -45 0 -14 -4 -34 -8 -45 -8 -20 -7 -20 8
-1 9 11 16 32 16 46 0 14 -7 35 -16 46 -15 19 -16 19 -8 -1z"/>
<path d="M5700 255 l0 -45 65 0 65 0 0 45 0 45 -65 0 -65 0 0 -45z m120 0 l0
-35 -55 0 -55 0 0 35 0 35 55 0 55 0 0 -35z"/>
<path d="M15764 286 c-3 -8 -4 -29 -2 -48 3 -30 6 -33 41 -36 21 -2 44 2 51 8
8 5 21 8 30 4 13 -5 16 1 16 36 0 36 -2 41 -19 35 -11 -3 -22 -1 -26 5 -10 16
-85 13 -91 -4z m86 -36 l0 -40 -40 0 -40 0 0 40 0 40 40 0 40 0 0 -40z m40 0
c0 -21 -15 -27 -25 -10 -7 12 2 30 16 30 5 0 9 -9 9 -20z"/>
<path d="M16330 245 l0 -55 89 0 89 0 5 28 c3 15 3 39 0 55 l-5 27 -89 0 -89
0 0 -55z m170 0 l0 -45 -80 0 -80 0 0 45 0 45 80 0 80 0 0 -45z"/>
<path d="M16350 245 c0 -31 3 -35 25 -35 22 0 25 4 25 35 0 31 -3 35 -25 35
-22 0 -25 -4 -25 -35z"/>
<path d="M17260 245 l0 -55 33 1 c23 1 26 3 10 6 -14 3 -23 12 -23 23 0 11 9
20 23 23 l22 4 -22 2 c-16 1 -23 7 -23 20 0 12 8 21 23 24 16 3 13 5 -10 6
l-33 1 0 -55z"/>
<path d="M17340 245 c0 -30 5 -55 10 -55 6 0 10 19 10 43 l0 42 26 -42 c14
-24 29 -43 35 -43 5 0 9 25 9 55 0 62 -17 75 -22 18 l-3 -38 -22 38 c-12 20
-27 37 -33 37 -6 0 -10 -24 -10 -55z"/>
<path d="M17468 289 c-22 -12 -24 -71 -4 -89 26 -20 61 -8 64 23 3 23 0 27
-20 26 -17 -1 -18 -3 -5 -6 23 -6 23 -43 -1 -43 -24 0 -42 19 -42 46 0 28 24
48 50 41 11 -3 20 -1 20 4 0 12 -41 11 -62 -2z"/>
<path d="M5870 275 c0 -8 7 -15 15 -15 8 0 15 7 15 15 0 8 -7 15 -15 15 -8 0
-15 -7 -15 -15z"/>
<path d="M15475 248 l-40 -43 43 40 42 39 43 -39 42 -40 -40 43 c-21 23 -42
42 -45 42 -3 0 -24 -19 -45 -42z"/>
<path d="M1201 274 c-1 -6 6 -31 14 -54 18 -52 18 -45 -1 -64 -8 -9 -11 -16
-6 -16 5 0 14 6 19 13 16 20 53 127 44 127 -4 0 -14 -19 -21 -42 -11 -39 -13
-41 -21 -20 -21 52 -28 66 -28 56z"/>
<path d="M1301 209 c1 -41 4 -62 6 -48 3 21 9 26 24 22 27 -7 49 14 49 47 0
30 -22 55 -42 47 -9 -4 -7 -6 4 -6 20 -1 32 -33 23 -62 -5 -14 -14 -19 -28
-17 -18 2 -22 10 -23 40 0 21 -3 41 -7 45 -4 3 -6 -27 -6 -68z"/>
<path d="M1416 264 c-19 -18 -20 -38 -6 -65 11 -19 54 -27 64 -10 3 4 -5 6
-18 4 -17 -4 -27 1 -35 16 -11 19 -9 21 24 21 36 0 46 15 23 38 -16 16 -33 15
-52 -4z m52 -11 c2 -9 -7 -13 -28 -13 -28 0 -31 2 -20 15 15 18 41 16 48 -2z"/>
<path d="M1603 273 c13 -3 17 -15 17 -49 0 -24 5 -44 10 -44 13 0 13 56 0 81
-6 10 -18 18 -28 18 -16 -1 -16 -2 1 -6z"/>
<path d="M1676 264 c-19 -18 -20 -38 -6 -65 11 -19 54 -27 64 -10 3 4 -5 6
-18 4 -17 -4 -27 1 -35 16 -11 19 -9 21 24 21 36 0 46 15 23 38 -16 16 -33 15
-52 -4z m52 -11 c2 -9 -7 -13 -28 -13 -28 0 -31 2 -20 15 15 18 41 16 48 -2z"/>
<path d="M1771 225 c1 -27 3 -39 6 -25 9 56 14 69 31 73 9 3 5 4 -10 4 -27 -1
-28 -3 -27 -52z"/>
<path d="M1846 264 c-19 -18 -20 -38 -6 -65 11 -19 54 -27 64 -10 3 4 -5 6
-18 4 -17 -4 -27 1 -35 16 -11 19 -9 21 24 21 36 0 46 15 23 38 -16 16 -33 15
-52 -4z m52 -11 c2 -9 -7 -13 -28 -13 -28 0 -31 2 -20 15 15 18 41 16 48 -2z"/>
<path d="M2056 264 c-29 -29 -11 -84 27 -84 30 0 47 18 47 50 0 47 -42 66 -74
34z m59 -14 c15 -48 -26 -81 -55 -45 -10 12 -10 21 -2 40 14 30 48 33 57 5z"/>
<path d="M2209 264 c-11 -14 -10 -18 6 -30 10 -8 22 -14 27 -14 19 0 6 -29
-14 -33 -20 -3 -20 -4 2 -3 37 1 39 39 4 55 -28 12 -24 25 11 34 19 4 19 5 -1
6 -12 0 -28 -6 -35 -15z"/>
<path d="M2296 264 c-19 -18 -20 -38 -6 -65 11 -19 54 -27 64 -10 3 4 -5 6
-18 4 -17 -4 -27 1 -35 16 -11 19 -9 21 24 21 36 0 46 15 23 38 -16 16 -33 15
-52 -4z m52 -11 c2 -9 -7 -13 -28 -13 -28 0 -31 2 -20 15 15 18 41 16 48 -2z"/>
<path d="M2396 272 c-3 -5 6 -7 19 -4 37 7 32 -21 -6 -35 -42 -16 -37 -48 9
-49 l33 -1 -3 46 c-3 38 -7 47 -25 49 -11 2 -24 -1 -27 -6z m44 -57 c0 -21
-28 -31 -43 -16 -9 9 -8 14 3 21 22 14 40 12 40 -5z"/>
<path d="M2491 225 c1 -27 3 -39 6 -25 9 56 14 69 31 73 9 3 5 4 -10 4 -27 -1
-28 -3 -27 -52z"/>
<path d="M2566 264 c-32 -31 -8 -85 37 -83 22 2 22 2 -1 6 -30 6 -46 37 -32
62 5 11 20 22 32 24 23 4 23 4 1 6 -12 0 -29 -6 -37 -15z"/>
<path d="M2693 273 c13 -3 17 -15 17 -49 0 -24 5 -44 10 -44 13 0 13 56 0 81
-6 10 -18 18 -28 18 -16 -1 -16 -2 1 -6z"/>
<path d="M16723 250 c0 -16 4 -27 9 -24 4 3 8 14 8 24 0 10 -4 21 -8 24 -5 3
-9 -8 -9 -24z"/>
<path d="M17031 253 c-17 -16 -33 -41 -36 -58 -5 -29 -5 -29 5 -5 16 35 41 61
75 76 26 12 27 13 8 14 -13 0 -36 -12 -52 -27z"/>
<path d="M202 213 c3 -35 6 -38 41 -44 l37 -6 0 44 0 43 -41 0 -40 0 3 -37z"/>
<path d="M290 205 c0 -36 3 -45 18 -45 9 0 34 -3 55 -6 l37 -7 0 52 0 51 -55
0 -55 0 0 -45z"/>
<path d="M5883 205 c0 -27 2 -38 4 -22 2 15 2 37 0 50 -2 12 -4 0 -4 -28z"/>
<path d="M17052 217 c-12 -13 -22 -30 -22 -38 1 -8 7 -3 14 10 7 13 24 30 37
37 16 9 19 13 8 14 -8 0 -25 -10 -37 -23z"/>
<path d="M8261 198 l-34 -22 29 -23 c36 -29 52 -29 88 0 l29 24 -35 21 c-42
26 -36 26 -77 0z"/>
<path d="M8844 205 c23 -95 28 -108 36 -95 5 9 4 20 -2 27 -7 9 -7 17 1 27 17
21 130 19 156 -3 18 -15 19 -15 7 1 -11 14 -10 17 10 21 13 2 -24 5 -81 6 -86
1 -106 4 -118 19 -13 16 -14 16 -9 -3z"/>
<path d="M9448 201 l-28 -6 23 -28 c12 -15 36 -31 54 -36 30 -9 33 -7 52 25
l20 34 -24 -6 c-15 -4 -34 0 -48 8 -12 8 -34 12 -49 9z"/>
<path d="M18850 197 c0 -10 8 -13 25 -9 14 2 25 0 25 -5 0 -5 -11 -20 -25 -33
-36 -33 -32 -50 11 -50 21 0 33 4 29 10 -3 6 -16 10 -28 10 l-21 0 22 16 c34
23 27 68 -10 72 -19 2 -28 -1 -28 -11z"/>
<path d="M5701 178 c1 -17 2 -19 6 -5 4 13 15 17 58 17 43 0 54 -4 58 -17 4
-14 5 -12 6 5 1 21 -3 22 -64 22 -61 0 -65 -1 -64 -22z"/>
<path d="M17070 185 c0 -8 7 -15 15 -15 8 0 15 7 15 15 0 8 -7 15 -15 15 -8 0
-15 -7 -15 -15z"/>
<path d="M17733 183 c-7 -2 -13 -9 -13 -14 0 -6 4 -8 9 -4 6 3 12 -16 14 -42
3 -48 3 -48 5 10 1 31 1 57 0 56 -2 0 -9 -3 -15 -6z"/>
<path d="M17813 183 c-7 -2 -13 -9 -13 -14 0 -6 4 -8 9 -4 6 3 12 -16 14 -42
3 -48 3 -48 5 10 1 31 1 57 0 56 -2 0 -9 -3 -15 -6z"/>
<path d="M17934 177 c-3 -8 -4 -32 -2 -53 3 -34 6 -39 27 -39 28 0 42 33 31
75 -7 28 -47 40 -56 17z m41 -43 c0 -28 -4 -39 -15 -39 -16 0 -26 45 -16 72
11 28 31 7 31 -33z"/>
<path d="M18033 183 c-7 -2 -13 -9 -13 -14 0 -6 4 -8 9 -4 6 3 12 -16 14 -42
3 -48 3 -48 5 10 1 31 1 57 0 56 -2 0 -9 -3 -15 -6z"/>
<path d="M18156 182 c-3 -6 2 -8 13 -5 29 7 32 -22 5 -48 -34 -32 -31 -49 9
-48 31 2 31 2 3 6 l-28 5 27 28 c15 15 25 36 23 47 -3 19 -42 30 -52 15z"/>
<path d="M18234 177 c-3 -8 -4 -32 -2 -53 3 -34 6 -39 27 -39 28 0 42 33 31
75 -7 28 -47 40 -56 17z m41 -43 c0 -28 -4 -39 -15 -39 -16 0 -26 45 -16 72
11 28 31 7 31 -33z"/>
<path d="M18316 182 c-3 -6 2 -8 13 -5 29 7 32 -22 5 -48 -34 -32 -31 -49 9
-48 31 2 31 2 3 6 l-28 5 27 28 c15 15 25 36 23 47 -3 19 -42 30 -52 15z"/>
<path d="M18413 183 c-7 -2 -13 -9 -13 -14 0 -6 4 -8 9 -4 6 3 12 -16 14 -42
3 -48 3 -48 5 10 1 31 1 57 0 56 -2 0 -9 -3 -15 -6z"/>
<path d="M15777 168 c2 -5 22 -8 43 -8 21 0 41 3 43 8 3 4 -17 7 -43 7 -26 0
-46 -3 -43 -7z"/>
<path d="M18982 155 c0 -16 2 -22 5 -12 2 9 2 23 0 30 -3 6 -5 -1 -5 -18z"/>
<path d="M6350 155 c0 -8 9 -15 20 -15 11 0 20 7 20 15 0 8 -9 15 -20 15 -11
0 -20 -7 -20 -15z"/>
<path d="M6490 155 c0 -8 9 -15 20 -15 11 0 20 7 20 15 0 8 -9 15 -20 15 -11
0 -20 -7 -20 -15z"/>
<path d="M7695 137 l-40 -22 43 -3 c23 -2 61 -2 85 0 l42 3 -38 23 c-46 26
-42 27 -92 -1z"/>
<path d="M8915 140 c10 -11 20 -20 22 -20 2 0 -2 9 -9 20 -7 11 -17 20 -22 20
-5 0 -1 -9 9 -20z"/>
<path d="M17878 123 c6 -2 18 -2 25 0 6 3 1 5 -13 5 -14 0 -19 -2 -12 -5z"/>
<path d="M18098 123 c6 -2 18 -2 25 0 6 3 1 5 -13 5 -14 0 -19 -2 -12 -5z"/>
<path d="M18873 53 c9 -2 23 -2 30 0 6 3 -1 5 -18 5 -16 0 -22 -2 -12 -5z"/>
<path d="M6810 15 c0 -13 35 -15 255 -15 220 0 255 2 255 15 0 13 -35 15 -255
15 -220 0 -255 -2 -255 -15z"/>
<path d="M9290 15 c0 -13 35 -15 255 -15 220 0 255 2 255 15 0 13 -35 15 -255
15 -220 0 -255 -2 -255 -15z"/>
<path d="M9910 15 c0 -13 35 -15 255 -15 220 0 255 2 255 15 0 13 -35 15 -255
15 -220 0 -255 -2 -255 -15z"/>
<path d="M10480 15 c0 -13 41 -15 305 -15 264 0 305 2 305 15 0 13 -41 15
-305 15 -264 0 -305 -2 -305 -15z"/>
</g>
</svg>
