<?xml version="1.0" standalone="no"?>
<!DOCTYPE svg PUBLIC "-//W3C//DTD SVG 20010904//EN"
 "http://www.w3.org/TR/2001/REC-SVG-20010904/DTD/svg10.dtd">
<svg version="1.0" xmlns="http://www.w3.org/2000/svg"
 width="1920.000000pt" height="1080.000000pt" viewBox="0 0 1920.000000 1080.000000"
 preserveAspectRatio="xMidYMid meet">

<g transform="translate(0.000000,1080.000000) scale(0.100000,-0.100000)"
fill="#000000" stroke="none">
<path d="M0 5650 l0 -5150 4354 0 c3861 0 4355 2 4360 15 5 13 41 15 246 15
207 0 240 -2 240 -15 0 -10 10 -15 30 -15 20 0 30 5 30 15 0 13 39 15 290 15
251 0 290 -2 290 -15 0 -10 10 -15 30 -15 20 0 30 5 30 15 0 13 34 15 245 15
211 0 245 -2 245 -15 0 -12 13 -15 55 -15 42 0 55 3 55 15 0 13 33 15 240 15
207 0 240 -2 240 -15 0 -13 463 -15 4110 -15 l4110 0 0 5150 0 5150 -9600 0
-9600 0 0 -5150z m3421 5071 c40 -40 40 -91 0 -132 -27 -26 -34 -28 -93 -27
l-64 2 -2 56 c-3 93 23 128 96 129 24 1 42 -7 63 -28z m5231 19 c2 -5 2 -48 0
-95 l-3 -85 -84 0 c-46 0 -86 4 -89 9 -9 14 -15 122 -9 153 l6 28 87 0 c49 0
90 -4 92 -10z m2577 -16 c25 -21 31 -33 31 -67 0 -42 -29 -87 -57 -87 -20 0
-15 40 7 58 16 13 19 24 15 47 -6 29 -9 30 -53 30 -26 0 -50 -4 -54 -10 -16
-21 -8 -63 15 -78 16 -12 18 -16 7 -16 -9 -1 -22 5 -29 12 -10 10 -11 9 -6 -5
4 -10 13 -18 21 -18 8 0 14 -4 14 -10 0 -24 -38 -2 -56 32 -49 95 64 181 145
112z m-5221 -20 c4 -28 -25 -53 -34 -30 -4 10 -18 16 -35 16 -18 0 -29 5 -29
14 0 19 17 25 60 23 27 -2 36 -7 38 -23z m1927 -7 c21 -30 19 -63 -5 -87 -24
-24 -77 -26 -102 -3 -35 31 -12 114 31 112 11 0 8 -3 -6 -9 -27 -11 -39 -53
-24 -86 21 -48 111 -22 111 32 0 23 -7 32 -45 59 -19 14 -19 14 3 8 12 -3 29
-15 37 -26z m5919 11 c7 -12 7 -23 -2 -40 -6 -13 -13 -36 -14 -53 l-3 -30 -82
-3 -83 -3 0 56 0 55 55 0 c45 0 56 4 65 21 13 24 48 22 64 -3z m2556 -13 c0
-21 5 -25 30 -25 38 0 40 -18 3 -22 -22 -2 -29 -9 -31 -30 -2 -16 -7 -28 -12
-28 -5 0 -10 12 -12 28 -2 21 -9 28 -31 30 -33 4 -26 22 9 22 19 0 24 5 24 25
0 14 5 25 10 25 6 0 10 -11 10 -25z m-15440 11 c0 -3 -4 -8 -10 -11 -5 -3 -10
-1 -10 4 0 6 5 11 10 11 6 0 10 -2 10 -4z m48 -48 c-1 -51 -2 -51 -5 -10 -2
23 -9 42 -16 42 -7 0 -6 4 3 10 8 5 16 10 18 10 1 0 1 -24 0 -52z m93 45 c0
-5 1 -26 2 -48 2 -35 -1 -40 -22 -43 -28 -4 -43 15 -31 39 5 9 7 19 3 22 -11
12 7 37 27 37 11 0 20 -3 21 -7z m43 -9 c14 -37 3 -104 -17 -104 -7 0 -7 4 1
12 15 15 16 63 2 89 -6 11 -7 19 -1 19 5 0 12 -7 15 -16z m81 -4 c3 -11 10
-20 15 -20 5 0 12 9 15 20 3 11 11 20 16 20 6 0 3 -10 -5 -22 -9 -12 -16 -35
-16 -50 0 -16 -4 -28 -10 -28 -5 0 -10 9 -10 20 0 12 -7 34 -15 50 -9 17 -11
30 -6 30 5 0 13 -9 16 -20z m263 13 c-14 -3 -18 -16 -20 -51 l-1 -47 -4 45
c-3 24 -10 48 -16 52 -7 4 4 7 23 7 19 -1 27 -3 18 -6z m126 -8 c-4 -8 -1 -15
5 -15 8 0 9 -6 3 -17 -5 -10 -7 -24 -5 -30 7 -18 33 -16 33 2 0 8 5 15 10 15
7 0 7 -6 0 -20 -6 -12 -21 -20 -35 -20 -23 0 -25 4 -25 50 0 28 4 50 10 50 5
0 7 -7 4 -15z m1943 -15 c-9 -23 -8 -38 1 -62 10 -30 10 -31 -3 -14 -17 23
-19 59 -5 87 16 29 20 23 7 -11z m80 14 c3 -9 -5 -27 -22 -44 l-27 -28 28 -5
c28 -4 28 -4 -3 -6 -40 -1 -41 8 -8 39 31 29 32 47 3 53 l-23 4 23 2 c12 0 25
-6 29 -15z m45 -66 c-4 -17 -14 -34 -22 -36 -13 -5 -13 -3 -1 11 9 12 12 32 8
64 -5 46 -5 47 9 20 10 -19 12 -37 6 -59z m106 52 c16 37 15 38 38 -25 6 -17
8 -14 16 18 6 20 14 37 19 37 4 0 2 -21 -6 -47 -8 -27 -15 -49 -15 -50 0 -2
-4 -3 -9 -3 -5 0 -11 14 -14 30 -7 32 -27 42 -27 13 0 -10 -4 -25 -10 -33 -7
-12 -11 -10 -18 10 -5 14 -12 39 -15 55 -6 29 -6 29 10 -5 l16 -35 15 35z
m125 -2 c18 -2 22 -10 23 -38 l2 -35 -5 33 c-6 42 -35 40 -44 -3 -5 -22 -7
-16 -7 25 0 30 2 47 5 38 2 -9 14 -18 26 -20z m291 -8 c18 -45 21 -75 5 -47
-5 9 -19 17 -29 17 -10 0 -24 -8 -29 -17 -15 -26 -13 -13 5 40 9 26 19 47 24
47 4 0 15 -18 24 -40z m1985 5 c7 -19 16 -35 20 -35 4 0 13 16 20 35 18 51 31
43 30 -17 -2 -51 -2 -52 -8 -14 l-6 39 -19 -39 -19 -39 -16 35 -15 35 -4 -32
c-5 -51 -17 -39 -17 17 0 58 15 65 34 15z m463 18 c5 -28 -3 -83 -13 -83 -5 0
-9 23 -9 50 0 48 15 70 22 33z m318 -33 c0 -46 -2 -50 -24 -50 -30 0 -50 23
-41 50 10 31 22 24 17 -11 -4 -26 -2 -30 14 -27 23 4 31 37 12 49 -10 6 -10 9
0 9 6 0 12 7 12 15 0 8 2 15 5 15 3 0 5 -22 5 -50z m40 24 c0 -21 3 -24 14
-15 10 9 10 3 -3 -23 -9 -20 -19 -35 -23 -36 -5 0 -8 23 -8 50 0 28 5 50 10
50 6 0 10 -12 10 -26z m392 -4 c6 0 6 -6 -2 -15 -15 -18 -6 -45 16 -45 12 0
15 7 12 30 -5 32 14 38 20 6 5 -24 -16 -46 -44 -46 -22 0 -24 4 -23 53 1 28 3
44 6 35 2 -10 9 -18 15 -18z m93 22 c-5 -4 -10 -13 -11 -19 -1 -7 -2 -28 -4
-45 l-2 -33 -8 40 c-9 47 -4 65 19 65 9 0 12 -3 6 -8z m1316 1 c0 -5 1 -26 2
-48 2 -37 0 -40 -25 -43 -27 -3 -28 -2 -28 47 0 48 2 51 25 51 14 0 25 -3 26
-7z m36 -70 c-2 -16 -4 -3 -4 27 0 30 2 43 4 28 2 -16 2 -40 0 -55z m193 50
c0 -21 3 -24 12 -15 18 18 33 15 17 -4 -10 -12 -10 -20 -1 -35 7 -10 8 -19 3
-19 -6 0 -15 8 -20 18 -10 16 -10 16 -11 0 0 -10 -4 -18 -10 -18 -5 0 -8 23
-7 50 1 51 17 72 17 23z m75 -13 c4 -17 10 -30 15 -30 5 0 11 13 15 30 4 16
11 33 17 36 6 4 8 1 5 -7 -3 -8 -11 -31 -18 -51 -7 -21 -16 -38 -20 -38 -4 0
-14 21 -23 47 -19 54 -19 56 -7 48 5 -3 12 -19 16 -35z m369 24 c7 -19 -10
-44 -30 -44 -8 0 -14 -9 -14 -20 0 -11 -4 -20 -10 -20 -5 0 -10 23 -10 50 0
48 1 50 29 50 17 0 31 -6 35 -16z m906 -24 c7 -21 17 -37 21 -34 11 6 12 -10
2 -20 -4 -4 -15 8 -25 26 l-17 33 -1 -32 c0 -18 -3 -33 -7 -33 -5 0 -8 23 -8
50 0 61 17 66 35 10z m51 13 c-12 -20 -14 -14 -5 12 4 9 9 14 11 11 3 -2 0
-13 -6 -23z m973 -13 c18 -45 21 -75 5 -47 -13 22 -45 22 -53 1 -4 -9 -9 -15
-11 -12 -7 6 27 98 36 98 4 0 14 -18 23 -40z m50 -7 c1 -28 6 -39 20 -41 16
-3 18 1 14 27 -5 32 6 42 16 15 9 -24 -12 -54 -39 -54 -23 0 -25 3 -25 52 0
58 12 59 14 1z m88 30 c5 -28 -3 -83 -13 -83 -5 0 -9 23 -9 50 0 48 15 70 22
33z m368 10 c-8 -2 -22 -7 -30 -9 -10 -4 -7 -11 15 -28 35 -28 29 -57 -12 -55
l-28 2 28 4 c31 5 36 29 8 38 -21 6 -34 31 -25 46 3 5 17 9 32 8 15 0 20 -3
12 -6z m52 -23 c7 0 7 -4 0 -12 -5 -7 -12 -24 -15 -38 -2 -14 -4 0 -4 30 -1
30 1 47 4 38 2 -10 9 -18 15 -18z m432 15 c3 -8 -6 -28 -20 -44 l-25 -30 28
-4 c26 -4 26 -4 -4 -6 -40 -1 -41 7 -8 43 31 33 31 34 3 46 -23 9 -23 9 -2 9
12 1 24 -6 28 -14z m78 -17 c2 -18 2 -41 0 -50 -4 -21 -22 -24 -22 -4 0 8 -9
16 -20 18 -19 3 -19 3 1 36 12 17 25 32 29 32 4 0 10 -15 12 -32z m46 -31
c-24 -66 -36 -72 -13 -6 24 70 25 72 30 67 2 -2 -5 -30 -17 -61z m90 40 c3
-12 -4 -20 -17 -24 -12 -3 -21 -13 -21 -24 0 -23 27 -26 33 -4 4 11 4 10 3 -2
-1 -12 -10 -18 -26 -18 -23 0 -25 4 -26 48 0 46 1 48 25 45 16 -2 27 -10 29
-21z m42 -27 c0 -27 -3 -50 -7 -50 -5 0 -6 22 -5 50 5 65 12 65 12 0z m189 0
c4 0 13 6 21 13 12 10 12 9 1 -6 -12 -15 -11 -20 4 -37 19 -22 7 -28 -13 -8
-10 10 -15 10 -22 -2 -7 -10 -9 2 -8 40 0 30 3 43 5 28 2 -16 8 -28 12 -28z
m75 4 l13 -39 13 43 c7 23 17 42 21 42 4 0 0 -22 -9 -50 -9 -27 -20 -50 -24
-50 -9 0 -24 33 -34 78 -9 38 3 23 20 -24z m1094 -6 c2 -47 2 -48 -28 -48 -29
0 -30 1 -30 51 0 49 1 50 28 47 25 -3 27 -7 30 -50z m39 2 c-2 -65 -21 -65
-25 0 -2 38 1 50 12 50 10 0 14 -13 13 -50z m183 30 c0 -23 10 -26 28 -8 7 7
12 8 12 2 0 -5 -5 -15 -12 -22 -9 -9 -7 -16 7 -32 14 -16 15 -20 4 -20 -8 0
-20 5 -27 12 -9 9 -12 9 -12 0 0 -7 -4 -12 -10 -12 -5 0 -10 23 -10 50 0 28 5
50 10 50 6 0 10 -9 10 -20z m70 11 c0 -5 5 -22 11 -38 l11 -28 12 34 c7 19 18
37 24 39 8 2 6 -13 -6 -44 -11 -27 -24 -50 -29 -51 -6 -2 -18 14 -27 37 -19
47 -20 60 -6 60 6 0 10 -4 10 -9z m-11408 -18 c17 -15 19 -15 38 2 11 10 20
13 20 8 0 -6 -7 -16 -15 -23 -14 -12 -14 -15 0 -30 22 -24 18 -36 -5 -15 -19
17 -21 17 -40 0 -11 -10 -22 -16 -25 -13 -3 3 1 11 10 18 19 16 19 29 -2 52
-20 23 -6 24 19 1z m1151 -24 c-4 -21 -1 -34 8 -40 11 -7 11 -9 -2 -9 -12 0
-18 11 -21 34 -4 40 0 58 13 51 4 -3 6 -20 2 -36z m1497 26 c11 10 22 16 25
13 3 -3 -1 -11 -10 -18 -8 -7 -15 -18 -15 -25 0 -7 7 -18 15 -25 9 -7 13 -15
10 -18 -3 -3 -14 3 -25 13 -19 17 -21 17 -40 0 -11 -10 -20 -13 -20 -8 0 6 7
16 15 23 14 12 14 15 0 30 -22 24 -18 36 5 15 19 -17 21 -17 40 0z m903 -26
c-4 -21 -1 -34 8 -40 11 -7 11 -9 -3 -9 -15 0 -18 9 -18 46 0 26 4 43 10 39 5
-3 7 -20 3 -36z m1452 21 c17 -18 17 -21 1 -45 -9 -14 -25 -25 -36 -25 -22 0
-50 25 -50 45 0 19 28 45 49 45 10 0 26 -9 36 -20z m245 5 c7 8 17 15 23 15 5
0 3 -8 -6 -18 -21 -23 -21 -29 -2 -49 23 -22 9 -30 -15 -8 -19 17 -21 17 -40
0 -11 -10 -20 -13 -20 -8 0 6 7 16 15 23 14 12 14 15 0 30 -23 25 -18 34 9 17
21 -14 26 -14 36 -2z m1132 -30 c2 -26 -1 -44 -6 -42 -13 4 -18 87 -7 87 5 0
11 -20 13 -45z m589 17 c-15 -5 -14 -49 2 -55 7 -4 6 -6 -4 -6 -12 -1 -18 9
-21 33 -5 47 0 60 19 44 10 -8 11 -14 4 -16z m121 -17 c2 -27 -1 -44 -7 -42
-13 5 -19 87 -7 87 6 0 12 -20 14 -45z m728 30 c12 -14 15 -14 31 1 11 10 21
15 24 12 3 -3 -1 -11 -10 -18 -20 -16 -19 -30 2 -46 10 -7 15 -16 11 -20 -5
-4 -17 1 -28 11 -19 17 -21 17 -40 0 -11 -10 -20 -13 -20 -8 0 6 7 16 15 23
14 12 14 15 0 30 -8 9 -15 20 -15 23 0 12 17 7 30 -8z m2600 0 c12 -14 15 -14
31 1 11 10 22 14 26 11 4 -4 -2 -14 -13 -21 -18 -14 -18 -15 0 -35 11 -12 16
-24 13 -28 -4 -3 -16 2 -28 13 -20 18 -21 18 -35 0 -7 -11 -17 -17 -21 -13 -3
4 1 15 11 26 15 16 15 19 1 31 -8 7 -15 16 -15 21 0 14 16 11 30 -6z m1162
-25 c-2 -19 2 -37 10 -42 9 -7 8 -8 -7 -6 -20 3 -36 49 -27 76 9 26 27 4 24
-28z m1438 25 c12 -14 15 -14 31 1 24 22 37 10 16 -14 -15 -17 -15 -19 0 -35
9 -9 14 -20 10 -24 -4 -4 -15 1 -24 10 -16 15 -18 15 -35 0 -24 -21 -36 -8
-14 16 15 16 15 19 1 31 -8 7 -15 16 -15 21 0 14 16 11 30 -6z m1560 5 c0 -5
-25 -10 -56 -10 -34 0 -53 4 -49 10 3 6 28 10 56 10 27 0 49 -4 49 -10z
m-3352 -9 c8 -5 12 -21 10 -37 -3 -25 -7 -29 -33 -29 -24 0 -31 5 -33 23 -6
39 25 63 56 43z m82 0 c0 -5 -9 -11 -21 -14 -25 -7 -22 -43 4 -41 9 1 17 -2
17 -7 0 -15 -37 -10 -50 6 -18 21 2 65 30 65 11 0 20 -4 20 -9z m224 -7 c20
-19 20 -38 2 -54 -23 -19 -61 -8 -64 18 -7 44 32 67 62 36z m131 -9 c0 -13 -7
-20 -20 -20 -11 0 -18 -5 -15 -10 3 -6 13 -10 23 -9 9 0 17 -3 17 -8 0 -15
-58 -8 -64 8 -9 24 -8 31 10 49 21 21 49 15 49 -10z m-13826 1 c10 -12 8 -17
-8 -26 -19 -9 -21 -8 -21 15 0 28 12 32 29 11z m198 -33 c-3 -10 -5 -2 -5 17
0 19 2 27 5 18 2 -10 2 -26 0 -35z m355 17 c-4 -25 -1 -30 17 -30 16 0 21 6
21 24 0 13 -5 27 -10 29 -6 3 -5 4 2 3 7 -2 13 -16 13 -32 0 -24 -4 -29 -24
-29 -32 0 -49 28 -32 49 18 21 18 21 13 -14z m98 -25 c8 0 18 13 21 30 6 29 7
28 8 -8 1 -36 -1 -38 -26 -35 -24 3 -28 8 -30 38 -1 34 -1 34 5 5 4 -17 14
-30 22 -30z m158 -3 c9 2 20 17 23 33 6 29 7 28 8 -8 1 -36 -1 -38 -26 -35
-24 2 -28 8 -30 36 l-3 32 6 -31 c4 -21 10 -29 22 -27z m112 48 c0 -5 -2 -10
-4 -10 -3 0 -8 5 -11 10 -3 6 -1 10 4 10 6 0 11 -4 11 -10z m45 0 c-3 -5 1
-10 10 -10 10 0 13 5 9 12 -4 7 -3 8 4 4 18 -11 14 -26 -7 -26 -30 0 -35 -19
-9 -29 l23 -10 -22 0 c-16 -1 -24 6 -29 23 -6 27 1 46 17 46 6 0 7 -4 4 -10z
m2305 -25 c0 -31 -3 -35 -25 -35 -30 0 -33 23 -5 43 11 8 17 17 13 20 -3 4 -1
7 5 7 7 0 12 -15 12 -35z m88 26 c-2 -5 6 -16 16 -24 23 -17 13 -37 -17 -36
-17 1 -18 2 -4 6 21 5 22 22 2 29 -17 7 -21 34 -5 34 6 0 9 -4 8 -9z m157 -18
c0 -19 6 -29 19 -31 16 -3 18 1 14 27 -3 19 -1 28 5 22 16 -16 3 -56 -20 -59
-12 -2 -24 -11 -26 -20 -3 -9 -5 7 -6 36 0 28 3 52 7 52 4 0 8 -12 7 -27z m84
6 c-13 -25 1 -45 26 -35 13 5 15 13 10 34 -5 21 -4 24 6 15 18 -18 3 -61 -24
-65 -12 -2 -21 -9 -19 -16 1 -6 -2 -12 -8 -12 -5 0 -10 23 -10 50 0 38 4 50
15 50 13 0 14 -4 4 -21z m1552 -21 c-11 -11 -13 -10 -8 5 4 9 2 17 -3 17 -6 0
-10 5 -10 12 0 8 6 6 17 -5 14 -14 15 -19 4 -29z m409 32 c-12 -8 -10 -10 8
-10 13 0 20 4 17 10 -3 6 -1 10 4 10 6 0 11 -7 11 -15 0 -8 -9 -15 -19 -15
-30 0 -35 -19 -9 -30 l23 -10 -25 3 c-35 3 -43 67 -8 67 9 0 8 -3 -2 -10z m75
0 c-3 -5 1 -10 10 -10 9 0 13 5 10 10 -3 6 -2 10 3 10 6 0 12 -7 16 -15 4 -11
-1 -15 -19 -15 -32 0 -33 -27 -2 -33 19 -5 19 -5 -3 -4 -15 1 -26 9 -28 20 -4
20 4 47 13 47 4 0 3 -4 0 -10z m319 -6 c9 -23 7 -54 -3 -54 -5 0 -11 16 -13
35 -4 36 5 47 16 19z m36 -10 c0 -21 18 -17 25 7 4 11 9 18 12 16 9 -9 -36
-97 -49 -97 -10 0 -10 2 1 9 14 9 12 36 -4 75 -6 14 -5 17 3 12 7 -4 12 -14
12 -22z m73 14 c4 -10 8 -9 17 2 9 12 10 11 5 -8 -4 -13 -1 -29 5 -37 8 -9 8
-15 2 -15 -6 0 -12 6 -15 13 -3 9 -8 8 -23 -3 -18 -14 -18 -14 -5 3 12 15 12
23 3 38 -7 10 -8 19 -3 19 5 0 12 -6 14 -12z m301 -12 c15 26 16 27 10 4 -11
-41 -34 -80 -47 -80 -8 0 -8 3 2 9 13 8 13 19 -4 78 -3 10 1 5 9 -11 l13 -30
17 30z m47 -9 c0 -19 2 -19 11 6 12 33 23 35 33 5 l8 -23 4 23 c2 12 8 22 13
22 5 0 4 -15 -1 -32 -5 -18 -9 -34 -9 -35 0 -2 -4 -3 -9 -3 -5 0 -12 10 -15
23 l-7 22 -10 -24 c-11 -28 -24 -20 -35 23 -5 21 -4 27 5 22 6 -4 11 -17 12
-29z m161 2 c-4 -26 -2 -30 14 -27 13 2 19 12 19 31 -1 15 3 23 8 18 17 -17 3
-56 -20 -59 -13 -2 -23 -10 -23 -18 0 -8 -3 -14 -7 -14 -5 0 -8 23 -9 50 0 31
4 50 11 50 7 0 10 -12 7 -31z m1578 16 c-15 -18 -6 -45 15 -45 22 0 30 27 14
47 -12 14 -12 16 1 11 20 -6 19 -48 -1 -61 -24 -15 -49 -1 -49 26 0 25 7 37
23 37 5 0 4 -7 -3 -15z m81 -3 c-12 -22 -3 -38 24 -45 16 -5 15 -5 -4 -4 -32
3 -49 30 -32 51 18 21 24 20 12 -2z m217 -2 c-15 -24 2 -46 27 -36 12 4 16 14
12 32 -3 16 -1 22 5 16 5 -5 8 -20 6 -33 -2 -19 -9 -24 -33 -24 -21 0 -31 5
-33 18 -5 23 4 47 18 47 6 0 6 -7 -2 -20z m137 10 c-3 -5 1 -10 10 -10 9 0 13
5 10 10 -3 6 -2 10 3 10 6 0 12 -7 16 -15 4 -11 -1 -15 -19 -15 -32 0 -34 -30
-2 -31 19 -1 20 -2 3 -6 -27 -7 -49 23 -35 48 5 11 12 19 15 19 3 0 2 -4 -1
-10z m197 -25 c-2 -19 -8 -35 -13 -35 -5 0 -9 16 -9 35 0 22 5 35 13 35 9 0
12 -11 9 -35z m48 10 c-8 -22 -7 -27 13 -35 l22 -9 -22 0 c-24 -1 -42 37 -28
58 13 22 24 11 15 -14z m40 4 c0 -5 -8 -9 -17 -8 -11 0 -13 3 -5 6 6 2 9 10 6
15 -4 7 -2 8 4 4 7 -4 12 -11 12 -17z m37 14 c-4 -3 1 -15 10 -25 20 -22 6
-43 -23 -35 -16 4 -15 5 4 6 27 1 28 12 2 29 -21 13 -19 32 2 32 6 0 8 -3 5
-7z m58 -3 c-3 -6 4 -10 17 -10 19 0 20 2 8 11 -12 9 -12 10 -1 7 26 -7 24
-28 -3 -28 -32 0 -35 -27 -3 -33 19 -5 19 -5 -3 -4 -15 1 -26 9 -28 20 -4 20
4 47 13 47 4 0 3 -4 0 -10z m117 -25 c2 -19 0 -35 -4 -35 -4 0 -8 14 -8 30 0
20 -5 30 -15 30 -10 0 -15 -10 -15 -30 0 -16 -3 -30 -7 -30 -5 0 -8 16 -8 35
-1 31 2 35 26 35 23 0 27 -5 31 -35z m126 -4 c2 -27 -1 -31 -22 -31 -36 0 -42
19 -15 45 29 27 34 25 37 -14z m79 -13 c-2 -13 -4 -5 -4 17 -1 22 1 32 4 23 2
-10 2 -28 0 -40z m45 43 c-18 -11 -11 -45 9 -49 21 -4 33 26 18 44 -8 9 -8 14
-1 14 17 0 25 -40 11 -56 -16 -20 -53 -14 -57 9 -5 25 5 47 20 47 10 0 10 -2
0 -9z m126 -28 c2 -19 -1 -33 -7 -33 -6 0 -11 14 -11 30 0 42 -27 40 -33 -2
-4 -32 -4 -32 -5 5 -2 36 0 38 26 35 22 -2 28 -8 30 -35z m1396 21 c9 -23 7
-54 -3 -54 -5 0 -11 16 -13 35 -4 36 5 47 16 19z m36 -19 c0 -19 -2 -35 -4
-35 -2 0 -6 16 -8 35 -2 19 0 35 4 35 4 0 8 -16 8 -35z m33 3 c-8 -46 -13 -48
-13 -5 0 21 4 37 10 37 5 0 7 -14 3 -32z m44 -9 c1 -24 0 -26 -4 -9 -3 14 -10
31 -16 39 -10 11 -9 13 3 9 9 -3 16 -18 17 -39z m73 6 c0 -31 -3 -35 -25 -35
-31 0 -35 35 -5 45 11 4 18 11 15 16 -4 5 -1 9 4 9 6 0 11 -16 11 -35z m40 4
c0 -10 5 -19 10 -19 6 0 10 -4 10 -10 0 -22 -19 -8 -29 21 -13 39 -14 42 -1
34 6 -3 10 -15 10 -26z m31 4 c-8 -15 -10 -15 -11 -2 0 17 10 32 18 25 2 -3
-1 -13 -7 -23z m157 -19 c-3 -27 -4 -26 -9 8 -3 22 -1 34 4 29 5 -5 7 -21 5
-37z m75 19 c7 -35 2 -43 -29 -43 -29 0 -32 23 -4 43 11 8 17 17 13 20 -3 4
-2 7 4 7 6 0 13 -12 16 -27z m39 -8 c-2 -19 -8 -35 -13 -35 -5 0 -9 16 -9 35
0 22 5 35 13 35 9 0 12 -11 9 -35z m50 0 c-2 -19 -6 -35 -8 -35 -2 0 -4 16 -4
35 0 19 4 35 8 35 4 0 6 -16 4 -35z m40 0 c-2 -19 -5 -35 -7 -35 -2 0 -5 16
-7 35 -2 21 0 35 7 35 7 0 9 -14 7 -35z m46 -3 c2 -20 -1 -32 -9 -32 -6 0 -9
8 -6 19 2 10 0 26 -5 36 -8 13 -7 16 3 13 8 -3 15 -19 17 -36z m72 3 c0 -31
-3 -35 -25 -35 -31 0 -35 35 -5 45 11 4 18 11 15 16 -4 5 -1 9 4 9 6 0 11 -16
11 -35z m362 5 c-4 -26 -1 -30 18 -30 19 0 22 4 18 30 -4 28 -3 30 11 15 20
-20 3 -50 -29 -50 -31 0 -48 28 -31 49 18 21 18 21 13 -14z m90 18 c-19 -19
-14 -38 11 -48 l22 -9 -22 0 c-12 -1 -25 4 -28 10 -10 15 3 59 17 59 9 0 9 -3
0 -12z m210 -13 c-3 -19 1 -27 19 -35 l24 -10 -25 3 c-25 2 -37 25 -26 53 9
22 14 16 8 -11z m-6424 -2 c-10 -2 -28 -2 -40 0 -13 2 -5 4 17 4 22 1 32 -1
23 -4z m699 1 c-3 -3 -12 -4 -19 -1 -8 3 -5 6 6 6 11 1 17 -2 13 -5z m3020 0
c-3 -3 -12 -4 -19 -1 -8 3 -5 6 6 6 11 1 17 -2 13 -5z m8103 -40 c0 -26 -6
-51 -14 -60 -8 -8 -34 -14 -60 -14 l-46 0 0 45 c0 60 14 74 73 75 l47 0 0 -46z
m543 22 l32 29 -29 -32 -30 -33 30 -32 29 -33 -32 29 -33 30 -32 -30 -33 -29
29 33 30 32 -30 33 -29 32 33 -29 32 -30 33 30z m-12908 -6 c3 -5 1 -10 -4
-10 -6 0 -11 5 -11 10 0 6 2 10 4 10 3 0 8 -4 11 -10z m1021 -17 c-7 -7 -26 7
-26 19 0 6 6 6 15 -2 9 -7 13 -15 11 -17z m-6091 -13 c3 -5 1 -10 -4 -10 -6 0
-11 5 -11 10 0 6 2 10 4 10 3 0 8 -4 11 -10z m16838 3 c-18 -2 -48 -2 -65 0
-18 2 -4 4 32 4 36 0 50 -2 33 -4z m-11815 -10 c-10 -2 -28 -2 -40 0 -13 2 -5
4 17 4 22 1 32 -1 23 -4z m12249 -248 c32 -21 63 -74 63 -107 0 -23 -4 -28
-25 -28 -20 0 -25 -5 -24 -22 1 -17 2 -19 6 -5 6 23 23 22 23 -2 0 -23 -35
-51 -63 -51 -19 0 -19 1 -2 27 19 29 22 87 5 108 -5 6 -30 12 -55 13 -42 0
-45 -2 -53 -31 -7 -28 -12 -32 -43 -32 -27 0 -35 4 -37 22 -2 14 4 26 17 33
13 6 21 21 21 35 0 18 10 30 38 45 42 23 89 21 129 -5z m-15873 -77 c14 -41 0
-77 -40 -95 -32 -16 -38 -16 -62 -2 -55 31 -55 110 1 134 41 17 88 0 101 -37z
m14589 -8 c4 0 17 0 29 0 l22 0 -23 -16 c-19 -14 -22 -23 -18 -51 l6 -33 -29
17 c-23 13 -32 15 -42 5 -19 -19 -28 -14 -28 17 0 19 -8 35 -20 44 -20 14 -20
15 10 20 19 4 34 16 42 32 l12 26 15 -30 c9 -16 19 -30 24 -31z m833 45 c4 -8
15 -15 25 -15 12 0 19 -7 19 -20 0 -10 10 -25 22 -31 l22 -12 -22 -17 c-12
-10 -22 -25 -22 -34 0 -22 -36 -20 -49 2 -10 16 -12 16 -25 0 -19 -25 -56 -24
-56 2 0 11 7 23 15 26 8 4 15 12 15 19 0 7 -7 15 -15 19 -23 9 -19 46 5 46 11
0 23 7 26 15 4 8 13 15 20 15 8 0 17 -7 20 -15z m-16703 -25 c15 -16 23 -30
19 -30 -5 0 -18 14 -30 30 -13 17 -21 30 -19 30 2 0 16 -13 30 -30z m392 20
c5 -8 11 -7 21 1 12 9 14 6 14 -20 0 -27 -4 -31 -25 -31 -19 0 -25 5 -23 18 2
13 -4 17 -32 17 -27 0 -37 -6 -49 -26 -13 -24 -13 -29 2 -53 22 -33 62 -34 94
-4 19 18 23 19 23 5 0 -41 -81 -61 -119 -29 -56 46 -24 132 49 132 21 0 42 -5
45 -10z m378 -22 c33 -31 35 -36 29 -73 l-7 -40 -60 0 -59 0 -8 39 c-8 36 -6
42 24 73 17 18 35 33 38 33 4 0 23 -15 43 -32z m667 -33 c0 -37 -4 -65 -10
-65 -6 0 -10 28 -10 65 0 37 4 65 10 65 6 0 10 -28 10 -65z m300 0 c0 -37 -4
-65 -10 -65 -6 0 -10 28 -10 65 0 37 4 65 10 65 6 0 10 -28 10 -65z m40 40 c0
-20 5 -25 24 -25 25 0 36 -16 36 -56 0 -36 -18 -29 -22 9 -2 20 -8 32 -18 32
-10 0 -16 -12 -18 -32 -6 -59 -22 -35 -22 32 0 37 4 65 10 65 6 0 10 -11 10
-25z m15700 10 c0 -8 -7 -15 -15 -15 -8 0 -15 7 -15 15 0 8 7 15 15 15 8 0 15
-7 15 -15z m-15317 -2 c-7 -2 -19 -2 -25 0 -7 3 -2 5 12 5 14 0 19 -2 13 -5z
m101 -2 c4 -5 -3 -7 -14 -4 -23 6 -26 13 -6 13 8 0 17 -4 20 -9z m95 -5 c7 -8
11 -30 8 -48 l-4 -33 -1 37 c-1 23 -8 41 -19 47 -10 6 -13 11 -7 11 6 0 17 -6
23 -14z m13980 -3 c-8 -9 -10 -18 -4 -20 44 -15 60 -31 63 -61 3 -26 0 -32
-17 -32 -10 0 -22 6 -24 13 -3 7 -6 6 -6 -5 -1 -21 -39 -34 -54 -19 -6 6 -24
11 -39 11 -23 0 -28 4 -28 24 0 27 24 56 45 56 21 0 26 28 7 39 -13 8 -7 10
27 11 39 0 42 -2 30 -17z m-14289 -8 c0 -8 6 -15 13 -16 10 0 10 -2 0 -6 -7
-2 -13 -17 -13 -33 0 -16 6 -31 13 -33 6 -3 2 -6 -9 -6 -18 -1 -23 6 -26 37
-1 21 -2 45 0 55 4 21 22 23 22 2z m227 -27 c-3 -8 -6 -5 -6 6 -1 11 2 17 5
13 3 -3 4 -12 1 -19z m-2740 5 c-4 -3 0 -17 9 -31 8 -13 14 -26 11 -28 -8 -8
-38 46 -32 56 3 6 9 10 12 10 4 0 3 -3 0 -7z m1998 -33 c0 -32 -3 -35 -32 -38
-38 -4 -56 20 -42 56 7 19 15 23 41 20 30 -3 33 -6 33 -38z m65 31 c-18 -5
-25 -14 -25 -31 0 -17 7 -26 25 -31 l25 -7 -25 -1 c-29 -1 -50 15 -50 39 0 24
21 40 50 39 l25 -1 -25 -7z m98 -33 c3 -37 3 -38 -32 -38 -29 0 -36 4 -36 20
0 11 4 20 8 20 5 0 17 7 28 16 19 15 18 15 -3 11 -13 -3 -23 -1 -23 5 0 5 12
8 28 6 23 -3 27 -8 30 -40z m232 27 c27 -33 -8 -73 -53 -61 -47 11 -31 76 19
76 12 0 27 -7 34 -15z m63 8 c-28 -5 -29 -19 -3 -33 32 -17 25 -40 -12 -39
-24 1 -27 3 -10 6 27 5 28 10 0 32 -26 22 -16 41 20 40 24 -2 24 -2 5 -6z
m15102 -23 c0 -7 -6 -15 -12 -17 -8 -3 -13 4 -13 17 0 13 5 20 13 18 6 -3 12
-11 12 -18z m385 5 c0 -8 -7 -15 -15 -15 -8 0 -15 7 -15 15 0 8 7 15 15 15 8
0 15 -7 15 -15z m-17450 1 c0 -3 -4 -8 -10 -11 -5 -3 -10 -1 -10 4 0 6 5 11
10 11 6 0 10 -2 10 -4z m17107 -38 c-3 -8 -6 -5 -6 6 -1 11 2 17 5 13 3 -3 4
-12 1 -19z m-17156 -21 c-10 -9 -11 -8 -5 6 3 10 9 15 12 12 3 -3 0 -11 -7
-18z m17043 -3 c9 -23 7 -34 -4 -34 -5 0 -10 8 -10 18 0 13 -2 14 -9 3 -5 -7
-14 -10 -20 -6 -9 5 -7 11 6 21 23 18 30 17 37 -2z m456 1 c0 -8 -7 -15 -15
-15 -8 0 -15 7 -15 15 0 8 7 15 15 15 8 0 15 -7 15 -15z m-16611 -435 c85 -16
160 -59 236 -135 57 -57 76 -83 97 -140 66 -169 39 -346 -73 -483 -88 -108
-208 -162 -357 -162 -102 0 -162 16 -242 65 -263 160 -303 524 -81 733 115
109 263 152 420 122z m15935 -182 c24 -34 24 -503 -1 -530 -15 -17 -50 -18
-706 -18 -628 0 -692 1 -709 17 -16 15 -18 37 -18 265 0 235 1 249 20 268 20
20 33 20 709 20 l690 0 15 -22z m-14861 -20 c15 -11 18 -39 24 -190 7 -199 5
-208 -56 -208 -66 0 -66 -1 -66 202 l0 182 25 13 c32 16 52 16 73 1z m1731 6
c9 -4 19 -23 22 -45 5 -31 11 -39 28 -39 56 -1 62 -49 8 -65 l-32 -9 0 -117
c0 -128 0 -129 -65 -129 -18 0 -37 6 -43 13 -7 7 -12 85 -13 196 -2 198 -2
201 53 201 14 0 34 -3 42 -6z m-1934 -42 c31 -24 38 -74 14 -110 -14 -21 -15
-27 -3 -31 26 -8 69 -59 70 -83 3 -48 -3 -64 -31 -90 -36 -34 -87 -48 -171
-48 -98 0 -98 1 -106 166 -3 77 -3 153 1 167 8 32 37 49 96 57 52 7 95 -2 130
-28z m1337 16 c6 -5 17 -50 24 -101 14 -99 13 -100 34 26 8 50 42 68 80 43 14
-9 25 -25 25 -36 0 -27 -58 -268 -70 -291 -13 -22 -76 -27 -102 -6 -24 18
-105 334 -91 355 18 29 69 34 100 10z m-879 -117 c47 -24 66 -46 82 -94 32
-100 -32 -167 -160 -167 -60 0 -91 17 -113 62 -38 78 11 189 93 208 52 12 58
12 98 -9z m329 -1 c38 -23 67 -64 60 -85 -14 -34 -101 -31 -112 5 -10 31 -32
24 -45 -15 -23 -69 12 -128 52 -85 12 12 32 20 53 20 74 0 85 -24 29 -67 -29
-21 -50 -28 -100 -31 -56 -4 -69 -1 -103 21 -29 19 -41 36 -51 71 -21 75 4
131 73 165 53 26 103 27 144 1z m377 14 c28 -11 18 -35 -35 -83 l-52 -48 61
-42 c64 -46 75 -60 62 -81 -15 -25 -73 -16 -123 18 -47 33 -47 33 -47 9 0 -32
-18 -47 -55 -47 -45 0 -60 23 -75 115 -7 44 -15 92 -17 107 -4 22 0 30 21 40
33 14 74 2 90 -27 6 -11 12 -22 13 -24 1 -2 21 13 43 33 39 35 75 45 114 30z
m570 -17 c53 -30 78 -67 83 -124 6 -57 -19 -96 -73 -119 -49 -21 -133 -18
-171 6 -61 37 -67 142 -12 205 48 55 113 67 173 32z m556 5 c30 -14 35 -23 38
-55 2 -27 -2 -45 -15 -59 -22 -25 -73 -48 -108 -48 -16 0 -25 -6 -25 -15 0
-25 22 -27 65 -5 46 23 65 25 89 7 53 -39 -39 -93 -144 -85 -54 4 -65 9 -97
40 -31 31 -37 45 -41 91 -5 66 16 113 61 132 45 20 135 19 177 -3z m10650 -39
l0 -47 30 29 c17 16 30 24 30 18 0 -6 -7 -16 -15 -23 -20 -17 -19 -30 7 -57
15 -17 17 -23 7 -23 -8 0 -20 9 -27 20 -7 11 -17 20 -22 20 -6 0 -10 -9 -10
-20 0 -11 -4 -20 -10 -20 -6 0 -10 32 -10 75 0 43 4 75 10 75 6 0 10 -21 10
-47z m-2140 7 c0 -28 2 -30 40 -30 38 0 40 2 40 30 0 17 5 30 10 30 6 0 10
-30 10 -70 0 -70 -16 -98 -22 -37 -3 29 -6 32 -38 32 -32 0 -35 -3 -38 -32 -6
-61 -22 -33 -22 37 0 40 4 70 10 70 6 0 10 -13 10 -30z m1120 -6 c0 -23 3 -25
38 -22 32 3 37 7 40 31 6 51 22 16 22 -49 0 -66 -16 -90 -22 -31 -3 29 -6 32
-40 35 -37 3 -38 3 -38 -32 0 -20 -4 -36 -10 -36 -6 0 -10 30 -10 71 0 44 4
68 10 64 6 -3 10 -17 10 -31z m641 -24 c7 -28 16 -50 19 -50 3 0 12 22 19 50
7 27 17 52 21 55 5 3 17 -21 28 -52 20 -58 20 -58 31 -30 6 16 11 36 11 45 0
21 17 48 25 41 11 -11 -35 -139 -50 -139 -8 0 -15 6 -15 13 0 27 -22 89 -29
81 -4 -5 -13 -28 -20 -52 -7 -24 -17 -42 -24 -39 -9 3 -46 105 -47 130 0 25
20 -10 31 -53z m-109 12 c-16 -5 -16 -79 1 -85 7 -3 5 -6 -5 -6 -18 -1 -22 11
-18 61 1 14 -3 29 -9 33 -7 4 -7 10 1 19 10 11 15 10 28 -2 11 -12 12 -16 2
-20z m-1444 6 c14 -14 16 -67 3 -86 -5 -8 -22 -12 -42 -10 -32 3 -34 6 -37 41
-2 21 2 45 9 53 14 17 51 18 67 2z m178 -48 c2 -54 2 -54 -5 -10 -5 36 -10 45
-26 45 -16 0 -21 -8 -23 -42 -4 -57 -22 -55 -22 2 0 38 -3 45 -20 45 -17 0
-20 -7 -20 -45 0 -25 -4 -45 -10 -45 -5 0 -10 24 -10 53 l0 53 68 -1 67 0 1
-55z m110 52 c6 -4 14 -17 18 -29 7 -21 4 -23 -34 -23 -34 0 -41 -3 -38 -17 3
-13 13 -18 36 -17 18 1 32 -2 32 -7 0 -5 -16 -9 -35 -9 -36 0 -55 20 -55 59 0
37 45 64 76 43z m828 -8 c22 -21 20 -60 -4 -84 -31 -31 -80 -6 -80 41 0 32 23
59 50 59 10 0 26 -7 34 -16z m51 -35 c8 -45 15 -44 30 8 13 45 28 44 38 -1 9
-35 27 -50 27 -22 0 20 19 70 25 65 9 -10 -22 -104 -35 -104 -7 0 -18 18 -25
40 l-11 40 -10 -39 c-14 -57 -30 -55 -48 5 -19 62 -19 62 -7 55 5 -4 12 -24
16 -47z m215 -4 c0 -30 -3 -55 -7 -55 -5 0 -7 24 -6 52 2 62 2 58 8 58 3 0 5
-25 5 -55z m426 30 c20 -30 7 -78 -22 -83 -18 -4 -18 -3 -1 10 13 9 18 24 15
43 -2 24 -8 30 -28 30 -20 0 -26 -6 -28 -28 -2 -16 2 -35 9 -43 14 -17 -2 -19
-19 -2 -17 17 -15 64 4 82 23 23 51 20 70 -9z m84 15 c0 -4 -7 -10 -15 -14
-10 -3 -15 -19 -15 -46 0 -22 -4 -40 -10 -40 -5 0 -10 24 -10 53 0 48 2 52 25
53 14 1 25 -2 25 -6z m184 4 c9 -3 16 -10 16 -15 0 -6 -7 -6 -18 0 -21 11 -48
-2 -38 -18 4 -6 15 -11 25 -11 24 0 45 -25 37 -45 -6 -17 -71 -21 -81 -6 -3 6
9 7 30 4 27 -4 35 -2 35 10 0 9 -10 19 -22 23 -38 11 -49 24 -37 45 10 20 26
23 53 13z m2886 -1679 c0 -718 -3 -905 -12 -905 -35 2 -118 27 -111 34 4 4 1
6 -7 4 -8 -2 -14 2 -15 9 0 20 -12 24 -39 12 -28 -13 -33 -25 -13 -32 6 -2
-10 -8 -38 -12 -45 -7 -107 -35 -77 -35 6 0 12 -4 12 -10 0 -5 -9 -10 -21 -10
-14 0 -19 5 -16 13 4 10 -1 13 -16 10 -12 -2 -211 -8 -442 -12 l-420 -8 400
-3 c293 -2 377 -5 315 -11 -47 -5 -155 -16 -240 -26 -85 -9 -195 -20 -245 -23
-152 -11 -333 -31 -480 -52 -77 -11 -169 -24 -205 -28 -36 -5 -76 -11 -90 -14
-14 -3 -95 -15 -180 -26 -85 -11 -184 -29 -220 -39 -36 -10 -105 -25 -155 -31
-49 -7 -102 -19 -117 -27 -15 -7 -44 -13 -65 -13 -21 -1 -56 -7 -78 -15 -22
-8 -48 -15 -59 -15 -10 0 -65 -14 -123 -31 -58 -16 -127 -33 -154 -36 -27 -3
-52 -10 -55 -14 -3 -5 -20 -9 -38 -9 -17 0 -36 -4 -41 -9 -9 -9 -109 -40 -197
-62 -20 -5 -61 -17 -90 -28 -29 -11 -80 -27 -112 -36 -32 -9 -68 -22 -80 -30
-12 -7 -39 -18 -61 -25 -22 -7 -63 -23 -92 -36 -28 -13 -57 -24 -64 -24 -7 0
-31 -8 -53 -18 -122 -55 -132 -57 -306 -54 -240 5 -579 -19 -700 -48 -19 -5
-73 -16 -120 -25 -294 -56 -672 -206 -960 -380 -52 -32 -110 -66 -127 -77 -18
-11 -33 -23 -33 -27 0 -4 -10 -12 -22 -18 -44 -20 -182 -130 -337 -269 -76
-67 -94 -85 -177 -178 -43 -49 -88 -99 -99 -110 -32 -33 -95 -112 -95 -119 0
-4 -7 -15 -15 -24 -19 -23 -77 -102 -90 -121 -106 -165 -255 -435 -255 -464 0
-8 -9 -23 -20 -33 -22 -20 -60 -114 -60 -149 0 -13 -7 -40 -16 -61 -18 -44
-15 -80 7 -80 15 0 49 -27 49 -39 0 -3 -11 -6 -25 -6 -38 0 -83 -26 -98 -58
-20 -38 -29 -80 -18 -86 10 -7 231 52 248 66 16 13 27 70 18 97 -6 21 -35 30
-35 11 0 -14 -43 -12 -64 3 -16 12 -16 13 1 29 20 18 125 48 167 48 17 0 26
-5 26 -16 0 -10 5 -12 13 -7 6 4 20 9 30 10 24 4 54 40 62 75 6 26 -21 94 -52
129 -12 15 -12 22 6 55 12 21 21 44 21 51 0 22 22 62 38 68 17 6 101 -54 102
-72 0 -7 7 -13 14 -13 8 0 57 -23 108 -52 197 -109 196 -108 209 -92 6 8 22
14 35 14 43 0 15 27 -64 61 -42 18 -86 40 -97 50 -29 25 -81 49 -105 49 -11 0
-20 4 -20 9 0 5 -14 12 -31 16 -41 9 -139 54 -139 64 0 5 10 24 23 42 13 19
30 49 38 67 7 17 17 32 20 32 4 0 12 14 19 31 12 28 16 30 44 24 57 -13 121
-9 150 10 56 37 74 139 36 200 -15 25 -18 39 -11 56 12 30 133 149 152 149 8
0 44 -35 79 -77 36 -42 94 -109 130 -148 98 -107 120 -134 120 -145 0 -6 47
-59 104 -118 57 -59 120 -126 141 -150 28 -32 47 -44 77 -48 22 -4 45 -12 52
-19 6 -7 22 -15 33 -19 23 -8 21 -34 -4 -49 -20 -12 -16 -30 19 -75 22 -28 40
-42 56 -42 56 0 232 33 231 44 -2 35 -169 131 -184 106 -3 -6 -14 -10 -23 -9
-12 0 -10 3 6 10 23 9 22 29 0 29 -7 0 -21 9 -32 19 -12 11 -34 22 -50 25 -44
8 -45 17 0 12 21 -2 33 -2 27 1 -7 2 -13 10 -13 18 0 7 -21 32 -47 55 -93 82
-153 143 -158 160 -3 9 -18 23 -33 30 -15 8 -46 29 -69 47 -23 18 -45 33 -50
33 -4 0 -52 37 -104 83 -53 45 -140 118 -192 162 -53 44 -96 85 -96 90 0 12
66 85 77 85 4 0 23 16 42 35 39 40 48 42 81 16 50 -38 135 -31 177 17 32 36
47 95 36 135 -6 17 -8 39 -6 48 3 17 103 89 122 89 5 0 10 5 10 10 0 6 9 10
19 10 14 0 37 -35 91 -142 40 -79 76 -147 80 -153 12 -14 56 -131 72 -188 7
-27 25 -63 40 -80 15 -16 30 -39 34 -49 3 -10 10 -18 15 -18 5 0 9 -11 9 -24
0 -13 15 -43 33 -67 18 -24 54 -88 81 -142 59 -120 80 -145 121 -142 17 2 36
3 43 4 6 1 12 7 12 15 0 24 21 30 27 7 3 -12 12 -21 19 -21 11 0 14 -17 14
-69 l0 -70 -37 -3 c-49 -4 -54 -32 -19 -93 l26 -44 -22 -4 c-13 -2 4 -5 37 -6
87 -2 226 20 232 36 10 26 -59 110 -114 139 -39 20 -53 33 -53 49 0 12 -12 44
-27 71 -14 27 -33 63 -41 79 -8 17 -40 67 -71 113 -86 128 -91 136 -91 150 0
7 -5 18 -10 25 -42 50 -50 63 -50 84 0 12 -6 23 -13 23 -8 0 -19 11 -25 25 -6
14 -16 25 -22 25 -5 0 -10 6 -10 14 0 8 -7 21 -15 30 -8 8 -19 26 -25 41 -5
14 -14 24 -19 21 -13 -8 -69 59 -159 192 -42 63 -87 129 -99 146 -12 17 -22
37 -22 43 -1 12 147 93 169 93 6 0 22 -13 35 -29 28 -32 100 -57 136 -46 71
22 122 93 117 164 l-3 42 70 24 c96 33 101 33 113 -17 31 -124 43 -192 42
-235 -2 -53 6 -96 21 -124 5 -10 7 -44 4 -76 -3 -41 -2 -51 4 -33 8 23 9 24
10 3 1 -12 6 -25 11 -28 6 -4 10 -14 9 -23 -3 -34 1 -53 11 -47 6 4 10 -8 10
-30 0 -42 28 -135 41 -135 5 0 9 -11 9 -25 0 -14 9 -58 19 -98 11 -39 25 -99
31 -132 7 -33 20 -73 30 -90 10 -16 21 -51 24 -77 4 -26 11 -50 16 -53 4 -3
11 -27 15 -54 5 -39 10 -49 23 -47 10 2 28 0 42 -5 21 -6 18 -7 -16 -8 -49 -1
-58 -18 -44 -90 12 -64 19 -79 38 -83 18 -4 135 7 190 17 36 7 36 2 18 90 -7
35 -22 63 -44 83 -19 19 -27 21 -33 10 -6 -8 -9 4 -9 32 0 25 -7 55 -15 67 -8
12 -17 38 -20 57 -2 20 -11 44 -20 52 -9 10 -15 34 -15 63 0 29 -10 70 -23
102 -13 30 -36 90 -52 134 -15 44 -31 85 -36 90 -4 6 -11 35 -15 65 -4 30 -8
60 -8 65 -1 6 -8 20 -14 33 -10 18 -10 22 0 20 7 -2 13 6 13 17 0 11 -6 19
-12 18 -13 -3 -17 8 -13 40 2 23 -18 47 -34 41 -8 -3 -17 11 -25 38 -7 24 -18
52 -23 63 -11 25 5 73 27 81 8 4 15 10 15 14 0 9 -44 5 -60 -5 -21 -13 -50 38
-105 185 -10 25 -19 50 -21 56 -3 6 6 15 18 21 40 18 222 56 225 47 21 -64 82
-116 158 -135 l30 -7 -31 -1 c-25 -1 -34 -7 -44 -30 -15 -38 -8 -49 30 -43 29
4 30 3 30 -37 0 -39 -1 -41 -31 -41 -38 0 -66 25 -50 44 9 10 8 15 -4 20 -8 3
-15 13 -15 21 0 21 -29 16 -43 -7 -16 -25 10 -68 40 -68 21 0 23 -5 23 -45 0
-45 0 -45 -35 -45 -33 0 -35 -2 -35 -35 0 -28 -4 -35 -20 -35 -13 0 -20 -7
-20 -20 0 -14 6 -20 18 -18 15 3 17 -8 20 -84 2 -79 5 -88 22 -88 12 0 26 12
35 30 9 18 23 30 35 30 11 0 20 5 20 10 0 6 7 10 15 10 8 0 15 7 15 16 0 9 9
18 20 21 11 3 20 9 20 13 0 5 10 12 23 17 28 10 92 79 101 110 4 14 12 20 22
16 7 -3 14 0 14 6 0 6 3 10 8 10 23 -4 31 4 34 34 3 32 4 32 56 32 46 0 54 -3
58 -22 3 -12 -2 -135 -11 -273 -9 -139 -13 -282 -10 -319 10 -107 -11 -437
-29 -463 -19 -26 -23 -174 -5 -180 10 -3 166 10 207 18 21 4 22 9 22 96 0 70
-4 96 -16 109 -21 24 -43 302 -43 562 0 103 -3 192 -6 197 -9 15 -23 303 -18
355 5 37 8 43 19 34 11 -9 14 -8 14 4 0 10 14 18 40 22 22 4 42 11 46 16 3 5
12 9 20 9 8 0 27 11 42 25 25 24 33 25 121 23 69 -2 95 0 98 10 3 6 10 12 16
12 7 0 25 16 41 36 27 35 29 35 80 29 96 -12 126 -24 126 -48 0 -25 -33 -131
-69 -220 -6 -15 -11 -47 -11 -71 0 -23 -3 -46 -7 -50 -10 -10 -31 -77 -48
-155 -8 -35 -18 -68 -23 -75 -5 -6 -14 -31 -21 -56 -7 -25 -17 -54 -21 -65
-17 -40 -60 -192 -60 -208 0 -10 -4 -26 -10 -37 -5 -11 -14 -29 -20 -40 -5
-11 -10 -27 -10 -35 0 -8 -4 -23 -9 -33 -5 -9 -17 -44 -27 -77 -9 -33 -34 -85
-54 -115 -33 -49 -62 -130 -77 -214 l-6 -29 107 6 c113 7 149 19 154 52 6 52
31 182 37 196 3 10 -1 24 -12 34 -13 13 -14 20 -5 23 7 2 12 21 12 45 0 23 7
74 15 112 9 39 20 99 25 135 6 36 13 72 16 80 7 19 51 255 70 375 14 94 25
136 54 220 10 28 24 85 31 128 14 84 16 86 79 66 19 -6 62 -17 95 -23 l60 -12
8 -59 c8 -55 12 -62 49 -89 36 -24 48 -28 94 -24 42 4 58 11 84 36 17 18 34
32 37 32 16 0 135 -64 168 -90 21 -16 43 -30 50 -30 19 0 150 -78 175 -105 18
-19 20 -27 11 -43 -6 -12 -11 -31 -11 -44 0 -28 34 -87 63 -110 29 -23 109
-24 143 -1 19 12 32 14 49 7 14 -5 82 -66 152 -136 179 -176 171 -167 161
-206 -5 -18 -17 -38 -28 -45 -15 -9 -20 -23 -20 -54 0 -24 5 -43 10 -43 6 0
10 -9 10 -21 0 -12 8 -23 20 -26 11 -3 20 -9 20 -14 0 -21 64 -41 116 -37 38
3 55 1 58 -9 3 -7 20 -20 38 -29 31 -14 73 -65 91 -108 6 -16 15 -17 80 -12
140 13 169 21 137 41 -6 4 -22 29 -36 56 -20 40 -23 54 -13 65 8 10 8 14 0 14
-17 0 -13 14 9 38 l21 22 -36 0 c-31 0 -37 4 -46 30 -6 17 -15 30 -20 30 -18
0 -107 75 -120 102 -8 15 -36 53 -64 85 -79 94 -380 388 -448 439 -34 26 -66
52 -72 58 -5 6 -23 20 -40 30 -16 11 -34 25 -38 33 -4 7 -14 13 -20 13 -7 0
-35 17 -63 38 -28 21 -67 46 -86 55 -19 9 -41 23 -48 32 -7 8 -42 30 -79 48
-36 19 -93 48 -126 66 -33 17 -63 31 -66 31 -13 0 -157 70 -161 78 -3 9 -128
62 -144 62 -6 0 -28 9 -50 19 l-39 19 30 12 c84 33 120 42 264 64 86 14 217
30 291 36 74 7 138 14 141 15 3 2 124 13 270 24 145 11 338 26 429 33 210 16
1124 15 1375 -2 99 -7 255 -14 348 -17 l167 -5 0 -2259 c0 -1242 -3 -2259 -7
-2259 -15 0 -123 54 -123 62 0 4 -6 8 -14 8 -17 0 -149 72 -192 105 -18 14
-39 25 -47 25 -8 0 -18 7 -21 16 -6 14 -50 16 -446 12 -436 -4 -439 -4 -442
17 -3 19 -10 20 -182 23 -187 3 -195 1 -196 -41 0 -17 7 -29 43 -68 22 -24 22
-51 0 -78 -15 -19 -32 -23 -107 -28 -69 -4 -92 -2 -100 8 -6 8 -24 19 -41 24
-16 6 -30 17 -30 24 0 8 -9 15 -20 17 -29 4 -150 77 -136 82 24 8 9 22 -23 22
-19 0 -53 9 -77 20 -64 28 -239 28 -239 -1 0 -5 71 -43 157 -84 159 -77 172
-83 231 -107 17 -7 32 -16 32 -19 0 -4 -47 -10 -105 -14 -58 -4 -105 -11 -105
-15 0 -5 -21 -10 -47 -13 -52 -6 -229 -40 -253 -49 -29 -11 -158 -38 -181 -38
-15 0 -36 13 -54 34 -16 18 -76 83 -132 144 -57 61 -103 115 -103 120 0 4 -14
16 -32 26 -28 17 -45 18 -161 13 -71 -4 -132 -9 -134 -11 -9 -9 12 -35 52 -64
22 -16 75 -60 117 -98 42 -38 117 -105 167 -148 91 -80 98 -95 44 -96 -12 0
-39 -9 -58 -20 -34 -19 -48 -29 -80 -57 -7 -7 -16 -13 -19 -13 -10 0 -65 -64
-71 -82 -8 -22 -25 -24 -25 -3 0 8 -9 20 -20 27 -11 7 -20 19 -20 27 0 12
-173 356 -229 454 -12 21 -19 42 -16 47 9 15 -26 20 -145 20 -69 0 -121 -4
-125 -10 -13 -20 58 -145 209 -368 205 -304 201 -298 220 -318 10 -10 16 -27
13 -40 -2 -15 0 -21 9 -17 6 2 15 0 19 -6 4 -8 -51 -11 -182 -11 l-189 0 -12
58 c-7 32 -12 70 -12 85 0 15 -4 27 -9 27 -5 0 -11 19 -14 43 -5 47 -54 251
-67 282 -5 11 -11 40 -15 64 -3 23 -19 72 -35 107 -17 35 -30 68 -30 74 0 12
-9 13 -115 10 -46 -1 -85 -7 -92 -13 -17 -18 31 -249 70 -338 25 -58 46 -113
52 -139 4 -14 12 -38 20 -55 28 -63 55 -141 55 -157 0 -9 5 -20 10 -23 32 -20
-5 -25 -171 -25 l-182 0 7 78 c12 136 18 403 11 529 -8 141 -1 134 -125 126
l-80 -6 -10 -36 c-5 -20 -10 -56 -10 -81 0 -25 -5 -62 -9 -84 -6 -23 -6 -75 0
-130 5 -50 12 -160 17 -243 l7 -153 -149 0 c-131 0 -147 2 -136 15 7 8 19 15
27 15 8 0 13 6 10 13 -2 6 -10 11 -16 10 -21 -5 -19 0 80 292 49 146 92 356
75 368 -6 4 -38 6 -70 3 -32 -4 -73 -6 -91 -6 -17 0 -39 -6 -48 -12 -26 -19
-55 -108 -83 -253 -13 -71 -33 -168 -44 -215 -10 -47 -21 -112 -25 -144 -11
-92 1 -86 -164 -84 -80 1 -122 3 -93 5 38 3 52 8 52 19 0 25 -26 44 -62 44
l-33 0 3 50 c2 27 8 50 12 50 5 0 12 10 16 22 11 39 25 51 38 33 9 -12 11 -7
11 24 1 21 7 45 15 54 31 32 48 56 55 76 3 11 12 27 19 33 18 19 82 124 112
186 14 28 30 52 35 52 5 0 9 9 9 20 0 18 -6 20 -62 19 -160 -1 -238 -20 -238
-58 0 -6 -13 -32 -30 -58 -16 -26 -30 -53 -30 -61 0 -8 -13 -37 -30 -64 -16
-26 -30 -57 -30 -68 0 -11 -3 -20 -8 -20 -9 0 -38 -55 -47 -90 -18 -68 -69
-151 -79 -128 -3 7 -3 -4 0 -24 4 -23 2 -38 -4 -38 -5 0 -13 -10 -16 -23 l-7
-22 -9 21 c-4 12 -15 24 -24 27 -13 5 -16 22 -16 77 l0 70 -41 0 c-39 0 -41 2
-37 25 3 14 1 25 -4 25 -6 0 -8 -26 -6 -59 1 -33 0 -57 -4 -54 -5 2 -8 31 -8
64 0 56 -1 59 -25 59 -14 0 -25 5 -25 10 0 6 -9 10 -20 10 -11 0 -20 6 -20 14
0 7 -8 16 -19 19 -22 5 -67 -26 -57 -41 3 -6 -4 -20 -16 -31 -12 -12 -16 -21
-10 -21 7 0 12 -4 12 -10 0 -15 -30 -12 -31 3 0 9 -2 9 -6 0 -2 -7 -16 -13
-30 -13 l-26 0 31 29 c16 16 28 32 25 35 -3 3 6 11 21 17 14 7 26 16 26 20 0
5 12 15 28 23 15 8 23 15 19 16 -5 0 -5 5 -2 10 5 8 11 8 20 0 8 -7 15 -7 19
-1 4 5 2 13 -4 16 -10 6 43 65 59 65 3 1 26 21 51 46 25 24 66 61 92 82 81 64
72 69 -106 52 -126 -12 -151 -23 -203 -87 -21 -25 -57 -67 -80 -91 l-43 -45 0
31 c0 30 -1 30 -26 18 -38 -20 -65 -10 -61 23 3 17 10 26 21 25 9 -1 16 4 16
12 0 8 9 14 20 14 13 0 20 7 20 20 0 18 7 20 69 20 48 0 72 4 81 15 10 12 7
13 -22 5 -18 -6 -61 -10 -95 -10 -34 0 -64 -4 -68 -9 -3 -6 -35 -10 -70 -10
-46 0 -70 -4 -81 -15 -15 -16 -39 -13 -29 3 6 11 -137 1 -152 -11 -7 -5 -25
-7 -41 -3 -16 3 -39 2 -53 -3 -13 -6 -46 -6 -74 -2 -51 9 -186 -4 -216 -20
-21 -12 -90 -19 -244 -25 -124 -5 -198 -15 -250 -33 -16 -6 -82 -16 -145 -22
-63 -6 -135 -15 -160 -20 -25 -5 -92 -14 -150 -20 -58 -6 -136 -15 -175 -20
-38 -5 -95 -11 -125 -15 -110 -12 -266 -49 -335 -80 -16 -7 -61 -25 -98 -39
-37 -14 -80 -32 -95 -40 -15 -8 -81 -41 -147 -74 -66 -33 -120 -66 -120 -73 0
-9 35 -20 110 -35 l110 -22 -4166 -1 -4166 -1 -42 45 c-47 51 -61 81 -61 130
0 119 127 216 570 440 370 187 569 324 619 428 26 53 26 90 2 142 -17 37 -91
116 -166 178 -45 37 -178 122 -214 136 -17 8 -34 23 -37 35 -3 13 -34 39 -77
65 -63 38 -202 136 -217 151 -3 3 -27 23 -55 44 -27 22 -96 87 -151 145 -100
103 -102 105 -128 92 -40 -22 -145 -132 -176 -187 -42 -72 -55 -162 -36 -255
8 -41 17 -83 19 -94 50 -198 57 -236 57 -327 0 -147 -38 -220 -159 -306 -79
-56 -372 -349 -483 -482 -99 -119 -160 -236 -166 -321 l-4 -59 -359 0 -359 0
0 3805 0 3805 9195 0 9195 0 0 -905z m-4452 -1911 c23 -5 28 -10 25 -25 -3
-10 -9 -19 -14 -19 -5 0 -9 -11 -9 -25 0 -17 -6 -25 -17 -26 -17 -1 -17 -2 0
-6 12 -3 17 -15 17 -44 0 -37 -2 -39 -31 -39 -28 0 -31 3 -26 26 3 20 -1 28
-19 36 -23 11 -23 12 -8 36 11 17 13 27 5 35 -17 17 -13 45 7 50 27 7 37 7 70
1z m-415 -579 c-7 -21 -13 -19 -13 6 0 11 4 18 10 14 5 -3 7 -12 3 -20z m-696
-1061 c-3 -3 -12 -4 -19 -1 -8 3 -5 6 6 6 11 1 17 -2 13 -5z m4279 -2460 c-4
-13 -13 -24 -21 -24 -19 0 -19 24 -2 42 8 7 12 20 10 28 -3 9 0 8 7 -3 7 -10
9 -29 6 -43z m174 -124 c0 -5 -7 -10 -15 -10 -8 0 -15 5 -15 10 0 6 7 10 15
10 8 0 15 -4 15 -10z m-5046 -29 c3 -5 -1 -11 -9 -15 -18 -6 -45 2 -45 15 0
12 47 12 54 0z m233 -97 c-3 -3 -12 -4 -19 -1 -8 3 -5 6 6 6 11 1 17 -2 13 -5z
m20 -28 c-7 -14 -13 -23 -15 -21 -7 6 9 45 18 45 4 0 3 -11 -3 -24z m-9 -44
c19 -17 19 -19 4 -28 -25 -14 -62 -6 -62 15 0 35 25 41 58 13z m262 -117 c-7
-8 -20 -15 -29 -14 -10 0 -8 4 8 10 16 6 21 14 16 27 -5 13 -4 14 6 5 10 -10
9 -15 -1 -28z m-1164 -240 c17 -13 -8 -14 -220 -15 -132 0 -236 3 -233 7 4 4
101 10 215 13 114 4 210 7 213 8 3 1 14 -5 25 -13z m533 -11 c2 -2 -43 -4
-100 -4 -63 0 -99 4 -90 9 12 8 180 3 190 -5z m1086 6 c3 -5 1 -10 -4 -10 -6
0 -11 5 -11 10 0 6 2 10 4 10 3 0 8 -4 11 -10z m-278 -6 c-3 -3 -12 -4 -19 -1
-8 3 -5 6 6 6 11 1 17 -2 13 -5z m4303 -134 c0 -27 -4 -50 -10 -50 -5 0 -10
18 -10 41 0 24 -4 38 -10 34 -5 -3 -10 -2 -10 4 0 9 15 18 33 20 4 1 7 -21 7
-49z m87 34 c3 -9 -5 -27 -22 -44 l-27 -28 28 -5 c28 -4 28 -4 -3 -6 -38 -1
-45 21 -13 41 27 17 26 46 -2 51 -20 4 -19 4 5 6 17 0 30 -5 34 -15z m86 9
c-29 -5 -30 -23 -2 -30 15 -4 19 -12 17 -32 -2 -21 -9 -26 -33 -28 -27 -2 -28
-1 -6 5 32 10 39 32 12 39 -14 3 -21 13 -21 29 0 20 5 24 28 23 23 -2 24 -2 5
-6z m80 0 c-29 -6 -30 -29 -2 -36 15 -4 20 -12 17 -29 -2 -18 -10 -23 -33 -25
-27 -2 -28 -1 -6 5 34 10 37 30 7 42 -16 6 -26 17 -26 30 0 16 6 20 33 19 23
-1 26 -3 10 -6z m-10613 -48 c42 -40 56 -87 40 -136 -12 -34 -16 -38 -41 -35
-20 2 -29 -1 -29 -11 0 -19 -27 -28 -45 -13 -8 7 -22 9 -32 5 -35 -15 -51 -11
-62 13 -7 15 -17 22 -26 18 -38 -14 -44 94 -7 141 47 61 148 69 202 18z m2941
3 c57 -32 59 -34 59 -75 0 -23 -4 -45 -10 -48 -5 -3 -11 -18 -11 -33 -1 -23
-2 -23 -6 -5 -6 32 -28 47 -45 30 -7 -7 -25 -16 -38 -20 -20 -5 -28 -2 -35 16
-7 14 -19 22 -35 22 -35 0 -70 26 -70 52 0 16 15 31 58 57 31 19 61 35 65 35
5 1 35 -14 68 -31z m-3535 1 c8 -6 14 -19 14 -27 0 -22 -50 -72 -73 -72 -13 0
-17 -5 -12 -19 4 -15 -3 -21 -39 -31 -25 -7 -55 -10 -68 -7 -19 5 -23 14 -26
55 -2 39 2 52 21 70 49 46 145 62 183 31z m1185 -19 c41 -39 41 -40 37 -95 -3
-40 -11 -62 -28 -80 -64 -69 -172 -48 -219 42 -15 30 -14 59 6 100 21 45 67
73 120 73 35 0 49 -6 84 -40z m619 25 l30 -16 0 -100 c0 -94 -1 -100 -22 -108
-16 -6 -25 -4 -31 5 -9 15 -19 234 -11 234 3 0 18 -7 34 -15z m543 -21 l67 -6
0 -89 c0 -70 -3 -89 -14 -89 -32 0 -42 11 -38 39 2 16 0 31 -5 34 -5 3 -8 -13
-8 -36 l0 -42 -62 0 c-33 0 -59 3 -56 8 10 16 -9 28 -21 12 -7 -10 -21 -16
-32 -13 -16 3 -19 13 -22 68 -2 36 0 80 3 98 l6 34 57 -6 c31 -4 87 -9 125
-12z m1845 -66 l-2 -83 -3 73 -4 72 -119 0 c-115 0 -119 -1 -123 -22 -3 -17
-5 -14 -6 10 l-1 32 130 0 130 0 -2 -82z m-10078 27 l0 -45 -50 0 -50 0 0 39
c0 40 0 40 43 44 23 2 45 4 50 5 4 1 7 -18 7 -43z m493 34 c12 -7 25 -17 29
-23 15 -22 7 -63 -16 -85 -19 -18 -31 -22 -56 -16 -28 6 -37 2 -71 -31 -21
-21 -39 -34 -39 -28 0 6 15 25 34 43 30 29 33 38 29 70 -4 32 -1 41 22 59 32
25 38 26 68 11z m4717 -9 c0 -18 -7 -20 -65 -20 -51 0 -65 3 -65 15 0 8 5 15
10 15 6 0 10 -4 10 -10 0 -5 23 -10 50 -10 38 0 50 4 50 15 0 8 2 15 5 15 3 0
5 -9 5 -20z m57 -17 c-3 -10 -5 -4 -5 12 0 17 2 24 5 18 2 -7 2 -21 0 -30z
m9438 21 c9 -10 13 -24 10 -36 -4 -10 -1 -26 6 -34 6 -8 9 -18 5 -22 -4 -4
-12 1 -17 11 -27 47 -83 -10 -60 -60 6 -13 7 -23 2 -23 -5 0 -11 7 -15 15 -8
22 -41 18 -59 -7 -13 -19 -16 -20 -16 -6 -1 9 4 20 9 23 6 4 8 15 5 24 -10 33
5 51 42 51 32 0 35 2 29 24 -4 16 0 30 10 40 20 20 29 20 49 0z m3025 -16 c0
-18 3 -75 6 -127 5 -68 3 -92 -5 -87 -6 4 -11 23 -11 42 0 19 -4 34 -9 34 -5
0 -11 9 -14 21 -4 15 -2 19 9 15 8 -3 14 1 14 10 0 12 -6 15 -22 9 -13 -3 -45
-7 -73 -7 l-50 0 40 -7 40 -6 -11 -33 c-9 -29 -12 -31 -23 -18 -8 9 -29 16
-47 16 l-34 0 0 78 c0 43 3 82 7 85 3 4 46 7 95 7 l88 0 0 -32z m-13086 12
c15 -5 34 -26 43 -45 17 -35 17 -38 -2 -73 -45 -82 -165 -58 -165 34 0 75 53
111 124 84z m-4754 -35 c0 -34 -1 -35 -40 -35 -38 0 -40 2 -40 29 0 32 10 39
53 40 24 1 27 -2 27 -34z m1270 -20 c23 0 25 -4 28 -50 4 -57 -14 -53 -20 5
-5 53 -32 47 -36 -7 -5 -67 -22 -50 -22 20 0 66 11 97 20 55 4 -17 12 -23 30
-23z m1031 2 c10 3 26 0 34 -7 17 -14 21 -90 5 -90 -5 0 -10 18 -10 40 0 27
-5 43 -15 47 -21 7 -24 3 -34 -48 -8 -40 -9 -38 -8 31 0 41 2 63 4 49 3 -21 9
-26 24 -22z m6680 32 c39 -20 28 -107 -19 -152 -26 -25 -92 -48 -92 -33 0 4 7
20 15 36 15 30 15 30 -11 30 -52 0 -85 63 -51 99 10 11 9 13 -5 8 -10 -4 -18
-2 -18 3 0 17 152 25 181 9z m1055 2 c5 -5 20 -11 34 -14 22 -4 21 -4 -6 -6
-17 0 -37 6 -44 14 -13 16 0 21 16 6z m5375 -1 c0 8 5 4 10 -10 8 -23 13 -25
64 -22 l55 4 0 -36 0 -36 -61 0 c-60 0 -61 1 -57 25 3 13 1 22 -3 19 -5 -3
-10 -20 -10 -37 l-2 -32 -4 30 c-3 17 -9 36 -15 42 -6 7 -7 25 -3 40 5 21 8
24 16 12 7 -12 9 -12 10 1z m319 -62 c0 -67 -1 -70 -17 -56 -10 8 -26 18 -35
21 -26 9 -18 68 10 78 11 4 23 12 27 18 12 21 15 10 15 -61z m350 49 c-25 -12
-55 -37 -67 -56 -27 -40 -31 -32 -6 10 16 26 84 70 108 69 6 -1 -10 -11 -35
-23z m-15217 3 c-20 -8 -23 -17 -23 -65 0 -30 -4 -55 -10 -55 -6 0 -10 26 -10
59 0 48 -3 60 -17 64 -10 3 5 5 32 5 39 1 45 -1 28 -8z m805 -21 c15 -1 15 -2
0 -6 -13 -3 -18 -14 -18 -38 0 -22 6 -38 18 -45 15 -10 15 -10 -3 -8 -15 2
-21 12 -23 43 -2 22 -9 43 -15 47 -9 6 -9 8 1 8 6 0 13 8 13 18 1 16 2 16 6 0
2 -10 12 -19 21 -19z m3652 -24 l0 -46 -62 3 c-61 3 -63 4 -66 31 -6 50 2 57
68 57 l60 0 0 -45z m10243 18 c3 -16 3 -40 0 -55 -5 -28 -6 -28 -77 -26 l-71
2 68 3 67 4 0 44 0 44 -57 4 -58 3 61 2 c60 2 62 1 67 -25z m760 20 c-15 -3
-23 -12 -23 -24 0 -13 7 -19 23 -20 l22 -2 -22 -4 c-14 -3 -23 -12 -23 -23 0
-11 9 -20 23 -23 16 -3 13 -5 -10 -6 l-33 -1 0 55 0 55 33 -1 c23 -1 26 -3 10
-6z m72 -28 c22 -39 24 -39 35 7 7 29 8 26 9 -24 1 -32 -3 -58 -7 -58 -5 0
-17 16 -28 35 -10 19 -22 35 -26 35 -4 0 -9 -17 -11 -37 -3 -28 -4 -23 -5 20
-1 31 2 57 6 57 5 0 17 -16 27 -35z m145 26 c0 -4 -11 -6 -25 -4 -43 9 -61
-67 -20 -84 9 -3 22 0 28 6 9 10 8 16 -7 27 -19 14 -19 14 3 14 18 0 22 -5 19
-27 -3 -31 -38 -43 -64 -23 -20 18 -18 77 4 89 21 13 62 14 62 2z m-11150 -16
c0 -8 -7 -15 -15 -15 -8 0 -15 7 -15 15 0 8 7 15 15 15 8 0 15 -7 15 -15z
m9837 -17 c18 -18 33 -36 33 -42 0 -6 -17 7 -38 27 l-38 37 -34 -35 c-18 -19
-35 -33 -37 -31 -6 6 60 76 71 76 6 0 25 -14 43 -32z m-14326 -15 l13 -38 14
38 c24 61 34 42 11 -20 -22 -60 -44 -92 -55 -80 -3 3 1 13 10 22 14 14 14 20
-4 65 -11 28 -16 50 -11 50 5 0 15 -17 22 -37z m149 17 c21 -40 -16 -96 -50
-75 -6 4 -10 -5 -10 -20 0 -15 -4 -24 -10 -20 -5 3 -10 34 -10 69 l0 63 35 1
c25 1 38 -4 45 -18z m98 -7 c3 -20 -1 -23 -28 -23 -25 0 -31 -4 -28 -17 2 -12
13 -18 30 -18 15 1 24 -3 22 -7 -8 -12 -49 -9 -62 4 -17 17 -15 54 4 73 23 22
58 15 62 -12z m250 0 c3 -20 -1 -23 -28 -23 -25 0 -31 -4 -28 -17 2 -12 13
-18 30 -18 15 1 24 -3 22 -7 -8 -12 -49 -9 -62 4 -15 15 -15 43 -1 69 15 29
63 22 67 -8z m56 10 c-7 -8 -14 -30 -14 -49 0 -21 -4 -33 -10 -29 -5 3 -10 26
-10 49 0 39 2 44 24 44 22 0 23 -2 10 -15z m107 -10 c8 -21 5 -23 -26 -23 -19
0 -35 -4 -35 -9 0 -16 29 -33 45 -27 9 3 13 2 10 -4 -17 -28 -75 3 -75 40 0
47 65 66 81 23z m205 2 c15 -23 15 -27 0 -50 -9 -14 -25 -25 -36 -25 -11 0
-27 11 -36 25 -15 23 -15 27 0 50 9 14 25 25 36 25 11 0 27 -11 36 -25z m134
16 c0 -5 -9 -7 -20 -4 -27 7 -27 -23 1 -32 31 -10 21 -49 -13 -53 -16 -2 -28
1 -28 6 0 6 9 8 20 5 27 -7 26 14 -2 36 -27 23 -18 51 17 51 14 0 25 -4 25 -9z
m90 -10 c15 -29 13 -31 -25 -31 -33 0 -35 -2 -24 -21 7 -14 17 -19 30 -16 10
3 17 1 13 -4 -10 -18 -44 -9 -60 16 -15 23 -15 27 0 50 20 30 51 33 66 6z m88
7 c7 -7 12 -28 12 -48 0 -35 -2 -37 -35 -38 -23 -1 -38 4 -42 13 -7 20 15 45
39 45 11 0 18 5 15 13 -2 6 -14 12 -26 11 -11 0 -21 3 -21 8 0 12 44 10 58 -4z
m66 -5 c-7 -8 -14 -30 -14 -49 0 -19 -4 -33 -8 -30 -5 3 -9 25 -9 49 -1 40 1
45 22 45 21 0 22 -2 9 -15z m96 8 c0 -5 -7 -8 -16 -7 -25 2 -42 -30 -28 -51 7
-10 19 -17 28 -17 9 1 16 -2 16 -7 0 -15 -37 -10 -54 7 -20 19 -20 34 0 62 15
21 54 31 54 13z m13540 -21 c0 -10 -4 -21 -8 -24 -5 -3 -9 8 -9 24 0 16 4 27
9 24 4 -3 8 -14 8 -24z m314 11 c-30 -14 -46 -29 -58 -57 -14 -33 -16 -35 -11
-9 10 47 51 83 95 84 8 0 -3 -8 -26 -18z m-16094 -51 c0 -36 -3 -40 -24 -40
-44 0 -56 10 -56 46 0 33 1 34 40 34 l40 0 0 -40z m110 -7 l0 -48 -50 3 -50 4
0 44 0 44 50 0 50 0 0 -47z m5267 -20 c-2 -16 -4 -5 -4 22 0 28 2 40 4 28 2
-13 2 -35 0 -50z m10733 44 c-13 -7 -30 -24 -37 -37 -9 -18 -13 -20 -13 -7 0
22 35 57 58 57 12 0 10 -4 -8 -13z m-10791 -49 c-1 -17 -2 -19 -6 -5 -3 13
-15 17 -54 17 -27 0 -49 -4 -49 -10 0 -5 -4 -10 -10 -10 -5 0 -10 7 -10 15 0
12 14 15 65 15 61 0 65 -1 64 -22z m10668 0 c-3 -8 -6 -5 -6 6 -1 11 2 17 5
13 3 -3 4 -12 1 -19z m135 7 c0 -5 -5 -11 -11 -13 -6 -2 -11 4 -11 13 0 9 5
15 11 13 6 -2 11 -8 11 -13z m644 -12 c3 -10 8 -25 11 -33 3 -10 10 -5 25 18
24 38 38 41 38 8 0 -13 2 -30 5 -38 7 -18 -13 -46 -22 -32 -13 18 -51 23 -57
8 -7 -17 -42 -18 -52 -2 -8 13 -7 65 2 79 9 16 44 10 50 -8z m215 -10 c14 -38
-3 -75 -34 -71 -17 2 -23 11 -25 36 -4 45 3 62 28 62 13 0 24 -10 31 -27z m57
-25 c-1 -50 -2 -51 -5 -11 -3 34 -7 41 -21 37 -14 -5 -13 -3 2 10 11 9 21 16
23 16 2 0 2 -24 1 -52z m150 29 c2 -11 -6 -29 -18 -42 l-22 -23 24 -5 c18 -3
16 -5 -9 -6 -38 -1 -41 8 -13 34 27 25 27 59 0 52 -11 -3 -17 -1 -14 5 10 15
49 4 52 -15z m77 -27 c0 -39 -3 -45 -22 -48 -31 -5 -48 33 -34 71 8 21 17 28
34 25 19 -3 22 -9 22 -48z m75 27 c0 -13 -9 -32 -21 -43 l-21 -19 28 -6 c27
-6 26 -7 -8 -8 -44 -1 -47 7 -13 39 31 29 31 38 3 50 -22 8 -22 9 5 9 22 1 27
-3 27 -22z m70 -27 c0 -27 -4 -50 -10 -50 -5 0 -10 18 -10 41 0 24 -4 38 -10
34 -5 -3 -10 -2 -10 4 0 9 15 18 33 20 4 1 7 -21 7 -49z m-510 -10 c0 -5 -7
-10 -16 -10 -8 0 -12 5 -9 10 3 6 10 10 16 10 5 0 9 -4 9 -10z m210 0 c0 -5
-7 -10 -15 -10 -8 0 -15 5 -15 10 0 6 7 10 15 10 8 0 15 -4 15 -10z"/>
<path d="M3305 10704 c-11 -11 -15 -30 -13 -63 l3 -46 47 -3 c39 -2 49 1 62
20 21 30 20 71 -2 91 -24 22 -76 22 -97 1z m85 -15 c0 -11 -5 -30 -11 -41 -10
-18 -9 -20 5 -15 18 7 19 6 10 -17 -9 -24 -71 -21 -84 3 -12 23 -13 42 -2 23
7 -9 13 -8 27 8 15 16 15 19 3 15 -10 -4 -17 1 -21 14 -6 26 0 31 40 31 27 0
33 -4 33 -21z"/>
<path d="M1070 10685 c0 -8 7 -15 15 -15 8 0 15 7 15 15 0 8 -7 15 -15 15 -8
0 -15 -7 -15 -15z"/>
<path d="M1070 10640 c0 -15 5 -20 18 -18 9 2 17 10 17 18 0 8 -8 16 -17 18
-13 2 -18 -3 -18 -18z"/>
<path d="M4180 10670 c-9 -16 -8 -20 5 -20 8 0 15 9 15 20 0 11 -2 20 -5 20
-2 0 -9 -9 -15 -20z"/>
<path d="M8782 10660 c-1 -28 4 -40 13 -40 18 0 28 17 18 33 -4 6 -6 20 -5 30
2 9 -3 17 -11 17 -10 0 -15 -12 -15 -40z"/>
<path d="M9447 10693 c-14 -13 -6 -33 13 -33 13 0 20 7 20 20 0 19 -20 27 -33
13z"/>
<path d="M11395 10677 c-8 -19 -2 -31 13 -26 5 2 6 13 2 24 -7 19 -8 19 -15 2z"/>
<path d="M12456 10673 c-11 -11 -6 -23 9 -23 8 0 15 4 15 9 0 13 -16 22 -24
14z"/>
<path d="M12590 10685 c0 -8 7 -15 15 -15 8 0 15 7 15 15 0 8 -7 15 -15 15 -8
0 -15 -7 -15 -15z"/>
<path d="M13986 10685 c4 -8 10 -15 15 -15 5 0 9 7 9 15 0 8 -7 15 -15 15 -9
0 -12 -6 -9 -15z"/>
<path d="M13982 10638 c6 -18 28 -21 28 -4 0 9 -7 16 -16 16 -9 0 -14 -5 -12
-12z"/>
<path d="M14098 10658 c-7 -19 2 -38 17 -38 15 0 28 27 19 41 -8 13 -31 11
-36 -3z"/>
<path d="M14400 10645 c0 -20 4 -26 18 -23 9 2 17 12 17 23 0 11 -8 21 -17 23
-14 3 -18 -3 -18 -23z"/>
<path d="M3987 10643 c-12 -11 -8 -23 8 -23 8 0 15 7 15 15 0 16 -12 20 -23 8z"/>
<path d="M9917 10643 c-12 -11 -8 -23 8 -23 8 0 15 7 15 15 0 16 -12 20 -23 8z"/>
<path d="M11757 10643 c-12 -11 -8 -23 8 -23 8 0 15 7 15 15 0 16 -12 20 -23
8z"/>
<path d="M12057 10643 c-12 -11 -8 -23 8 -23 8 0 15 7 15 15 0 16 -12 20 -23
8z"/>
<path d="M12307 10643 c-12 -11 -8 -23 8 -23 8 0 15 7 15 15 0 16 -12 20 -23
8z"/>
<path d="M18342 10643 c34 -4 37 -7 41 -41 l4 -37 1 43 2 42 -42 -2 -43 -1 37
-4z"/>
<path d="M18290 10590 l0 -40 40 0 40 0 0 40 0 40 -40 0 -40 0 0 -40z"/>
<path d="M18157 10344 c-3 -4 -1 -16 5 -28 6 -11 10 -22 9 -24 -2 -2 0 -6 3
-9 3 -4 6 0 6 8 0 8 3 24 6 37 5 15 2 22 -8 22 -8 0 -18 -3 -21 -6z"/>
<path d="M18240 10290 c0 -5 5 -10 10 -10 6 0 10 5 10 10 0 6 -4 10 -10 10 -5
0 -10 -4 -10 -10z"/>
<path d="M2262 10284 c-40 -27 -18 -104 29 -104 26 0 59 30 59 54 0 48 -50 77
-88 50z m38 -14 c0 -5 -5 -10 -11 -10 -5 0 -7 5 -4 10 3 6 8 10 11 10 2 0 4
-4 4 -10z m3 -51 c-4 -13 -9 -17 -16 -10 -12 12 -1 45 12 37 5 -3 7 -15 4 -27z"/>
<path d="M16907 10266 c-4 -9 -13 -16 -21 -16 -11 0 -12 -5 -3 -24 7 -13 20
-23 32 -23 12 0 25 10 32 23 7 16 8 24 1 24 -6 0 -16 7 -23 16 -11 16 -12 16
-18 0z"/>
<path d="M1786 10258 c-9 -12 -16 -35 -16 -50 0 -26 2 -28 45 -28 45 0 45 0
45 34 0 25 -7 39 -22 50 -29 21 -34 20 -52 -6z"/>
<path d="M17360 10220 c0 -5 5 -10 10 -10 6 0 10 5 10 10 0 6 -4 10 -10 10 -5
0 -10 -4 -10 -10z"/>
<path d="M17410 10220 c0 -5 5 -10 10 -10 6 0 10 5 10 10 0 6 -4 10 -10 10 -5
0 -10 -4 -10 -10z"/>
<path d="M17380 10180 c0 -5 7 -10 15 -10 8 0 15 5 15 10 0 6 -7 10 -15 10 -8
0 -15 -4 -15 -10z"/>
<path d="M2556 10235 c-8 -22 4 -45 24 -45 10 0 20 9 23 19 8 34 -34 58 -47
26z"/>
<path d="M2737 10213 c-12 -11 -8 -23 8 -23 8 0 15 7 15 15 0 16 -12 20 -23 8z"/>
<path d="M2954 10236 c-9 -24 4 -48 23 -44 12 2 18 12 18 28 0 29 -32 41 -41
16z"/>
<path d="M1745 9617 c-118 -47 -191 -120 -225 -227 -53 -166 16 -337 172 -421
60 -32 68 -34 163 -34 90 0 106 3 153 28 72 38 128 97 163 171 24 51 29 75 30
145 1 76 -2 88 -35 156 -41 83 -88 128 -176 169 -45 21 -69 26 -135 25 -44 0
-93 -6 -110 -12z m229 -24 c70 -25 165 -121 191 -193 28 -79 24 -186 -9 -254
-63 -129 -149 -187 -287 -194 -78 -4 -92 -2 -147 23 -81 36 -151 110 -181 190
-67 176 36 380 219 436 47 14 163 10 214 -8z"/>
<path d="M1852 9378 l-2 -127 -45 -7 c-25 -3 -55 -4 -67 -1 -13 3 -39 2 -58
-3 -22 -5 53 -8 195 -7 127 1 177 3 113 4 -138 4 -127 -10 -131 158 l-3 110
-2 -127z"/>
<path d="M1690 9403 c0 -10 -7 -26 -14 -36 -11 -15 -10 -24 7 -62 24 -51 34
-55 47 -20 5 13 18 30 30 37 27 17 25 36 -4 44 -13 3 -28 16 -35 30 -12 28
-31 32 -31 7z"/>
<path d="M1797 9373 c-4 -3 -7 -13 -7 -21 0 -12 3 -12 15 -2 8 7 15 16 15 21
0 11 -14 12 -23 2z"/>
<path d="M1987 9349 c7 -7 15 -10 18 -7 3 3 -2 9 -12 12 -14 6 -15 5 -6 -5z"/>
<path d="M1816 9143 l-27 -47 28 -22 c36 -30 44 -30 77 5 19 20 24 30 15 33
-7 2 -23 -7 -36 -21 l-23 -26 -20 23 c-17 21 -18 26 -5 39 8 8 15 19 15 25 0
6 8 4 18 -5 27 -25 32 -21 21 13 -15 42 -33 37 -63 -17z"/>
<path d="M1580 8975 c0 -8 5 -15 10 -15 6 0 10 7 10 15 0 8 -4 15 -10 15 -5 0
-10 -7 -10 -15z"/>
<path d="M2110 8975 c0 -8 5 -15 10 -15 6 0 10 7 10 15 0 8 -4 15 -10 15 -5 0
-10 -7 -10 -15z"/>
<path d="M16690 9360 c-27 -27 -27 -89 0 -118 27 -28 90 -30 113 -4 25 27 9
34 -22 11 -23 -17 -31 -18 -54 -8 -28 13 -43 54 -32 89 10 31 52 44 81 25 34
-22 51 -19 29 5 -12 13 -31 20 -57 20 -25 0 -45 -7 -58 -20z"/>
<path d="M17241 9328 c12 -29 26 -66 31 -81 15 -42 37 -30 63 36 33 81 38 97
27 97 -5 0 -20 -26 -32 -57 -13 -32 -26 -62 -30 -66 -4 -5 -18 21 -31 57 -13
36 -29 66 -36 66 -9 0 -7 -15 8 -52z"/>
<path d="M17105 9358 c-6 -9 -8 -43 -5 -75 5 -53 7 -58 30 -61 23 -2 24 -1 8
11 -12 9 -18 28 -18 55 0 30 4 42 18 45 15 4 15 5 0 6 -9 0 -18 9 -20 19 -3
16 -4 16 -13 0z"/>
<path d="M17515 9353 c-8 -19 -7 -86 1 -115 3 -10 15 -18 27 -18 16 0 18 3 9
12 -16 16 -16 95 1 101 10 4 10 6 0 6 -7 1 -13 8 -13 16 0 21 -16 19 -25 -2z"/>
<path d="M16855 9329 c-11 -17 3 -23 20 -9 18 15 45 6 45 -16 0 -11 -6 -15
-19 -11 -28 7 -63 -20 -59 -46 3 -19 10 -22 59 -23 l55 -1 -6 46 c-3 25 -9 52
-13 59 -10 15 -73 16 -82 1z m63 -65 c-5 -25 -35 -41 -49 -27 -9 9 -9 16 1 28
17 21 52 20 48 -1z"/>
<path d="M16987 9334 c-18 -19 -5 -46 29 -60 19 -8 33 -20 31 -27 -4 -13 -32
-14 -60 -2 -13 6 -16 4 -11 -9 5 -13 17 -16 48 -14 36 3 41 6 41 28 0 19 -8
29 -32 39 -34 15 -45 41 -17 41 8 0 25 -5 36 -11 16 -9 19 -8 16 3 -5 14 -69
24 -81 12z"/>
<path d="M17379 9316 c-8 -17 -9 -36 -3 -58 9 -30 13 -33 49 -33 49 0 76 36
59 82 -8 24 -16 28 -52 31 -37 3 -43 0 -53 -22z m79 -33 c3 -34 0 -42 -17 -48
-31 -9 -41 2 -41 44 0 44 6 53 35 49 16 -2 21 -12 23 -45z"/>
<path d="M17580 9321 c-26 -49 3 -101 55 -101 19 0 37 5 40 11 11 16 -3 23
-19 10 -20 -17 -58 -4 -54 17 2 12 16 18 46 20 46 3 49 7 26 40 -20 29 -79 31
-94 3z m78 -13 c3 -14 -3 -18 -27 -18 -29 0 -41 17 -24 34 13 13 48 1 51 -16z"/>
<path d="M2700 9436 c0 -39 10 -45 31 -20 9 11 10 20 3 32 -20 30 -34 25 -34
-12z"/>
<path d="M2712 9260 c3 -28 8 -53 11 -56 3 -3 18 0 34 8 19 9 29 22 31 41 4
37 -13 57 -50 57 l-31 0 5 -50z"/>
<path d="M3200 9304 c-14 -35 -12 -67 4 -89 12 -16 16 -17 30 -6 26 22 14 121
-14 121 -6 0 -15 -12 -20 -26z"/>
<path d="M4477 9323 c-13 -21 -18 -83 -8 -102 28 -52 62 0 45 67 -9 34 -27 52
-37 35z"/>
<path d="M4991 9339 c-13 -37 -8 -49 18 -42 52 13 65 73 17 73 -18 0 -27 -8
-35 -31z"/>
<path d="M13765 9330 c-10 -33 4 -60 30 -60 26 0 43 35 31 65 -8 23 -53 19
-61 -5z"/>
<path d="M14060 9336 c0 -11 10 -16 31 -16 38 0 35 24 -4 28 -19 2 -27 -1 -27
-12z"/>
<path d="M14884 9336 c-3 -8 -4 -25 -2 -38 2 -17 9 -23 28 -23 22 0 25 4 25
35 0 29 -4 36 -23 38 -13 2 -24 -3 -28 -12z"/>
<path d="M1692 7908 l3 -243 23 -3 22 -3 0 245 0 246 -25 0 -25 0 2 -242z"/>
<path d="M1840 7904 l0 -245 23 3 22 3 3 243 2 242 -25 0 -25 0 0 -246z"/>
<path d="M842 7893 l3 -228 25 0 c25 0 25 0 28 108 l3 107 124 0 124 0 3 -107
c3 -108 3 -108 28 -108 l25 0 3 228 2 227 -30 0 -30 0 0 -95 0 -95 -125 0
-125 0 0 95 0 95 -30 0 -30 0 2 -227z"/>
<path d="M2700 8115 c0 -3 31 -81 69 -173 37 -92 76 -189 86 -215 20 -52 28
-60 62 -62 25 -1 18 -15 138 280 36 88 65 163 65 168 0 5 -12 7 -27 5 -25 -3
-32 -15 -94 -172 -37 -93 -70 -179 -73 -192 -8 -30 -22 -31 -29 -3 -3 11 -36
99 -73 195 -66 168 -69 174 -96 174 -15 0 -28 -2 -28 -5z"/>
<path d="M4320 7960 l0 -160 25 0 25 0 1 123 c0 67 1 139 2 160 2 34 0 37 -25
37 l-28 0 0 -160z"/>
<path d="M3536 8056 c-5 -26 -12 -36 -29 -38 -31 -4 -35 -36 -5 -40 23 -3 23
-5 26 -145 2 -138 3 -143 27 -159 34 -22 89 -15 93 13 3 17 -1 20 -17 16 -44
-11 -51 10 -51 148 l0 128 33 3 c20 2 32 8 32 18 0 10 -12 16 -32 18 -30 3
-33 6 -33 38 0 27 -4 34 -19 34 -13 0 -21 -10 -25 -34z"/>
<path d="M1385 8011 c-55 -24 -85 -85 -85 -169 0 -73 28 -135 72 -162 61 -37
176 -20 212 31 15 23 15 24 -3 33 -15 6 -28 2 -51 -18 -67 -56 -170 -15 -170
68 l0 36 125 0 c119 0 125 1 125 21 0 46 -24 109 -51 135 -25 24 -39 29 -92
31 -34 2 -71 -1 -82 -6z m120 -37 c19 -8 45 -55 45 -84 0 -19 -6 -20 -95 -20
-94 0 -95 0 -95 24 0 14 12 38 26 55 20 25 34 31 64 31 21 0 46 -3 55 -6z"/>
<path d="M2026 7989 c-82 -72 -72 -255 16 -309 74 -45 182 -16 220 60 24 48
24 152 -1 207 -25 53 -62 73 -140 73 -53 0 -65 -4 -95 -31z m149 -15 c29 -12
45 -60 45 -138 0 -66 -3 -78 -26 -105 -35 -41 -98 -44 -134 -6 -42 45 -41 195
2 235 22 20 78 27 113 14z"/>
<path d="M3197 8002 c-63 -39 -90 -184 -48 -262 57 -108 213 -108 269 0 45 88
16 237 -53 268 -39 18 -135 14 -168 -6z m153 -42 c27 -27 33 -58 28 -141 -3
-63 -7 -74 -31 -95 -19 -16 -40 -24 -65 -24 -68 1 -92 37 -92 140 0 71 16 123
42 133 33 14 99 6 118 -13z"/>
<path d="M3763 8004 c-46 -23 -73 -84 -73 -165 0 -114 55 -179 152 -179 77 0
154 47 133 80 -10 16 -25 12 -57 -15 -32 -27 -80 -33 -122 -14 -26 12 -44 46
-48 89 l-3 25 128 3 127 3 -6 42 c-10 67 -30 105 -66 127 -40 24 -119 26 -165
4z m145 -47 c12 -13 25 -37 28 -55 l7 -32 -95 0 c-52 0 -97 3 -100 6 -11 10
11 69 33 87 32 26 100 23 127 -6z"/>
<path d="M4082 7843 c3 -176 3 -178 26 -181 22 -3 22 -2 22 105 0 162 17 203
84 203 21 0 26 5 26 26 0 22 -3 25 -32 22 -24 -2 -38 -12 -55 -37 l-23 -34 0
37 c0 32 -3 36 -25 36 l-25 0 2 -177z"/>
<path d="M2380 7700 c0 -16 7 -33 16 -38 14 -8 14 -12 0 -45 -14 -35 -14 -37
4 -37 14 0 21 12 29 50 18 86 16 100 -19 100 -27 0 -30 -3 -30 -30z"/>
<path d="M4322 7698 c2 -25 8 -34 26 -36 19 -3 22 1 22 32 0 32 -3 36 -26 36
-23 0 -25 -3 -22 -32z"/>
<path d="M1164 7225 c0 -49 1 -71 3 -48 2 23 2 64 0 90 -2 26 -3 8 -3 -42z"/>
<path d="M3244 7288 c-4 -13 -12 -26 -18 -30 -8 -6 -7 -8 2 -8 8 0 12 -18 12
-55 0 -30 5 -55 10 -55 6 0 10 25 10 55 0 37 4 55 13 55 8 0 7 4 -3 10 -12 8
-13 13 -2 30 10 17 10 20 -2 20 -8 0 -18 -10 -22 -22z"/>
<path d="M3690 7300 c0 -5 5 -10 11 -10 5 0 7 5 4 10 -3 6 -8 10 -11 10 -2 0
-4 -4 -4 -10z"/>
<path d="M792 7288 c3 -7 13 -43 23 -80 10 -39 23 -68 31 -68 11 0 44 89 44
121 0 26 15 -4 30 -59 8 -30 20 -57 27 -59 13 -5 57 129 50 150 -2 7 -12 -15
-22 -48 -10 -33 -22 -64 -25 -68 -4 -4 -15 22 -25 58 -9 36 -21 65 -26 65 -5
0 -18 -33 -30 -72 l-23 -73 -19 73 c-11 39 -24 72 -30 72 -5 0 -7 -6 -5 -12z"/>
<path d="M1870 7276 c0 -8 -6 -17 -12 -19 -10 -4 -10 -6 0 -6 8 -1 12 -19 12
-56 0 -51 2 -55 23 -54 12 0 16 3 10 6 -8 3 -13 24 -13 53 0 29 5 50 13 53 10
4 10 6 0 6 -7 1 -13 8 -13 16 0 8 -4 15 -10 15 -5 0 -10 -6 -10 -14z"/>
<path d="M3630 7276 c0 -8 -6 -17 -12 -19 -10 -4 -10 -6 0 -6 8 -1 12 -19 12
-56 0 -50 2 -55 23 -55 20 1 20 2 5 11 -22 12 -25 84 -5 96 10 6 9 12 -5 26
-14 13 -18 14 -18 3z"/>
<path d="M1030 7241 c-26 -50 -4 -101 45 -101 18 0 37 4 40 10 4 6 -6 7 -26 3
-21 -4 -34 -2 -40 8 -18 29 -10 39 36 39 46 0 53 7 35 41 -7 13 -21 19 -45 19
-24 0 -38 -6 -45 -19z m70 5 c0 -2 3 -11 6 -20 5 -13 -1 -16 -30 -16 -34 0
-47 15 -29 33 7 8 53 10 53 3z"/>
<path d="M1220 7244 c-8 -8 -13 -28 -13 -44 0 -16 5 -36 13 -44 14 -18 65 -21
75 -5 11 17 -2 21 -23 8 -27 -17 -52 3 -52 41 0 38 25 58 52 41 11 -7 23 -10
26 -6 9 9 -19 25 -44 25 -12 0 -27 -7 -34 -16z"/>
<path d="M1343 7252 c-6 -4 -15 -20 -18 -35 -10 -38 17 -77 53 -77 38 0 52 17
52 60 0 20 -5 41 -12 48 -13 13 -57 16 -75 4z m69 -27 c22 -49 -25 -98 -60
-63 -7 7 -12 24 -12 38 0 51 52 69 72 25z"/>
<path d="M1460 7201 c0 -70 19 -84 22 -16 0 25 1 50 2 57 1 6 -5 13 -11 16
-10 3 -13 -13 -13 -57z"/>
<path d="M1518 7250 c19 -8 22 -17 23 -62 l2 -53 6 47 c8 53 22 74 45 65 12
-5 16 -20 16 -57 0 -28 5 -50 10 -50 7 0 10 22 8 58 -3 51 -5 57 -26 60 -13 2
-30 -2 -38 -8 -10 -9 -14 -9 -14 -1 0 6 -12 11 -27 10 -27 0 -27 -1 -5 -9z"/>
<path d="M1670 7241 c-14 -26 -13 -74 2 -89 14 -14 74 -16 82 -3 3 4 -11 8
-32 7 -31 -1 -37 3 -40 22 -3 20 1 22 42 22 50 0 54 4 30 38 -20 28 -69 30
-84 3z m68 -3 c20 -20 14 -28 -23 -28 -22 0 -35 5 -35 13 0 28 36 37 58 15z"/>
<path d="M1942 7248 c-17 -17 -15 -83 2 -97 8 -7 27 -11 43 -9 65 7 63 110 -2
116 -17 2 -36 -3 -43 -10z m70 -23 c8 -19 8 -31 0 -50 -26 -56 -85 -10 -63 48
14 35 47 36 63 2z"/>
<path d="M2130 7198 c0 -72 18 -77 22 -5 3 48 5 52 28 52 23 0 25 -4 28 -52 4
-66 22 -70 22 -5 0 63 -8 72 -58 70 l-42 -1 0 -59z"/>
<path d="M2270 7241 c-26 -50 -4 -101 45 -101 18 0 36 4 39 9 3 4 -11 8 -32 7
-31 -1 -37 3 -40 22 -3 20 1 22 42 22 25 0 46 2 46 4 0 3 -4 16 -10 30 -8 21
-16 26 -44 26 -25 0 -38 -6 -46 -19z m68 -3 c20 -20 14 -28 -23 -28 -22 0 -35
5 -35 13 0 28 36 37 58 15z"/>
<path d="M2398 7200 c9 -33 22 -60 28 -60 7 0 18 24 25 53 l13 52 14 -52 c8
-29 20 -53 27 -53 7 0 18 20 24 44 6 24 13 51 17 60 3 9 2 16 -4 16 -5 0 -16
-23 -22 -51 -14 -56 -24 -52 -35 13 -4 22 -12 38 -20 38 -8 0 -16 -16 -20 -38
-11 -65 -21 -69 -35 -13 -6 28 -16 51 -20 51 -4 0 -1 -27 8 -60z"/>
<path d="M2647 7254 c-4 -4 -7 -12 -7 -18 0 -6 5 -5 12 2 20 20 58 15 58 -8 0
-15 -7 -20 -29 -20 -60 0 -71 -64 -11 -67 30 -2 31 -1 10 6 -35 10 -34 45 2
49 23 3 27 -1 30 -25 2 -19 10 -29 23 -31 13 -2 16 0 8 5 -6 5 -13 31 -15 58
-3 49 -3 50 -38 53 -20 2 -39 0 -43 -4z"/>
<path d="M2774 7246 c-3 -7 -4 -33 -2 -57 3 -44 3 -44 41 -43 29 1 37 -2 37
-17 0 -23 -36 -34 -57 -17 -14 11 -16 11 -11 -2 7 -21 52 -24 72 -5 12 12 16
35 16 84 l0 68 -45 1 c-31 2 -47 -2 -51 -12z m64 -8 c26 -26 8 -88 -25 -88
-23 0 -38 46 -25 75 13 27 31 32 50 13z"/>
<path d="M2912 7248 c-16 -16 -16 -80 0 -96 14 -14 74 -16 83 -3 3 6 -9 8 -29
4 -27 -4 -36 -1 -45 15 -14 26 -6 32 41 32 30 0 38 4 38 18 0 25 -20 42 -50
42 -14 0 -31 -5 -38 -12z m66 -10 c20 -20 14 -28 -23 -28 -22 0 -35 5 -35 13
0 28 36 37 58 15z"/>
<path d="M3112 7248 c-15 -15 -16 -80 0 -96 21 -21 66 -14 84 13 13 20 15 33
8 58 -8 27 -15 32 -44 35 -19 2 -41 -3 -48 -10z m66 -10 c13 -13 16 -47 6 -72
-9 -25 -53 -20 -65 7 -22 48 24 100 59 65z"/>
<path d="M3366 7238 c36 -117 50 -123 81 -38 12 33 18 60 13 60 -5 0 -17 -22
-27 -50 -10 -27 -20 -50 -23 -50 -4 0 -12 23 -19 50 -7 28 -17 50 -23 50 -5 0
-6 -10 -2 -22z"/>
<path d="M3500 7245 c-16 -19 -15 -71 1 -91 14 -17 61 -18 77 -2 16 16 16 80
0 96 -17 17 -63 15 -78 -3z m70 -25 c16 -60 -38 -98 -62 -45 -8 19 -8 31 0 51
16 33 53 30 62 -6z"/>
<path d="M3690 7201 c0 -36 4 -61 11 -61 12 0 10 108 -3 116 -4 3 -8 -22 -8
-55z"/>
<path d="M3749 7245 c-4 -67 -3 -105 4 -105 4 0 7 19 7 43 0 46 13 67 42 67
15 0 18 -9 18 -55 0 -32 4 -55 10 -55 7 0 10 22 8 58 l-3 57 -42 0 c-24 1 -43
-4 -44 -10z"/>
<path d="M3882 7248 c-17 -17 -15 -83 3 -98 9 -7 27 -10 45 -6 33 6 35 4 20
-25 -12 -22 -40 -25 -59 -6 -11 10 -13 9 -9 -3 6 -19 55 -25 74 -9 10 8 14 33
14 83 l0 71 -38 3 c-21 1 -43 -3 -50 -10z m69 -21 c16 -34 -4 -79 -34 -75 -17
2 -23 11 -25 36 -2 19 -1 40 2 48 9 22 45 17 57 -9z"/>
<path d="M17478 6743 c17 -2 47 -2 65 0 17 2 3 4 -33 4 -36 0 -50 -2 -32 -4z"/>
<path d="M817 5873 c-5 -7 548 -7 1278 0 154 1 -70 3 -497 5 -427 1 -779 -1
-781 -5z"/>
<path d="M2684 5872 c-30 -19 -34 -55 -34 -279 0 -191 3 -232 16 -251 l15 -22
684 0 c608 0 685 2 699 16 14 13 16 51 16 264 0 246 0 249 -22 264 -20 14
-102 16 -693 16 -368 0 -675 -4 -681 -8z m226 -259 l24 -67 18 43 c10 24 21
54 24 67 4 14 14 24 25 24 16 0 15 -6 -12 -72 -29 -72 -53 -107 -64 -96 -3 3
-21 42 -40 87 -30 72 -32 81 -17 81 13 0 25 -18 42 -67z m577 10 l38 -57 5 54
c3 31 10 55 18 58 10 3 12 -15 10 -79 -2 -54 -7 -84 -15 -86 -7 -3 -30 23 -52
57 l-40 61 -3 -57 c-2 -35 -8 -59 -15 -62 -10 -3 -13 18 -13 82 0 106 13 111
67 29z m-298 25 c10 -16 10 -23 2 -26 -14 -5 -15 -78 -1 -87 18 -11 10 -26
-12 -23 -20 3 -23 10 -26 53 -2 27 -8 55 -14 62 -7 9 -7 13 1 13 6 0 11 7 11
15 0 22 23 18 39 -7z m-79 -18 c39 -39 14 -120 -37 -120 -38 0 -63 27 -63 67
0 37 29 73 60 73 11 0 29 -9 40 -20z m193 8 c9 -7 19 -25 23 -40 6 -27 5 -28
-40 -28 -33 0 -46 -4 -46 -14 0 -20 28 -28 52 -15 25 13 35 5 18 -16 -16 -20
-59 -19 -82 2 -27 24 -24 87 4 107 27 19 49 20 71 4z m375 -4 c27 -19 30 -78
5 -106 -36 -40 -103 -6 -103 52 0 33 30 70 58 70 10 0 28 -7 40 -16z m67 -42
l8 -37 12 40 c17 56 41 57 56 3 l13 -43 9 43 c6 24 16 42 23 42 17 0 17 -12
-4 -75 -21 -61 -41 -64 -57 -10 l-12 40 -12 -42 c-7 -24 -18 -43 -26 -43 -13
0 -45 88 -45 125 0 31 27 -2 35 -43z"/>
<path d="M3047 5614 c-13 -13 -7 -61 8 -74 23 -19 47 6 43 44 -2 22 -9 32 -23
34 -12 2 -24 0 -28 -4z"/>
<path d="M3253 5623 c-23 -8 -14 -33 12 -33 15 0 25 6 25 14 0 16 -19 25 -37
19z"/>
<path d="M3622 5618 c-30 -30 -4 -96 32 -82 28 11 16 94 -14 94 -3 0 -11 -5
-18 -12z"/>
<path d="M2404 5605 c0 -132 2 -185 3 -117 2 68 2 176 0 240 -1 64 -3 9 -3
-123z"/>
<path d="M784 5595 c0 -132 2 -185 3 -117 2 68 2 176 0 240 -1 64 -3 9 -3
-123z"/>
<path d="M1010 5600 l0 -80 53 2 c50 1 50 2 10 5 l-43 4 0 75 c0 43 -4 74 -10
74 -6 0 -10 -33 -10 -80z"/>
<path d="M1152 5628 c-7 -7 -12 -28 -12 -48 0 -20 5 -41 12 -48 14 -14 74 -16
83 -3 3 6 -9 8 -29 4 -27 -4 -36 -1 -45 15 -14 26 -6 32 41 32 30 0 38 4 38
18 0 25 -20 42 -50 42 -14 0 -31 -5 -38 -12z m66 -20 c3 -14 -3 -18 -27 -18
-29 0 -41 17 -24 34 13 13 48 1 51 -16z"/>
<path d="M1280 5625 c-15 -18 -7 -19 19 -3 22 14 51 4 51 -17 0 -10 -10 -15
-29 -15 -57 0 -72 -63 -16 -67 18 -1 22 1 10 4 -31 8 -40 20 -25 38 18 22 62
20 58 -2 -3 -19 8 -43 20 -43 11 0 1 93 -10 108 -14 17 -63 15 -78 -3z"/>
<path d="M1410 5578 c0 -33 4 -58 10 -58 6 0 8 15 4 39 -5 31 -2 42 16 59 l22
20 -26 -2 c-25 -1 -26 -4 -26 -58z"/>
<path d="M1492 5580 c1 -63 1 -64 7 -18 8 54 20 72 47 66 15 -2 20 -14 22 -56
2 -28 6 -52 10 -52 4 0 5 26 2 58 -4 50 -8 57 -28 60 -13 2 -29 -1 -37 -8 -10
-8 -14 -8 -18 2 -3 7 -5 -16 -5 -52z"/>
<path d="M1690 5576 c0 -69 8 -69 18 1 6 39 11 48 27 48 17 0 20 -8 23 -52 2
-29 7 -53 12 -53 5 0 10 24 12 53 3 45 6 52 25 55 24 3 29 -7 36 -78 3 -19 4
-8 3 25 -1 55 -3 60 -24 63 -13 2 -30 -2 -38 -8 -10 -9 -14 -9 -14 -1 0 7 -15
10 -40 9 l-40 -3 0 -59z"/>
<path d="M1891 5621 c-29 -53 -3 -104 49 -99 41 4 60 40 44 86 -8 22 -16 28
-46 30 -28 2 -39 -1 -47 -17z m75 -15 c3 -13 4 -35 2 -47 -2 -19 -9 -24 -33
-24 -27 0 -30 4 -33 33 -5 47 3 62 32 62 19 0 27 -7 32 -24z"/>
<path d="M2020 5579 c0 -33 4 -59 10 -59 6 0 10 21 10 46 0 32 5 51 17 59 15
11 14 13 -10 13 -26 0 -27 -2 -27 -59z"/>
<path d="M2112 5628 c-7 -7 -12 -28 -12 -48 0 -20 5 -41 12 -48 13 -13 78 -17
78 -4 0 5 -13 7 -28 4 -30 -4 -59 19 -47 38 3 5 24 10 46 10 41 0 46 8 29 41
-12 22 -59 26 -78 7z m66 -20 c3 -15 -4 -18 -33 -18 -33 0 -35 2 -25 21 14 24
53 22 58 -3z"/>
<path d="M13917 5453 c-12 -11 -8 -23 8 -23 8 0 15 7 15 15 0 16 -12 20 -23 8z"/>
<path d="M15884 5317 c-21 -32 -112 -181 -147 -241 -11 -17 -27 -40 -37 -51
-10 -11 -27 -38 -38 -60 -11 -22 -32 -51 -46 -64 -14 -14 -26 -33 -26 -43 0
-10 -5 -24 -10 -31 -19 -22 -58 -82 -79 -120 -12 -21 -30 -48 -41 -59 -11 -12
-20 -34 -20 -50 0 -15 -5 -28 -10 -28 -22 0 -98 -66 -116 -100 -10 -19 -21
-37 -24 -40 -38 -35 -123 -187 -110 -195 5 -3 62 -3 126 1 l116 7 29 45 c16
25 32 55 35 66 3 12 24 59 46 106 29 62 38 92 34 113 -5 22 6 52 43 125 27 54
60 122 74 152 14 30 71 149 127 264 93 194 125 282 74 203z"/>
<path d="M2268 5313 c17 -2 47 -2 65 0 17 2 3 4 -33 4 -36 0 -50 -2 -32 -4z"/>
<path d="M2430 4820 c0 -63 3 -80 14 -80 8 0 18 5 22 11 5 8 13 4 24 -11 21
-28 42 -18 34 16 -5 18 -2 24 10 24 9 0 16 4 16 8 0 10 -103 112 -113 112 -4
0 -7 -36 -7 -80z m70 15 c40 -41 42 -45 21 -45 -15 0 -21 -5 -18 -12 3 -7 8
-21 12 -30 11 -29 -11 -21 -24 8 -11 26 -12 26 -31 9 -20 -18 -20 -17 -20 48
0 37 4 67 8 67 4 0 28 -20 52 -45z"/>
<path d="M16512 4845 c-17 -19 -35 -35 -39 -35 -5 0 -26 -18 -48 -40 -22 -21
-43 -39 -47 -40 -4 0 -30 -13 -58 -30 -28 -16 -60 -30 -71 -30 -11 0 -17 -5
-14 -10 4 -6 -5 -20 -19 -31 -15 -11 -24 -25 -21 -30 4 -5 0 -9 -9 -9 -8 0
-27 -13 -43 -30 -15 -16 -31 -30 -35 -30 -4 0 -37 -29 -73 -65 -37 -36 -70
-63 -74 -60 -5 2 -14 -7 -21 -20 -7 -14 -18 -25 -25 -25 -14 0 -95 -77 -95
-91 0 -12 39 -9 164 11 92 15 131 40 214 140 29 36 77 90 106 121 29 30 61 68
72 85 10 16 27 38 36 48 10 11 18 28 18 39 0 11 28 50 61 88 34 39 59 72 57
75 -3 2 -19 -11 -36 -31z"/>
<path d="M13685 4840 c-3 -5 -1 -10 4 -10 6 0 11 5 11 10 0 6 -2 10 -4 10 -3
0 -8 -4 -11 -10z"/>
<path d="M17520 4606 c0 -2 7 -7 16 -10 8 -3 12 -2 9 4 -6 10 -25 14 -25 6z"/>
<path d="M13620 4276 c0 -22 1 -23 42 -12 23 6 34 12 25 14 -9 2 -17 8 -17 13
0 5 -11 9 -25 9 -20 0 -25 -5 -25 -24z"/>
<path d="M15693 4273 c9 -2 25 -2 35 0 9 3 1 5 -18 5 -19 0 -27 -2 -17 -5z"/>
<path d="M12470 4010 c0 -16 5 -19 33 -15 l32 5 -30 -10 c-16 -5 -36 -8 -42
-5 -8 3 -13 -5 -13 -19 0 -18 13 -32 50 -56 l51 -32 96 19 c53 11 98 24 100
29 5 15 -102 59 -177 73 -36 7 -69 17 -74 22 -16 15 -26 10 -26 -11z"/>
<path d="M12408 4013 c7 -3 16 -2 19 1 4 3 -2 6 -13 5 -11 0 -14 -3 -6 -6z"/>
<path d="M11846 3845 c-11 -8 -28 -15 -38 -15 -23 0 -23 -16 0 -29 12 -6 27
-4 50 8 28 14 31 19 20 33 -12 15 -15 15 -32 3z"/>
<path d="M9620 2539 c-102 -97 -198 -164 -322 -225 -51 -24 -96 -51 -101 -60
-9 -16 0 -15 98 11 28 7 86 21 130 30 44 8 94 20 110 26 27 10 113 32 175 45
28 6 62 19 102 40 14 8 36 14 47 14 33 0 59 21 53 42 -2 10 -21 27 -41 38 -20
10 -61 41 -93 69 -31 28 -60 51 -65 51 -4 0 -46 -37 -93 -81z"/>
<path d="M9228 2153 c7 -3 16 -2 19 1 4 3 -2 6 -13 5 -11 0 -14 -3 -6 -6z"/>
<path d="M8548 2043 c12 -2 32 -2 45 0 12 2 2 4 -23 4 -25 0 -35 -2 -22 -4z"/>
<path d="M8158 1983 c12 -2 32 -2 45 0 12 2 2 4 -23 4 -25 0 -35 -2 -22 -4z"/>
<path d="M8050 1970 c0 -5 5 -10 10 -10 6 0 10 5 10 10 0 6 -4 10 -10 10 -5 0
-10 -4 -10 -10z"/>
<path d="M7818 1933 c6 -2 18 -2 25 0 6 3 1 5 -13 5 -14 0 -19 -2 -12 -5z"/>
<path d="M6968 1803 c7 -3 16 -2 19 1 4 3 -2 6 -13 5 -11 0 -14 -3 -6 -6z"/>
<path d="M6628 1793 c7 -3 16 -2 19 1 4 3 -2 6 -13 5 -11 0 -14 -3 -6 -6z"/>
<path d="M6758 1783 c6 -2 18 -2 25 0 6 3 1 5 -13 5 -14 0 -19 -2 -12 -5z"/>
<path d="M6595 1769 c-22 -5 -12 -7 34 -8 35 0 62 2 58 5 -8 9 -58 10 -92 3z"/>
<path d="M5750 1765 c-8 -2 -143 -9 -300 -15 -416 -16 -441 -18 -447 -24 -4
-3 -37 -6 -75 -6 -73 0 -216 -25 -233 -41 -5 -5 -16 -9 -25 -9 -9 0 -83 -23
-165 -50 -83 -28 -175 -58 -205 -67 -30 -9 -57 -20 -60 -23 -3 -4 -26 -10 -52
-14 -25 -4 -52 -14 -58 -21 -7 -8 -20 -15 -29 -15 -10 0 -26 -7 -37 -15 -10
-8 -30 -15 -44 -15 -14 0 -52 -12 -85 -26 -33 -14 -87 -35 -120 -45 -58 -19
-135 -51 -260 -109 -33 -15 -75 -33 -92 -40 -18 -7 -33 -16 -33 -21 0 -5 -6
-9 -14 -9 -24 0 -94 -77 -105 -116 -13 -46 -5 -56 19 -26 10 12 21 22 25 22 4
0 15 8 24 18 30 32 86 69 136 90 75 30 78 32 105 47 14 8 40 15 58 15 17 0 32
3 32 8 0 4 15 12 33 18 17 7 57 22 87 34 30 12 70 26 88 31 17 6 32 14 32 19
0 6 16 10 36 10 35 0 123 23 156 41 10 5 50 14 90 19 39 6 76 14 82 18 15 12
89 32 114 32 11 0 22 4 24 10 2 5 37 15 78 22 41 7 79 18 83 25 6 9 19 12 43
7 21 -4 40 -2 48 5 16 14 166 43 366 71 74 11 178 27 230 36 52 8 151 24 220
35 181 28 257 43 266 52 4 4 20 7 36 7 15 0 28 5 28 10 0 9 -64 12 -100 5z"/>
<path d="M6388 1750 c-7 -4 -53 -11 -103 -15 -49 -3 -132 -10 -182 -14 -51 -4
-96 -11 -100 -15 -4 -4 31 -5 77 -2 129 9 455 39 444 42 -27 7 -124 10 -136 4z"/>
<path d="M5968 1693 c7 -3 16 -2 19 1 4 3 -2 6 -13 5 -11 0 -14 -3 -6 -6z"/>
<path d="M14291 5713 c-1 -18 19 -27 32 -13 9 10 8 12 -5 7 -9 -3 -19 -1 -22
6 -3 9 -5 9 -5 0z"/>
<path d="M6490 715 c9 -11 16 -12 25 -5 7 6 21 7 30 3 13 -4 16 -3 11 5 -4 7
-23 12 -43 12 -30 0 -34 -2 -23 -15z"/>
<path d="M7700 762 c0 -35 4 -52 15 -56 8 -3 15 -13 15 -23 0 -15 1 -15 14 2
12 16 16 17 30 6 13 -11 16 -11 16 0 1 10 5 8 15 -5 12 -16 15 -17 20 -3 4 8
5 30 3 48 -4 40 -28 52 -28 14 0 -15 -4 -24 -10 -20 -6 3 -7 17 -4 30 6 23 4
24 -31 18 -31 -5 -36 -3 -33 12 2 10 -3 20 -9 22 -9 3 -13 -10 -13 -45z"/>
<path d="M8880 710 c0 -19 3 -21 12 -12 9 9 9 15 0 24 -9 9 -12 7 -12 -12z"/>
<path d="M8910 720 c0 -6 18 -10 40 -10 22 0 40 4 40 8 0 5 -18 9 -40 10 -22
1 -40 -3 -40 -8z"/>
<path d="M1212 808 c-15 -15 -15 -61 0 -76 20 -20 56 -14 74 13 15 23 15 27 0
50 -18 27 -54 33 -74 13z"/>
<path d="M15445 811 c-8 -15 3 -31 21 -31 9 0 14 7 12 17 -4 20 -24 28 -33 14z"/>
<path d="M15370 731 c0 -15 6 -21 21 -21 25 0 22 33 -4 38 -12 2 -17 -3 -17
-17z"/>
<path d="M18388 793 c18 -2 45 -2 60 0 15 2 0 4 -33 4 -33 0 -45 -2 -27 -4z"/>
<path d="M18388 753 c18 -2 45 -2 60 0 15 2 0 4 -33 4 -33 0 -45 -2 -27 -4z"/>
<path d="M5334 774 c-22 -33 -9 -74 30 -93 25 -12 31 -11 55 6 53 40 31 113
-35 113 -25 0 -38 -7 -50 -26z"/>
<path d="M16062 771 c2 -7 7 -12 11 -12 12 1 9 15 -3 20 -7 2 -11 -2 -8 -8z"/>
<path d="M16368 773 c-26 -7 -24 -59 2 -66 17 -4 20 0 20 34 0 21 -1 38 -2 38
-2 -1 -11 -3 -20 -6z"/>
<path d="M5880 745 l0 -35 50 0 50 0 0 35 0 35 -50 0 -50 0 0 -35z"/>
<path d="M1667 753 c-11 -10 -8 -61 4 -69 19 -11 42 22 35 50 -6 25 -25 34
-39 19z"/>
<path d="M1767 753 c-14 -13 -6 -23 18 -23 18 0 23 4 19 15 -6 16 -26 20 -37
8z"/>
<path d="M2017 753 c-14 -13 -6 -23 18 -23 18 0 23 4 19 15 -6 16 -26 20 -37
8z"/>
<path d="M2180 745 c-11 -13 -9 -15 15 -15 16 0 25 5 23 12 -7 19 -24 20 -38
3z"/>
<path d="M2382 748 c-28 -28 3 -83 33 -58 8 7 15 20 15 29 0 17 -18 41 -30 41
-3 0 -11 -5 -18 -12z"/>
<path d="M2610 745 c-11 -13 -9 -15 15 -15 16 0 25 5 23 12 -7 19 -24 20 -38
3z"/>
<path d="M2703 705 c-3 -9 -3 -18 0 -22 10 -10 37 6 37 22 0 20 -29 20 -37 0z"/>
<path d="M17394 657 c-9 -25 0 -62 16 -62 10 0 15 10 15 34 0 36 -21 54 -31
28z"/>
<path d="M17480 635 c-8 -9 -8 -15 -2 -15 12 0 26 19 19 26 -2 2 -10 -2 -17
-11z"/>
<path d="M17604 646 c-8 -32 2 -59 19 -53 16 5 16 69 0 74 -7 3 -15 -7 -19
-21z"/>
<path d="M17894 656 c-8 -22 -1 -59 13 -64 17 -5 27 22 19 53 -7 28 -24 33
-32 11z"/>
<path d="M17933 413 c-7 -2 -13 -9 -13 -14 0 -6 4 -8 9 -4 6 3 12 -16 14 -42
3 -48 3 -48 5 10 1 31 1 57 0 56 -2 0 -9 -3 -15 -6z"/>
<path d="M17996 411 c-4 -5 3 -7 14 -4 15 4 20 0 20 -16 0 -13 -7 -21 -17 -22
-13 0 -12 -3 5 -10 29 -11 24 -31 -9 -41 -22 -6 -21 -7 6 -5 23 2 31 7 33 25
2 12 -2 22 -9 22 -9 0 -9 3 0 14 6 7 9 21 5 30 -7 17 -39 22 -48 7z"/>
<path d="M18117 385 l-27 -40 24 -3 c14 -2 27 -11 29 -20 4 -15 5 -15 6 1 0 9
7 17 14 17 9 0 9 2 0 8 -6 4 -13 23 -15 42 l-3 35 -28 -40z m23 -15 c0 -11 -7
-20 -15 -20 -13 0 -14 4 -5 20 6 11 13 20 15 20 3 0 5 -9 5 -20z"/>
<path d="M18184 407 c-3 -8 -4 -32 -2 -53 3 -34 6 -39 27 -39 28 0 42 33 31
75 -7 28 -47 40 -56 17z m41 -43 c0 -28 -4 -39 -15 -39 -16 0 -26 45 -16 72
11 28 31 7 31 -33z"/>
<path d="M7600 345 c-41 -25 -72 -45 -67 -45 9 -1 285 -1 295 0 7 0 -124 79
-143 86 -5 2 -44 -17 -85 -41z"/>
<path d="M8192 358 c-40 -25 -40 -33 -2 -53 17 -9 30 -17 30 -19 0 -3 -16 -14
-36 -26 l-35 -22 37 -26 c30 -20 41 -23 56 -13 10 6 27 17 38 23 16 10 24 10
40 0 11 -6 28 -17 38 -23 15 -10 26 -7 56 13 l37 26 -35 22 c-20 12 -36 23
-36 26 0 2 14 11 31 19 36 19 34 29 -6 55 -30 19 -31 19 -63 -1 -40 -26 -40
-34 -2 -54 17 -9 30 -17 30 -19 0 -3 -16 -14 -35 -26 l-35 -22 -36 23 c-39 24
-39 26 16 60 13 8 12 11 -5 25 -41 32 -50 33 -83 12z"/>
<path d="M9466 361 c-44 -29 -47 -42 -20 -86 15 -25 24 -33 24 -22 0 29 47 69
78 67 15 -1 45 -2 67 -1 l40 2 -33 29 c-26 24 -41 30 -80 30 -30 0 -58 -7 -76
-19z"/>
<path d="M10690 361 l-55 -6 -3 -52 c-2 -43 0 -53 13 -53 8 0 21 11 27 25 7
15 20 25 32 25 16 0 18 2 7 9 -11 7 -9 10 9 13 13 1 27 13 31 26 5 12 5 21 1
20 -4 -1 -32 -4 -62 -7z"/>
<path d="M323 343 c-31 -4 -33 -7 -33 -44 l0 -39 55 0 55 0 0 45 c0 49 3 48
-77 38z"/>
<path d="M835 325 c-26 -25 -29 -37 -15 -70 6 -16 -1 -30 -34 -65 l-41 -45 45
41 c35 33 49 40 65 34 33 -14 45 -11 70 15 31 30 32 65 2 93 -30 29 -62 28
-92 -3z m76 5 c5 0 14 -12 20 -26 13 -37 -11 -74 -49 -74 -35 0 -52 17 -52 51
0 30 35 63 58 54 8 -3 18 -5 23 -5z"/>
<path d="M5162 335 c-21 -9 -38 -27 -48 -50 -20 -49 1 -100 51 -120 31 -14 39
-14 70 0 78 32 78 138 1 170 -41 18 -33 18 -74 0z m83 -40 c14 -13 25 -33 25
-45 0 -27 -43 -70 -70 -70 -27 0 -70 43 -70 70 0 27 43 70 70 70 12 0 32 -11
45 -25z"/>
<path d="M5701 333 c-1 -22 3 -23 64 -23 61 0 65 1 64 23 -1 16 -2 18 -6 5 -4
-14 -15 -18 -58 -18 -43 0 -54 4 -58 18 -4 13 -5 11 -6 -5z"/>
<path d="M5882 325 c0 -16 2 -22 5 -12 2 9 2 23 0 30 -3 6 -5 -1 -5 -18z"/>
<path d="M18690 266 l0 -85 37 -3 c27 -2 41 -9 49 -26 l12 -23 4 28 c3 15 8
36 12 45 6 14 0 17 -36 21 -42 4 -42 4 7 4 28 0 60 5 72 11 12 7 32 12 45 13
13 0 17 3 11 6 -8 3 -13 23 -13 49 l0 44 -100 0 -100 0 0 -84z m133 37 c-18
-2 -48 -2 -65 0 -18 2 -4 4 32 4 36 0 50 -2 33 -4z m0 -40 c-18 -2 -48 -2 -65
0 -18 2 -4 4 32 4 36 0 50 -2 33 -4z"/>
<path d="M240 331 c-31 -5 -35 -10 -38 -38 -3 -32 -2 -33 37 -33 l41 0 0 40
c0 22 -1 39 -2 39 -2 -1 -19 -4 -38 -8z"/>
<path d="M15777 333 c-3 -5 17 -8 43 -8 26 0 46 3 43 8 -2 4 -22 7 -43 7 -21
0 -41 -3 -43 -7z"/>
<path d="M16780 338 c0 -3 7 -19 15 -34 19 -37 19 -71 0 -108 -18 -33 -14 -44
6 -20 21 26 19 129 -3 151 -10 9 -18 15 -18 11z"/>
<path d="M6964 320 c-28 -11 -54 -48 -54 -78 0 -68 77 -142 148 -142 38 0 93
23 116 49 21 23 20 24 -42 21 -50 -2 -88 19 -102 56 -13 32 2 61 32 66 21 3
21 5 -9 21 -35 19 -57 20 -89 7z"/>
<path d="M8800 320 c10 -6 11 -10 3 -10 -7 0 -13 -4 -13 -10 0 -5 7 -10 15
-10 8 0 15 9 15 20 0 12 -7 20 -17 20 -15 0 -16 -2 -3 -10z"/>
<path d="M8834 315 c-4 -9 -4 -19 0 -22 3 -4 6 0 6 8 0 12 2 11 10 -1 8 -12
11 -13 19 -1 7 11 10 11 15 0 3 -8 5 -5 3 6 -3 25 -44 33 -53 10z"/>
<path d="M8910 320 c10 -6 11 -10 3 -10 -7 0 -13 -7 -13 -15 0 -9 6 -12 15 -9
21 9 19 44 -2 44 -15 0 -16 -2 -3 -10z"/>
<path d="M8943 310 c-1 -11 4 -20 10 -20 7 0 13 9 13 20 0 11 -5 20 -11 20 -6
0 -11 -9 -12 -20z"/>
<path d="M8975 320 c-10 -16 16 -43 28 -31 11 11 2 41 -12 41 -5 0 -13 -5 -16
-10z"/>
<path d="M9021 308 c0 -22 1 -22 8 -3 l8 20 5 -20 c5 -18 6 -18 7 3 1 13 -5
22 -14 22 -9 0 -15 -9 -14 -22z"/>
<path d="M10043 323 l-33 -4 0 -70 0 -69 35 0 c32 0 35 -2 35 -30 l0 -30 110
0 110 0 0 100 0 100 -47 0 c-27 0 -77 2 -113 4 -36 2 -80 2 -97 -1z m13 -45
l7 -23 8 23 c10 25 29 21 30 -6 0 -12 3 -11 9 6 5 12 14 22 20 22 13 0 12 -6
-1 -52 -10 -38 -39 -53 -39 -21 0 15 -2 14 -14 -3 -19 -24 -32 -12 -41 39 -8
41 9 53 21 15z"/>
<path d="M16092 322 c-20 -13 31 -56 57 -47 13 4 27 -1 41 -15 17 -17 18 -24
9 -41 -9 -17 -8 -20 3 -17 7 3 14 16 16 30 2 18 -7 34 -38 61 -40 37 -63 44
-88 29z"/>
<path d="M1560 250 c0 -40 2 -71 5 -68 8 7 8 128 1 135 -3 4 -6 -27 -6 -67z"/>
<path d="M2650 250 c0 -40 2 -71 5 -68 8 7 8 128 1 135 -3 4 -6 -27 -6 -67z"/>
<path d="M16054 312 c3 -5 -4 -16 -15 -25 -10 -9 -19 -28 -19 -41 0 -41 25
-56 94 -56 35 0 68 -5 77 -12 7 -7 -20 22 -61 65 -69 72 -89 89 -76 69z m66
-72 l45 -39 -50 -1 c-55 0 -75 12 -75 45 0 47 22 46 80 -5z"/>
<path d="M16670 305 c-7 -8 -21 -15 -31 -15 -15 0 -19 -8 -19 -40 0 -31 4 -40
17 -40 9 0 25 -7 35 -17 17 -15 18 -13 18 55 0 40 -2 72 -4 72 -2 0 -9 -7 -16
-15z m10 -54 c0 -49 0 -49 -25 -38 -17 8 -25 20 -25 37 0 23 5 28 48 49 1 0 2
-21 2 -48z"/>
<path d="M17032 303 c-40 -20 -71 -61 -77 -105 -5 -32 -5 -32 10 7 21 52 49
81 99 99 23 8 32 15 21 15 -11 0 -35 -7 -53 -16z"/>
<path d="M1123 303 c14 -4 17 -16 17 -64 0 -33 4 -59 10 -59 6 0 10 26 10 59
0 48 3 60 18 64 9 3 -3 5 -28 5 -25 0 -37 -2 -27 -5z"/>
<path d="M1991 298 c0 -10 -7 -18 -13 -18 -10 0 -10 -2 -1 -8 6 -4 13 -25 15
-47 2 -31 8 -41 23 -43 18 -2 18 -2 3 8 -12 7 -18 23 -18 45 0 24 5 35 18 38
15 4 15 5 0 6 -9 0 -19 9 -21 19 -4 16 -5 16 -6 0z"/>
<path d="M10815 301 c32 -7 25 -17 -22 -30 l-25 -7 36 -24 c20 -14 36 -29 36
-35 -1 -12 -75 -65 -91 -65 -7 0 -9 25 -7 69 3 72 -2 80 -21 34 -6 -16 -30
-38 -52 -51 -35 -20 -40 -27 -37 -55 l3 -32 145 0 145 0 0 100 0 100 -70 2
c-44 1 -59 -1 -40 -6z"/>
<path d="M16756 295 c4 -11 8 -31 8 -45 0 -14 -4 -34 -8 -45 -8 -20 -7 -20 8
-1 9 11 16 32 16 46 0 14 -7 35 -16 46 -15 19 -16 19 -8 -1z"/>
<path d="M5700 255 l0 -45 65 0 65 0 0 45 0 45 -65 0 -65 0 0 -45z m120 0 l0
-35 -55 0 -55 0 0 35 0 35 55 0 55 0 0 -35z"/>
<path d="M15764 286 c-3 -8 -4 -29 -2 -48 3 -30 6 -33 41 -36 21 -2 44 2 51 8
8 5 21 8 30 4 13 -5 16 1 16 36 0 36 -2 41 -19 35 -11 -3 -22 -1 -26 5 -10 16
-85 13 -91 -4z m86 -36 l0 -40 -40 0 -40 0 0 40 0 40 40 0 40 0 0 -40z m40 0
c0 -21 -15 -27 -25 -10 -7 12 2 30 16 30 5 0 9 -9 9 -20z"/>
<path d="M16330 245 l0 -55 89 0 89 0 5 28 c3 15 3 39 0 55 l-5 27 -89 0 -89
0 0 -55z m170 0 l0 -45 -80 0 -80 0 0 45 0 45 80 0 80 0 0 -45z"/>
<path d="M16350 245 c0 -31 3 -35 25 -35 22 0 25 4 25 35 0 31 -3 35 -25 35
-22 0 -25 -4 -25 -35z"/>
<path d="M17260 245 l0 -55 33 1 c23 1 26 3 10 6 -14 3 -23 12 -23 23 0 11 9
20 23 23 l22 4 -22 2 c-16 1 -23 7 -23 20 0 12 8 21 23 24 16 3 13 5 -10 6
l-33 1 0 -55z"/>
<path d="M17340 245 c0 -30 5 -55 10 -55 6 0 10 19 10 43 l0 42 26 -42 c14
-24 29 -43 35 -43 5 0 9 25 9 55 0 62 -17 75 -22 18 l-3 -38 -22 38 c-12 20
-27 37 -33 37 -6 0 -10 -24 -10 -55z"/>
<path d="M17468 289 c-22 -12 -24 -71 -4 -89 26 -20 61 -8 64 23 3 23 0 27
-20 26 -17 -1 -18 -3 -5 -6 23 -6 23 -43 -1 -43 -24 0 -42 19 -42 46 0 28 24
48 50 41 11 -3 20 -1 20 4 0 12 -41 11 -62 -2z"/>
<path d="M5870 275 c0 -8 7 -15 15 -15 8 0 15 7 15 15 0 8 -7 15 -15 15 -8 0
-15 -7 -15 -15z"/>
<path d="M15475 248 l-40 -43 43 40 42 39 43 -39 42 -40 -40 43 c-21 23 -42
42 -45 42 -3 0 -24 -19 -45 -42z"/>
<path d="M1201 274 c-1 -6 6 -31 14 -54 18 -52 18 -45 -1 -64 -8 -9 -11 -16
-6 -16 5 0 14 6 19 13 16 20 53 127 44 127 -4 0 -14 -19 -21 -42 -11 -39 -13
-41 -21 -20 -21 52 -28 66 -28 56z"/>
<path d="M1301 209 c1 -41 4 -62 6 -48 3 21 9 26 24 22 27 -7 49 14 49 47 0
30 -22 55 -42 47 -9 -4 -7 -6 4 -6 20 -1 32 -33 23 -62 -5 -14 -14 -19 -28
-17 -18 2 -22 10 -23 40 0 21 -3 41 -7 45 -4 3 -6 -27 -6 -68z"/>
<path d="M1416 264 c-19 -18 -20 -38 -6 -65 11 -19 54 -27 64 -10 3 4 -5 6
-18 4 -17 -4 -27 1 -35 16 -11 19 -9 21 24 21 36 0 46 15 23 38 -16 16 -33 15
-52 -4z m52 -11 c2 -9 -7 -13 -28 -13 -28 0 -31 2 -20 15 15 18 41 16 48 -2z"/>
<path d="M1603 273 c13 -3 17 -15 17 -49 0 -24 5 -44 10 -44 13 0 13 56 0 81
-6 10 -18 18 -28 18 -16 -1 -16 -2 1 -6z"/>
<path d="M1676 264 c-19 -18 -20 -38 -6 -65 11 -19 54 -27 64 -10 3 4 -5 6
-18 4 -17 -4 -27 1 -35 16 -11 19 -9 21 24 21 36 0 46 15 23 38 -16 16 -33 15
-52 -4z m52 -11 c2 -9 -7 -13 -28 -13 -28 0 -31 2 -20 15 15 18 41 16 48 -2z"/>
<path d="M1771 225 c1 -27 3 -39 6 -25 9 56 14 69 31 73 9 3 5 4 -10 4 -27 -1
-28 -3 -27 -52z"/>
<path d="M1846 264 c-19 -18 -20 -38 -6 -65 11 -19 54 -27 64 -10 3 4 -5 6
-18 4 -17 -4 -27 1 -35 16 -11 19 -9 21 24 21 36 0 46 15 23 38 -16 16 -33 15
-52 -4z m52 -11 c2 -9 -7 -13 -28 -13 -28 0 -31 2 -20 15 15 18 41 16 48 -2z"/>
<path d="M2056 264 c-29 -29 -11 -84 27 -84 30 0 47 18 47 50 0 47 -42 66 -74
34z m59 -14 c15 -48 -26 -81 -55 -45 -10 12 -10 21 -2 40 14 30 48 33 57 5z"/>
<path d="M2209 264 c-11 -14 -10 -18 6 -30 10 -8 22 -14 27 -14 19 0 6 -29
-14 -33 -20 -3 -20 -4 2 -3 37 1 39 39 4 55 -28 12 -24 25 11 34 19 4 19 5 -1
6 -12 0 -28 -6 -35 -15z"/>
<path d="M2296 264 c-19 -18 -20 -38 -6 -65 11 -19 54 -27 64 -10 3 4 -5 6
-18 4 -17 -4 -27 1 -35 16 -11 19 -9 21 24 21 36 0 46 15 23 38 -16 16 -33 15
-52 -4z m52 -11 c2 -9 -7 -13 -28 -13 -28 0 -31 2 -20 15 15 18 41 16 48 -2z"/>
<path d="M2396 272 c-3 -5 6 -7 19 -4 37 7 32 -21 -6 -35 -42 -16 -37 -48 9
-49 l33 -1 -3 46 c-3 38 -7 47 -25 49 -11 2 -24 -1 -27 -6z m44 -57 c0 -21
-28 -31 -43 -16 -9 9 -8 14 3 21 22 14 40 12 40 -5z"/>
<path d="M2491 225 c1 -27 3 -39 6 -25 9 56 14 69 31 73 9 3 5 4 -10 4 -27 -1
-28 -3 -27 -52z"/>
<path d="M2566 264 c-32 -31 -8 -85 37 -83 22 2 22 2 -1 6 -30 6 -46 37 -32
62 5 11 20 22 32 24 23 4 23 4 1 6 -12 0 -29 -6 -37 -15z"/>
<path d="M2693 273 c13 -3 17 -15 17 -49 0 -24 5 -44 10 -44 13 0 13 56 0 81
-6 10 -18 18 -28 18 -16 -1 -16 -2 1 -6z"/>
<path d="M16723 250 c0 -16 4 -27 9 -24 4 3 8 14 8 24 0 10 -4 21 -8 24 -5 3
-9 -8 -9 -24z"/>
<path d="M17031 253 c-17 -16 -33 -41 -36 -58 -5 -29 -5 -29 5 -5 16 35 41 61
75 76 26 12 27 13 8 14 -13 0 -36 -12 -52 -27z"/>
<path d="M202 213 c3 -35 6 -38 41 -44 l37 -6 0 44 0 43 -41 0 -40 0 3 -37z"/>
<path d="M290 205 c0 -36 3 -45 18 -45 9 0 34 -3 55 -6 l37 -7 0 52 0 51 -55
0 -55 0 0 -45z"/>
<path d="M5883 205 c0 -27 2 -38 4 -22 2 15 2 37 0 50 -2 12 -4 0 -4 -28z"/>
<path d="M17052 217 c-12 -13 -22 -30 -22 -38 1 -8 7 -3 14 10 7 13 24 30 37
37 16 9 19 13 8 14 -8 0 -25 -10 -37 -23z"/>
<path d="M8261 198 l-34 -22 29 -23 c36 -29 52 -29 88 0 l29 24 -35 21 c-42
26 -36 26 -77 0z"/>
<path d="M8844 205 c23 -95 28 -108 36 -95 5 9 4 20 -2 27 -7 9 -7 17 1 27 17
21 130 19 156 -3 18 -15 19 -15 7 1 -11 14 -10 17 10 21 13 2 -24 5 -81 6 -86
1 -106 4 -118 19 -13 16 -14 16 -9 -3z"/>
<path d="M9448 201 l-28 -6 23 -28 c12 -15 36 -31 54 -36 30 -9 33 -7 52 25
l20 34 -24 -6 c-15 -4 -34 0 -48 8 -12 8 -34 12 -49 9z"/>
<path d="M18850 197 c0 -10 8 -13 25 -9 14 2 25 0 25 -5 0 -5 -11 -20 -25 -33
-36 -33 -32 -50 11 -50 21 0 33 4 29 10 -3 6 -16 10 -28 10 l-21 0 22 16 c34
23 27 68 -10 72 -19 2 -28 -1 -28 -11z"/>
<path d="M5701 178 c1 -17 2 -19 6 -5 4 13 15 17 58 17 43 0 54 -4 58 -17 4
-14 5 -12 6 5 1 21 -3 22 -64 22 -61 0 -65 -1 -64 -22z"/>
<path d="M17070 185 c0 -8 7 -15 15 -15 8 0 15 7 15 15 0 8 -7 15 -15 15 -8 0
-15 -7 -15 -15z"/>
<path d="M17733 183 c-7 -2 -13 -9 -13 -14 0 -6 4 -8 9 -4 6 3 12 -16 14 -42
3 -48 3 -48 5 10 1 31 1 57 0 56 -2 0 -9 -3 -15 -6z"/>
<path d="M17813 183 c-7 -2 -13 -9 -13 -14 0 -6 4 -8 9 -4 6 3 12 -16 14 -42
3 -48 3 -48 5 10 1 31 1 57 0 56 -2 0 -9 -3 -15 -6z"/>
<path d="M17934 177 c-3 -8 -4 -32 -2 -53 3 -34 6 -39 27 -39 28 0 42 33 31
75 -7 28 -47 40 -56 17z m41 -43 c0 -28 -4 -39 -15 -39 -16 0 -26 45 -16 72
11 28 31 7 31 -33z"/>
<path d="M18033 183 c-7 -2 -13 -9 -13 -14 0 -6 4 -8 9 -4 6 3 12 -16 14 -42
3 -48 3 -48 5 10 1 31 1 57 0 56 -2 0 -9 -3 -15 -6z"/>
<path d="M18156 182 c-3 -6 2 -8 13 -5 29 7 32 -22 5 -48 -34 -32 -31 -49 9
-48 31 2 31 2 3 6 l-28 5 27 28 c15 15 25 36 23 47 -3 19 -42 30 -52 15z"/>
<path d="M18234 177 c-3 -8 -4 -32 -2 -53 3 -34 6 -39 27 -39 28 0 42 33 31
75 -7 28 -47 40 -56 17z m41 -43 c0 -28 -4 -39 -15 -39 -16 0 -26 45 -16 72
11 28 31 7 31 -33z"/>
<path d="M18316 182 c-3 -6 2 -8 13 -5 29 7 32 -22 5 -48 -34 -32 -31 -49 9
-48 31 2 31 2 3 6 l-28 5 27 28 c15 15 25 36 23 47 -3 19 -42 30 -52 15z"/>
<path d="M18413 183 c-7 -2 -13 -9 -13 -14 0 -6 4 -8 9 -4 6 3 12 -16 14 -42
3 -48 3 -48 5 10 1 31 1 57 0 56 -2 0 -9 -3 -15 -6z"/>
<path d="M15777 168 c2 -5 22 -8 43 -8 21 0 41 3 43 8 3 4 -17 7 -43 7 -26 0
-46 -3 -43 -7z"/>
<path d="M18982 155 c0 -16 2 -22 5 -12 2 9 2 23 0 30 -3 6 -5 -1 -5 -18z"/>
<path d="M6350 155 c0 -8 9 -15 20 -15 11 0 20 7 20 15 0 8 -9 15 -20 15 -11
0 -20 -7 -20 -15z"/>
<path d="M6490 155 c0 -8 9 -15 20 -15 11 0 20 7 20 15 0 8 -9 15 -20 15 -11
0 -20 -7 -20 -15z"/>
<path d="M7695 137 l-40 -22 43 -3 c23 -2 61 -2 85 0 l42 3 -38 23 c-46 26
-42 27 -92 -1z"/>
<path d="M8915 140 c10 -11 20 -20 22 -20 2 0 -2 9 -9 20 -7 11 -17 20 -22 20
-5 0 -1 -9 9 -20z"/>
<path d="M17878 123 c6 -2 18 -2 25 0 6 3 1 5 -13 5 -14 0 -19 -2 -12 -5z"/>
<path d="M18098 123 c6 -2 18 -2 25 0 6 3 1 5 -13 5 -14 0 -19 -2 -12 -5z"/>
<path d="M18873 53 c9 -2 23 -2 30 0 6 3 -1 5 -18 5 -16 0 -22 -2 -12 -5z"/>
<path d="M6810 15 c0 -13 35 -15 255 -15 220 0 255 2 255 15 0 13 -35 15 -255
15 -220 0 -255 -2 -255 -15z"/>
<path d="M9290 15 c0 -13 35 -15 255 -15 220 0 255 2 255 15 0 13 -35 15 -255
15 -220 0 -255 -2 -255 -15z"/>
<path d="M9910 15 c0 -13 35 -15 255 -15 220 0 255 2 255 15 0 13 -35 15 -255
15 -220 0 -255 -2 -255 -15z"/>
<path d="M10480 15 c0 -13 41 -15 305 -15 264 0 305 2 305 15 0 13 -41 15
-305 15 -264 0 -305 -2 -305 -15z"/>
</g>
</svg>
